<svg width="18" height="19" viewBox="0 0 18 19" fill="none" xmlns="http://www.w3.org/2000/svg">
<path d="M12.2344 18.6484C11.5 16.4453 10.0312 12.0391 7.82812 5.42969C7.8125 5.42969 7.78125 5.42969 7.73438 5.42969C7.70312 5.32031 7.64844 5.09375 7.57031 4.75C7.75781 4.0625 8.14062 2.6875 8.71875 0.625C8.84375 0.625 9.08594 0.625 9.44531 0.625C10.4453 3.625 12.4531 9.63281 15.4688 18.6484C14.9219 18.6484 13.8438 18.6484 12.2344 18.6484ZM0.398438 19C0.398438 18.9062 0.398438 18.7031 0.398438 18.3906C1.35156 18.3906 3.26562 18.3906 6.14062 18.3906C6.14062 18.5 6.14062 18.7031 6.14062 19C5.1875 19 3.27344 19 0.398438 19ZM5.0625 13.3281C5.0625 13.2344 5.0625 13.0391 5.0625 12.7422C6.35938 12.7422 8.95312 12.7422 12.8438 12.7422C12.8438 12.8359 12.8438 13.0312 12.8438 13.3281C11.5469 13.3281 8.95312 13.3281 5.0625 13.3281ZM9.375 19C9.375 18.9062 9.375 18.7031 9.375 18.3906C10.7344 18.3906 13.4766 18.3906 17.6016 18.3906C17.6016 18.5 17.6016 18.7031 17.6016 19C16.2266 19 13.4844 19 9.375 19ZM2.46094 18.6484C3.49219 15.6328 5.57812 9.625 8.71875 0.625C8.84375 0.625 9.08594 0.625 9.44531 0.625C9.19531 1.3125 8.70312 2.6875 7.96875 4.75C7.1875 7.0625 5.60938 11.6953 3.23438 18.6484C3.10938 18.6484 2.85156 18.6484 2.46094 18.6484Z" fill="url(#paint0_linear_293_17)"/>
<defs>
<linearGradient id="paint0_linear_293_17" x1="9.00002" y1="3.21635" x2="9.00015" y2="15.4663" gradientUnits="userSpaceOnUse">
<stop stop-color="#B09134"/>
<stop offset="0.447443" stop-color="#FFD966"/>
<stop offset="1" stop-color="#B09134"/>
</linearGradient>
</defs>
</svg>
