<svg width="18" height="19" viewBox="0 0 18 19" fill="none" xmlns="http://www.w3.org/2000/svg">
<path d="M12.8319 2.46777H7.58515H6.54367C6.42576 2.46777 6.34716 2.31934 6.34716 2.22656V0.389648C6.34716 0.204102 6.15065 0 5.8952 0C5.69083 0 5.49563 0.111328 5.42358 0.166992C3.70742 1.44727 0.251528 4.03008 0.157205 4.11914C0.0393013 4.23047 0 4.24902 0 4.43457C0 4.58301 0.183406 4.76855 0.275109 4.84277L5.42358 8.70215C5.50218 8.73926 5.69476 8.81348 5.83624 8.81348C6.0131 8.81348 6.0917 8.81348 6.20961 8.70215C6.30393 8.61309 6.31441 8.49186 6.30786 8.44238V6.75391C6.30786 6.41992 6.48472 6.41992 6.75983 6.41992H11.2795C11.9017 6.38281 13.4293 6.41621 14.5611 6.84668C15.693 7.27715 16.3821 7.9043 16.5852 8.16406L17.2729 8.79492C17.6725 9.07943 18.3341 9.1252 17.7838 7.03223C17.0961 4.41602 16.5852 4.21191 15.6223 3.39551C14.852 2.74238 13.441 2.50488 12.8319 2.46777Z" fill="url(#paint0_linear_79_5)"/>
<path d="M12.714 10.4092C12.6288 10.3473 12.4114 10.2125 12.1441 10.168C12.0262 10.1483 11.9594 10.1865 11.8493 10.2607C11.7118 10.3535 11.6921 10.5576 11.6921 10.7617V12.3203C11.6921 12.5244 11.4956 12.5801 11.3188 12.5801H6.11135C5.67904 12.5801 4.87336 12.4873 4.59825 12.4502C4.32314 12.4131 3.41921 12.209 2.82969 11.875C2.24017 11.541 1.82751 11.374 1.3559 10.7803C0.884279 10.1865 0.510917 10.0938 0.412664 10.0752C0.31441 10.0566 0.0196507 9.98242 0.0196507 10.6689C0.0196507 11.3538 0.215196 11.9832 0.645301 13.3677L0.648472 13.3779C1.08079 14.7695 2.20087 15.6045 3.34061 16.0869C4.48035 16.5693 5.16812 16.5137 5.60044 16.5137C6.03275 16.5137 11.2795 16.5322 11.417 16.5322C11.5546 16.5322 11.6135 16.6621 11.6332 16.7734C11.6528 16.8848 11.6332 18.6846 11.6921 18.7959C11.7511 18.9072 11.9083 19 12.0655 19C12.2227 19 12.4782 18.8887 12.6157 18.7959C12.7533 18.7031 17.2729 15.3076 17.3712 15.2334C17.4694 15.1592 18 14.8809 18 14.584C18 14.3465 17.5153 13.9655 17.2729 13.8047L12.714 10.4092Z" fill="url(#paint1_linear_79_5)"/>
<defs>
<linearGradient id="paint0_linear_79_5" x1="9" y1="0" x2="9" y2="19" gradientUnits="userSpaceOnUse">
<stop stop-color="#D4AF37"/>
<stop offset="0.385" stop-color="#FFE494"/>
<stop offset="1" stop-color="#D4AF37"/>
</linearGradient>
<linearGradient id="paint1_linear_79_5" x1="9" y1="0" x2="9" y2="19" gradientUnits="userSpaceOnUse">
<stop stop-color="#D4AF37"/>
<stop offset="0.385" stop-color="#FFE494"/>
<stop offset="1" stop-color="#D4AF37"/>
</linearGradient>
</defs>
</svg>
