<svg width="8" height="17" viewBox="0 0 8 17" fill="none" xmlns="http://www.w3.org/2000/svg">
<path d="M3.03125 11.5664C2.92708 11.1758 2.86849 10.8307 2.85547 10.5312C2.84245 10.2318 2.83594 10.0104 2.83594 9.86719C2.83594 9.08594 2.95964 8.42839 3.20703 7.89453C3.44141 7.36068 3.73438 6.91146 4.08594 6.54688C4.45052 6.15625 4.80208 5.80469 5.14062 5.49219C5.49219 5.19271 5.78516 4.88021 6.01953 4.55469C6.26693 4.24219 6.39062 3.87109 6.39062 3.44141C6.39062 2.95964 6.27344 2.55599 6.03906 2.23047C5.80469 1.90495 5.4987 1.65755 5.12109 1.48828C4.74349 1.30599 4.34635 1.21484 3.92969 1.21484C3.5 1.21484 3.10938 1.28646 2.75781 1.42969C2.40625 1.5599 2.1263 1.72266 1.91797 1.91797C1.72266 2.11328 1.625 2.3151 1.625 2.52344C1.625 2.69271 1.67708 2.81641 1.78125 2.89453C1.88542 2.97266 2.01562 3.05729 2.17188 3.14844C2.3151 3.21354 2.4388 3.30469 2.54297 3.42188C2.64714 3.55208 2.69922 3.76042 2.69922 4.04688C2.69922 4.35938 2.59505 4.58073 2.38672 4.71094C2.19141 4.85417 1.94401 4.92578 1.64453 4.92578C1.30599 4.92578 1.02604 4.80208 0.804688 4.55469C0.583333 4.32031 0.472656 3.95573 0.472656 3.46094C0.472656 2.99219 0.615885 2.54297 0.902344 2.11328C1.1888 1.69661 1.57292 1.35156 2.05469 1.07812C2.5625 0.817708 3.14844 0.6875 3.8125 0.6875C4.58073 0.6875 5.24479 0.84375 5.80469 1.15625C6.3776 1.48177 6.82682 1.94401 7.15234 2.54297C7.46484 3.12891 7.62109 3.83203 7.62109 4.65234C7.62109 5.21224 7.52344 5.70703 7.32812 6.13672C7.13281 6.55339 6.88542 6.93099 6.58594 7.26953C6.28646 7.59505 5.96745 7.90755 5.62891 8.20703C5.27734 8.50651 4.95182 8.81901 4.65234 9.14453C4.35286 9.45703 4.10547 9.80859 3.91016 10.1992C3.71484 10.5898 3.61719 11.0456 3.61719 11.5664C3.48698 11.5664 3.29167 11.5664 3.03125 11.5664ZM3.53906 16.2344C3.14844 16.2344 2.8099 16.0911 2.52344 15.8047C2.23698 15.5182 2.09375 15.1797 2.09375 14.7891C2.09375 14.3854 2.23698 14.0404 2.52344 13.7539C2.8099 13.4674 3.14844 13.3242 3.53906 13.3242C3.94271 13.3242 4.28776 13.4674 4.57422 13.7539C4.86068 14.0404 5.00391 14.3854 5.00391 14.7891C5.00391 15.1797 4.86068 15.5182 4.57422 15.8047C4.28776 16.0911 3.94271 16.2344 3.53906 16.2344Z" fill="url(#paint0_linear_74_149)"/>
<path d="M3.03125 11.5664C2.92708 11.1758 2.86849 10.8307 2.85547 10.5312C2.84245 10.2318 2.83594 10.0104 2.83594 9.86719C2.83594 9.08594 2.95964 8.42839 3.20703 7.89453C3.44141 7.36068 3.73438 6.91146 4.08594 6.54688C4.45052 6.15625 4.80208 5.80469 5.14062 5.49219C5.49219 5.19271 5.78516 4.88021 6.01953 4.55469C6.26693 4.24219 6.39062 3.87109 6.39062 3.44141C6.39062 2.95964 6.27344 2.55599 6.03906 2.23047C5.80469 1.90495 5.4987 1.65755 5.12109 1.48828C4.74349 1.30599 4.34635 1.21484 3.92969 1.21484C3.5 1.21484 3.10938 1.28646 2.75781 1.42969C2.40625 1.5599 2.1263 1.72266 1.91797 1.91797C1.72266 2.11328 1.625 2.3151 1.625 2.52344C1.625 2.69271 1.67708 2.81641 1.78125 2.89453C1.88542 2.97266 2.01562 3.05729 2.17188 3.14844C2.3151 3.21354 2.4388 3.30469 2.54297 3.42188C2.64714 3.55208 2.69922 3.76042 2.69922 4.04688C2.69922 4.35938 2.59505 4.58073 2.38672 4.71094C2.19141 4.85417 1.94401 4.92578 1.64453 4.92578C1.30599 4.92578 1.02604 4.80208 0.804688 4.55469C0.583333 4.32031 0.472656 3.95573 0.472656 3.46094C0.472656 2.99219 0.615885 2.54297 0.902344 2.11328C1.1888 1.69661 1.57292 1.35156 2.05469 1.07812C2.5625 0.817708 3.14844 0.6875 3.8125 0.6875C4.58073 0.6875 5.24479 0.84375 5.80469 1.15625C6.3776 1.48177 6.82682 1.94401 7.15234 2.54297C7.46484 3.12891 7.62109 3.83203 7.62109 4.65234C7.62109 5.21224 7.52344 5.70703 7.32812 6.13672C7.13281 6.55339 6.88542 6.93099 6.58594 7.26953C6.28646 7.59505 5.96745 7.90755 5.62891 8.20703C5.27734 8.50651 4.95182 8.81901 4.65234 9.14453C4.35286 9.45703 4.10547 9.80859 3.91016 10.1992C3.71484 10.5898 3.61719 11.0456 3.61719 11.5664C3.48698 11.5664 3.29167 11.5664 3.03125 11.5664ZM3.53906 16.2344C3.14844 16.2344 2.8099 16.0911 2.52344 15.8047C2.23698 15.5182 2.09375 15.1797 2.09375 14.7891C2.09375 14.3854 2.23698 14.0404 2.52344 13.7539C2.8099 13.4674 3.14844 13.3242 3.53906 13.3242C3.94271 13.3242 4.28776 13.4674 4.57422 13.7539C4.86068 14.0404 5.00391 14.3854 5.00391 14.7891C5.00391 15.1797 4.86068 15.5182 4.57422 15.8047C4.28776 16.0911 3.94271 16.2344 3.53906 16.2344Z" fill="url(#paint1_linear_74_149)"/>
<defs>
<linearGradient id="paint0_linear_74_149" x1="4.125" y1="-2" x2="4.125" y2="23" gradientUnits="userSpaceOnUse">
<stop stop-color="#D4AF37"/>
<stop offset="0.49" stop-color="#FFE493"/>
<stop offset="1" stop-color="#BF9B30"/>
</linearGradient>
<linearGradient id="paint1_linear_74_149" x1="4.125" y1="-2" x2="4.125" y2="23" gradientUnits="userSpaceOnUse">
<stop stop-color="#AAAAAA"/>
<stop offset="0.424545" stop-color="#FFFEFE"/>
<stop offset="1" stop-color="#AAAAAA"/>
</linearGradient>
</defs>
</svg>

