<svg width="236" height="21" viewBox="0 0 236 21" fill="none" xmlns="http://www.w3.org/2000/svg">
<path d="M132.552 12.1391V11.3759L132.156 9.08991H131.895C132.156 9.93713 132.288 10.8684 132.288 11.8847V12.3935L132.552 12.1391ZM134.258 6.29388V6.16653H134.126C132.903 6.42093 131.852 6.54828 130.976 6.54828V6.67533L131.633 6.80135H131.765C132.574 6.80135 133.404 6.6336 134.258 6.29388ZM150.399 11.1228C149.504 11.7573 148.41 12.2664 147.119 12.6466V12.7739H147.251C148.124 12.711 149.132 12.2453 150.27 11.3759L150.399 11.2485V11.1228ZM138.721 20.7793C137.8 21.22 135.361 21.1333 134.913 19.2539C134.857 19.006 134.851 18.4842 134.913 18.2376C135.164 17.2513 135.811 16.8396 136.358 16.8396H136.751C137.191 16.9875 137.522 17.3797 137.406 17.983C137.298 18.5536 136.487 18.492 136.487 18.492L135.7 18.3647V18.8735C135.943 19.2959 136.29 19.5083 136.751 19.5083C138.042 19.5083 138.829 18.7031 139.112 17.094V16.4592C139.112 14.7019 137.757 12.9221 135.045 11.1228L133.207 9.59741H133.078C133.25 9.93713 133.339 10.4446 133.339 11.1228L132.814 15.0611C132.814 15.6328 133.293 16.2257 134.258 16.8396V16.9667C134.169 17.2211 133.908 17.3484 133.469 17.3484C133.469 17.3484 132.776 17.3969 132.552 17.3484C131.232 17.0663 130.714 16.0354 130.714 15.0611C130.385 15.0611 129.86 14.8918 129.663 14.299C129.574 14.0263 129.555 13.4218 129.663 13.1554C130.353 11.4609 130.976 9.49121 130.976 9.08991C130.976 8.24269 130.45 7.47923 129.402 6.80135V6.92973C130.014 7.64987 130.253 8.45639 130.321 9.34301C130.385 10.2085 130.418 11.7772 128.876 12.5195C128.876 12.5195 128.386 12.6387 128.221 12.6466C126.903 12.7097 126.251 11.8847 126.251 10.741C126.251 10.1062 126.712 9.39806 127.696 9.47034C128.351 9.51887 128.688 10.0472 128.615 10.4866C128.526 11.015 128.087 11.2762 127.564 11.2485C126.957 11.2185 126.645 10.614 126.645 10.614C126.645 10.614 126.588 11.1935 126.645 11.3759C126.85 12.0524 127.564 12.2664 128.221 12.2664C129.183 12.2664 130.057 11.5241 130.057 9.97914C130.057 9.39937 129.588 7.81766 129.588 7.81766C129.216 8.45379 128.706 8.92579 127.825 8.96258C126.763 9.0059 126.251 8.28472 126.251 7.43751C126.251 6.31476 125.246 5.25644 123.233 4.26102C122.535 3.92261 121.963 3.75197 121.527 3.75197H121.395C119.907 3.98549 119.166 4.83271 119.166 6.29388C119.166 7.07795 119.734 7.5437 120.869 7.69191C121.591 7.69191 122.031 7.26814 122.182 6.42093C122.182 6.42093 122.198 6.13367 122.182 6.03948C122.095 5.51085 121.527 5.27732 120.74 5.27732V5.15025C120.74 5.15025 121.031 5.04015 121.133 5.02293C121.823 4.91412 122.443 5.4636 122.578 6.42093C122.664 7.05053 122.287 8.21374 120.608 8.07205C119.54 7.98308 118.759 7.5502 118.638 5.91213C118.589 5.2366 118.945 4.55744 119.559 3.8793C120.433 3.26561 121.219 2.92718 121.92 2.863C121.92 2.863 122.907 2.83925 123.233 2.863C125.219 3.0125 127.213 4.04994 129.27 5.53172H129.402C130.714 5.29846 131.267 4.99135 131.385 4.3881C131.687 2.88257 130.321 2.863 130.321 2.863V2.99007C130.321 2.99007 130.701 3.34022 130.714 3.49912C130.755 4.00923 130.45 4.26102 129.925 4.26102C129.925 4.26102 129.221 4.11412 129.27 3.3718C129.307 2.80403 129.925 2.6086 130.45 2.6086C131.326 2.7568 131.649 3.18942 131.765 3.8793C131.887 4.62032 131.194 5.27732 130.976 5.27732V5.53172C130.976 5.53172 133.924 3.1568 135.307 3.1174C135.635 3.10826 136.072 3.45582 136.619 4.1337L137.145 4.00662C138.128 4.00662 139.096 4.53237 139.376 5.7848C139.53 6.47598 139.112 7.05575 139.112 7.05575C138.436 6.37892 137.867 6.03948 137.406 6.03948C136.665 6.03948 135.668 6.62941 134.126 7.18283C133.687 7.34173 132.288 7.56455 132.288 7.56455V7.81895C133.318 8.2847 134.498 8.66617 135.832 8.96258C135.832 8.96258 137.471 8.78437 137.932 8.58111C138.891 8.15737 139.05 7.60395 139.77 7.56455C140.643 7.51733 141.602 8.18112 141.476 9.47034C141.376 10.4723 140.163 10.8684 138.721 10.8684H138.589L137.67 10.741L137.538 10.9954C139.595 11.7573 141.125 12.1391 142.133 12.1391C142.133 12.1391 145.289 12.4827 147.381 9.59741C147.823 8.98894 147.777 8.22025 147.777 7.56455V7.43751C147.777 5.74307 146.96 3.97765 144.276 3.91477C143.007 3.8845 141.756 4.67929 141.608 6.29388C141.457 7.91995 142.12 9.06747 144.365 8.70818C145.252 8.5652 145.61 7.77304 145.545 7.18283C145.429 6.1587 144.669 5.65905 143.575 5.65905V5.53172L144.233 5.40465C144.756 5.40465 145.551 5.6105 145.807 6.42093C146.432 8.3935 144.971 9.41633 143.314 9.21568C141.74 9.02704 141.082 7.7981 141.082 6.54828V6.42093C141.082 5.76392 141.236 4.88124 142.001 4.1337C142.751 3.39816 143.75 3.24447 144.626 3.24447C146.769 3.24447 148.407 4.51541 148.693 7.18283C148.717 7.40461 148.693 8.07205 148.693 8.07205L148.564 8.96258H148.693C150.75 6.33717 152.28 4.59945 153.288 3.75197C154.118 2.99007 155.302 2.6086 156.832 2.6086C158.625 2.6086 159.719 3.3718 160.112 4.89585C160.112 4.89585 160.287 6.0405 160.244 6.42093C160.05 8.0984 159.155 8.6466 158.668 8.83551C156.336 9.73256 155.452 8.15346 155.52 7.56455C155.617 6.70168 156.196 6.06688 156.832 6.29388C157.371 6.4854 157.627 7.02681 157.619 7.43751C157.617 7.56849 157.487 7.94631 157.487 7.94631V8.19938H157.619C158.32 8.15737 158.668 7.81896 158.668 7.18283C158.668 7.18283 158.972 4.35809 155.52 4.3881C153.42 4.40662 151.364 5.82811 149.351 8.70818H149.48C149.898 8.2847 150.246 8.07466 150.531 8.07205C151.221 8.06814 151.582 8.58111 151.582 8.58111L152.763 8.32646C155.326 8.31993 155.124 10.614 155.124 10.614C155.124 10.614 154.466 10.1652 153.156 10.2322C152.431 10.2701 151.62 11.802 149.612 12.901C149.197 13.1293 148.248 13.3456 147.777 13.41C147.515 13.4452 146.984 13.4505 146.726 13.41C146.214 13.3286 144.756 12.7739 144.756 12.7739C144.473 12.943 143.599 13.0703 142.133 13.1554C140.185 13.1554 138.042 12.4775 135.7 11.1228V11.2485C139.112 13.6211 140.983 15.7116 140.966 17.4048C140.956 18.522 140.834 19.7653 138.721 20.7793Z" fill="#383838"/>
<path d="M103.712 12.3952V11.8843C103.712 10.8695 103.843 9.93708 104.106 9.08944H103.843L103.449 11.3757V12.1409L103.712 12.3952ZM104.237 6.80315H104.369L105.023 6.67602V6.54887C104.15 6.54887 103.099 6.42171 101.873 6.16742H101.742V6.29458C102.596 6.63363 103.427 6.80315 104.237 6.80315ZM85.6006 11.2486L85.732 11.3757C86.8677 12.2469 87.8746 12.7107 88.7501 12.7743H88.8815V12.6472C87.5901 12.2681 86.4956 11.7571 85.6006 11.1238V11.2486ZM95.0321 17.4057C95.0175 15.7128 96.8853 13.622 100.3 11.2486V11.1238C97.9578 12.4776 95.8152 13.1558 93.8671 13.1558C92.403 13.071 91.5275 12.9438 91.2429 12.7743C91.2429 12.7743 89.7862 13.33 89.2754 13.41C89.0152 13.4524 88.485 13.4454 88.2248 13.41C87.753 13.3465 86.8045 13.1298 86.3862 12.9014C84.3798 11.8019 83.5699 10.2714 82.8452 10.2337C81.5343 10.1655 80.8752 10.6152 80.8752 10.6152C80.8752 10.6152 80.6734 8.32184 83.2367 8.32655L84.4187 8.58084C84.4187 8.58084 84.7786 8.06991 85.4669 8.07227C85.7514 8.07462 86.1041 8.28417 86.5175 8.70799H86.6489C84.6376 5.82838 82.5825 4.40622 80.4812 4.38974C77.0278 4.35913 77.3318 7.18459 77.3318 7.18459C77.3318 7.82032 77.682 8.15704 78.3824 8.19942H78.5113V7.94748C78.5113 7.94748 78.3848 7.56838 78.3824 7.43888C78.3727 7.02683 78.6305 6.4853 79.1679 6.29458C79.8051 6.06854 80.3839 6.70192 80.4812 7.56604C80.5493 8.15467 79.6616 9.73223 77.3318 8.83515C76.8429 8.64679 75.9504 8.09818 75.7558 6.42173C75.712 6.0403 75.8871 4.89596 75.8871 4.89596C76.2811 3.37257 77.3755 2.6097 79.1679 2.6097C80.7001 2.6097 81.8821 2.99114 82.7138 3.75166C83.7183 4.5993 85.2504 6.33696 87.3055 8.96228H87.4368L87.3055 8.07227C87.3055 8.07227 87.2812 7.40592 87.3055 7.18459C87.5925 4.51689 89.2317 3.24543 91.3743 3.24543C92.2498 3.24543 93.2494 3.39847 93.9984 4.13545C94.7621 4.88184 94.9178 5.76481 94.9178 6.42173V6.54887C94.9178 7.79913 94.2587 9.0282 92.6876 9.21657C91.0265 9.41671 89.5697 8.39485 90.1923 6.42173C90.4501 5.61177 91.243 5.40456 91.7683 5.40456L92.4249 5.53169V5.65885C91.3305 5.65885 90.5693 6.16036 90.455 7.18459C90.3893 7.77323 90.7492 8.56672 91.6369 8.70799C93.8793 9.06824 94.5432 7.92157 94.3924 6.29458C94.2441 4.67936 92.9916 3.88587 91.7245 3.91648C89.0395 3.9777 88.2248 5.7436 88.2248 7.43888V7.56604C88.2248 8.2206 88.1762 8.99054 88.6188 9.59801C90.7128 12.4823 93.8671 12.1409 93.8671 12.1409C94.874 12.1409 96.4062 11.7571 98.4612 10.9966L98.3299 10.7423L97.413 10.8695H97.2817C95.8371 10.8695 94.6235 10.4739 94.5238 9.47088C94.3973 8.18058 95.3579 7.51895 96.231 7.56604C96.9509 7.60371 97.109 8.15702 98.0672 8.58084C98.5293 8.78569 100.168 8.96228 100.168 8.96228C101.501 8.66796 102.683 8.28417 103.712 7.82032V7.56604C103.712 7.56604 102.314 7.34235 101.873 7.18459C100.331 6.63127 99.3367 6.04029 98.5925 6.04029C98.1329 6.04029 97.5662 6.37935 96.8852 7.05746C96.8852 7.05746 96.4694 6.47589 96.6226 5.786C96.9023 4.53338 97.8702 4.00832 98.8552 4.00832L99.3805 4.13545C99.9277 3.45734 100.365 3.10886 100.694 3.11828C102.078 3.1583 105.023 5.53169 105.023 5.53169V5.27741C104.804 5.27741 104.111 4.62049 104.237 3.88116C104.352 3.19128 104.675 2.75804 105.548 2.6097C106.073 2.6097 106.691 2.80514 106.73 3.37259C106.779 4.11427 106.073 4.2626 106.073 4.2626C105.548 4.2626 105.244 4.01066 105.285 3.49972C105.298 3.34196 105.679 2.99115 105.679 2.99115V2.86399C105.679 2.86399 104.313 2.88282 104.614 4.38974C104.733 4.9925 105.285 5.29859 106.599 5.53169H106.73C108.785 4.05068 110.782 3.01233 112.766 2.86399C113.095 2.84044 114.08 2.86399 114.08 2.86399C114.78 2.92756 115.566 3.26662 116.441 3.88116C117.054 4.55927 117.409 5.23738 117.36 5.91314C117.241 7.5519 116.461 7.98279 115.393 8.07227C113.715 8.21354 113.335 7.0504 113.423 6.42173C113.554 5.46343 114.175 4.91481 114.868 5.02312C114.97 5.0396 115.262 5.15027 115.262 5.15027V5.27741C114.471 5.27741 113.907 5.51052 113.817 6.04029C113.802 6.13447 113.817 6.42173 113.817 6.42173C113.97 7.26937 114.408 7.69319 115.13 7.69319C116.266 7.54486 116.835 7.07864 116.835 6.29458C116.835 4.8324 116.091 3.98712 114.605 3.75166H114.471C114.036 3.75166 113.467 3.92355 112.766 4.2626C110.753 5.25622 109.748 6.31576 109.748 7.43888C109.748 8.28417 109.238 9.00702 108.172 8.96228C107.294 8.92696 106.784 8.45371 106.414 7.81798C106.414 7.81798 105.942 9.40023 105.942 9.97945C105.942 11.524 106.818 12.2681 107.778 12.2681C108.435 12.2681 109.15 12.0538 109.354 11.3757C109.41 11.1944 109.354 10.6152 109.354 10.6152C109.354 10.6152 109.045 11.218 108.435 11.2486C107.912 11.2768 107.474 11.0154 107.387 10.488C107.314 10.0477 107.649 9.52032 108.304 9.47088C109.289 9.39789 109.748 10.1066 109.748 10.7423C109.748 11.8843 109.096 12.7107 107.778 12.6472C107.613 12.6401 107.124 12.52 107.124 12.52C105.582 11.7783 105.614 10.2102 105.679 9.34372C105.748 8.45606 105.986 7.6508 106.599 6.93031V6.80315C105.548 7.47891 105.023 8.24415 105.023 9.08944C105.023 9.49207 105.648 11.4628 106.336 13.1558C106.446 13.4218 106.426 14.0269 106.336 14.3001C106.142 14.8934 105.614 15.0629 105.285 15.0629C105.285 16.0354 104.767 17.0667 103.449 17.3492C103.226 17.3986 102.53 17.3492 102.53 17.3492C102.092 17.3492 101.83 17.2221 101.742 16.9678V16.8406C102.705 16.2261 103.187 15.6327 103.187 15.0629L102.661 11.1238C102.661 10.4456 102.749 9.93707 102.924 9.59801H102.793L100.956 11.1238C98.2423 12.9226 96.8852 14.7027 96.8852 16.4592V17.0949C97.1698 18.7038 97.9578 19.509 99.2492 19.509C99.7088 19.509 100.057 19.2966 100.3 18.8742V18.3654L99.5118 18.4926C99.5118 18.4926 98.702 18.5543 98.5925 17.9838C98.4758 17.3798 98.8114 16.989 99.2492 16.8406H99.6432C100.188 16.8406 100.837 17.2527 101.085 18.2383C101.149 18.4848 101.146 19.0068 101.085 19.2545C100.64 21.1339 98.201 21.2206 97.2817 20.7798C95.1658 19.7662 95.0442 18.5227 95.0321 17.4057Z" fill="#383838"/>
<path d="M116.87 11.3987C116.87 11.3987 115.414 11.7563 114.69 11.9796C114.224 12.1212 113.639 12.8534 113.639 12.8534C113.639 12.8534 114.142 12.9799 114.316 12.9981C114.889 13.0584 115.742 12.4885 116.87 11.4707V11.3987ZM117.244 12.198H117.096C116.629 12.9064 116.543 12.9955 115.816 13.6525C115.419 14.0118 115.067 14.3923 115.067 15.2527H115.29C115.935 14.9024 116.2 14.4867 116.57 13.6525C116.731 13.2855 117.244 12.198 117.244 12.198ZM112.585 19.2538L111.534 19.1083C111.534 19.1083 111.685 17.4467 111.685 17.2172C112.06 16.1865 112.831 15.456 113.865 14.8158C115.32 13.9161 116.456 12.6829 117.472 11.3987V11.3242C115.504 13.507 114.946 13.8728 114.09 14.2533C113.857 14.3541 113.523 14.5563 112.491 14.5772C111.69 14.5942 110.857 13.3851 110.857 13.3851C111.346 12.4885 112.345 12.0132 113.081 11.7515C113.947 11.4419 115.424 11.4827 116.193 11.3242C116.642 11.233 117.77 10.7433 117.921 10.7433V10.8874C117.921 10.8874 116.386 15.8624 115.677 17.4505C115.124 18.6808 114.053 19.2538 112.585 19.2538ZM118.973 15.1804L118.147 11.4707H118.072C117.572 13.7615 117.321 15.0717 117.321 15.3981C117.321 15.7378 117.596 16.0775 118.147 16.4171C118.7 16.101 118.973 15.6893 118.973 15.1804ZM117.996 20.9994C117.096 20.9994 116.25 20.5458 115.893 19.4715C115.829 19.2788 115.762 18.875 115.742 18.6717C115.707 18.273 117.996 10.8874 117.996 10.8874H118.221L119.949 16.4894L120.026 16.7083C120.314 17.5569 120.463 18.2348 120.475 18.7451C120.475 20.0656 119.649 20.8172 117.996 20.9994ZM121.152 15.2527C121.152 15.2527 120.897 14.2507 120.703 13.9725C120.133 13.1568 119.124 12.1236 119.124 12.1236L118.973 12.2701C119.198 12.5125 119.181 13.1333 120.049 14.4526C120.128 14.5745 120.914 15.2527 121.078 15.2527H121.152ZM122.506 12.7789V12.7069C122.203 12.174 121.477 12.1356 120.401 11.9076C120.138 11.85 119.424 11.4707 119.424 11.4707C120.527 12.4885 121.328 12.9981 121.829 12.9981H121.903C122.305 12.9732 122.506 12.9011 122.506 12.7789ZM123.483 19.2538C121.829 19.1451 120.802 18.4907 120.401 17.2892L118.298 10.7433C118.536 10.5969 119.627 11.161 120.879 11.3675C121.318 11.5139 122.759 11.5763 123.18 11.7635C124.318 12.27 125.144 13.5961 125.144 13.5961C125.144 13.5961 124.117 14.5548 122.826 14.3844C122.203 14.3004 121.598 13.9043 120.101 12.7069L118.673 11.2522V11.3242C120.502 13.3863 121.94 14.5116 122.806 15.0349C124.179 15.8662 124.683 16.998 124.683 17.945V19.1083L123.483 19.2538Z" fill="#383838"/>
<path d="M222.495 0.80541L222.488 0.679368L222.618 0.67172C223.493 0.684875 224.53 1.09144 225.718 1.89265L225.857 2.01316L225.863 2.1392C224.928 1.55704 223.806 1.11225 222.495 0.80541ZM13.5063 0.80541C12.1937 1.11225 11.0707 1.55704 10.1373 2.1392L10.1455 2.01316L10.2836 1.89265C11.4733 1.09144 12.5053 0.684875 13.3831 0.67172L13.5145 0.679368L13.5063 0.80541ZM235.978 6.26636C235.681 4.60339 234.755 4.10657 234.259 3.9478C231.876 3.18453 231.086 4.81202 231.191 5.39694C231.342 6.25198 231.959 6.8528 232.578 6.5891C233.106 6.36731 233.327 5.81268 233.295 5.40214C233.286 5.27243 233.134 4.90257 233.134 4.90257L233.118 4.64928L233.248 4.64163C233.949 4.64408 234.319 4.96162 234.36 5.5964C234.36 5.5964 234.837 8.39891 231.387 8.56809C229.288 8.67026 227.149 7.36828 224.963 4.61011L225.095 4.60216C225.535 5.00078 225.898 5.18983 226.182 5.17545C226.871 5.14119 227.2 4.60859 227.2 4.60859L228.394 4.79366C230.954 4.65325 230.609 2.37538 230.609 2.37538C230.609 2.37538 229.98 2.86178 228.669 2.86851C227.942 2.87249 227.039 1.39154 224.969 0.409239C224.539 0.206109 223.579 0.0448847 223.105 0.0066452C222.842 -0.0129337 222.312 0.011837 222.056 0.0669031C221.547 0.17734 220.128 0.814582 220.128 0.814582C219.863 0.676918 219.114 0.600747 217.881 0.587592V0.585142H18.5159C18.4982 0.585142 16.1602 0.664988 15.8717 0.814582C15.8717 0.814582 14.452 0.17734 13.9452 0.0669031C13.6893 0.011837 13.1597 -0.0129337 12.898 0.0066452C12.4212 0.0448847 11.4622 0.206109 11.0328 0.409239C8.96149 1.39154 8.05809 2.87249 7.33195 2.86851C6.02062 2.86178 5.38929 2.37538 5.38929 2.37538C5.38929 2.37538 5.04928 4.65325 7.60844 4.79366L8.80159 4.60859C8.80159 4.60859 9.12959 5.14119 9.81907 5.17545C10.1035 5.18983 10.4652 5.00078 10.907 4.60216L11.0369 4.61011C8.85184 7.36828 6.71167 8.67026 4.61448 8.56809C1.16551 8.39891 1.64234 5.5964 1.64234 5.5964C1.68058 4.96162 2.05028 4.64408 2.75209 4.64163L2.8832 4.64928L2.86709 4.90257C2.86709 4.90257 2.71667 5.27243 2.70592 5.40214C2.6718 5.81268 2.89554 6.36731 3.42102 6.5891C4.04288 6.8528 4.65777 6.25198 4.80944 5.39694C4.91403 4.81202 4.12566 3.18453 1.74282 3.9478C1.24419 4.10657 0.318986 4.60339 0.0235402 6.26636C-0.0440805 6.64417 0.0601994 7.79564 0.0601994 7.79564C0.359753 9.34053 1.40535 10.1656 3.19635 10.2678C4.72445 10.3556 5.92583 10.0435 6.80237 9.33014C7.85902 8.54178 9.49391 6.89716 11.7074 4.39352L11.8388 4.40148L11.6534 5.28161C11.6534 5.28161 11.5883 5.9479 11.599 6.16939C11.721 8.85015 13.2788 10.2115 15.4193 10.3348C16.2917 10.3859 17.2994 10.2889 18.0931 9.59781C18.9021 8.89604 19.1106 8.02387 19.1514 7.36828L19.158 7.24101C19.2351 5.99378 18.6527 4.7282 17.0949 4.45012C15.4518 4.1549 13.9319 5.09133 14.4344 7.09663C14.6404 7.92016 15.4205 8.17192 15.9448 8.20221L16.6071 8.11288L16.6153 7.98593C15.522 7.92291 14.7946 7.37991 14.7431 6.35049C14.7134 5.75884 15.1197 4.98761 16.0152 4.89583C18.2761 4.6664 18.8679 5.84939 18.6189 7.46526C18.3725 9.06766 17.0731 9.78902 15.8092 9.68684C13.1325 9.46903 12.4282 7.65921 12.5312 5.9687L12.5391 5.84143C12.5798 5.18585 12.5716 4.41188 13.0566 3.83492C15.1807 1.3065 18.4237 1.50565 18.4237 1.50565H217.881C217.881 1.50565 221.556 1.37717 222.944 3.83492C223.313 4.48805 223.421 5.18585 223.462 5.84143L223.468 5.9687C223.572 7.65921 222.868 9.46903 220.191 9.68684C218.927 9.78902 217.629 9.06766 217.382 7.46526C217.133 5.84939 217.723 4.6664 219.986 4.89583C220.88 4.98761 221.288 5.75884 221.259 6.35049C221.206 7.37991 220.479 7.92291 219.386 7.98593L219.395 8.11288L220.055 8.20221C220.58 8.17192 221.36 7.92016 221.566 7.09663C222.068 5.09133 220.548 4.1549 218.905 4.45012C217.347 4.7282 216.766 5.99378 216.842 7.24101L216.851 7.36828C216.889 8.02387 217.101 8.89604 217.907 9.59781C218.703 10.2889 219.708 10.3859 220.583 10.3348C222.722 10.2115 224.28 8.85015 224.403 6.16939C224.413 5.9479 224.346 5.28161 224.346 5.28161L224.16 4.40148L224.293 4.39352C226.505 6.89716 228.141 8.54178 229.197 9.33014C230.075 10.0435 231.276 10.3556 232.805 10.2678C234.597 10.1656 235.64 9.34053 235.94 7.79564C235.94 7.79564 236.044 6.64417 235.978 6.26636Z" fill="#383838"/>
</svg>
