<svg width="95" height="12" viewBox="0 0 95 12" fill="none" xmlns="http://www.w3.org/2000/svg">
<path d="M81.979 0.310031C82.2131 0.582115 82.1058 0.99528 81.7644 1.0759C81.2768 1.2069 80.9256 0.783659 81.1792 0.370494C81.3841 0.0581014 81.7352 0.0278698 81.979 0.310031Z" fill="#383838"/>
<path d="M79.8234 0.320127C80.5256 0.894526 79.7063 1.96271 78.8968 1.50923C78.4286 1.2573 78.4676 0.45113 78.965 0.219355C79.3162 0.0581197 79.5307 0.078274 79.8234 0.320127Z" fill="#383838"/>
<path d="M77.5606 0.259663C77.9118 0.461207 78.0288 0.70306 78.0288 1.19684C78.0288 1.73093 77.6094 2.12394 77.0437 2.12394C76.1756 2.12394 75.6879 1.06584 76.2829 0.45113C76.595 0.12866 77.19 0.0379653 77.5606 0.259663Z" fill="#383838"/>
<path d="M53.5961 0.269754C54.0253 0.350372 54.9031 0.602302 55.5371 0.824C56.8343 1.27747 56.9904 1.2674 57.5073 0.703074C57.8389 0.340295 57.9365 0.330218 57.9365 0.662766C57.9365 1.05578 57.6731 1.49917 57.3415 1.68056C57.0294 1.8418 56.4149 1.8418 56.0345 1.67048C55.8492 1.57979 55.8394 1.58987 56.0053 1.82164C56.6783 2.78905 56.9416 3.85723 56.766 4.86495C56.5515 6.09437 55.859 7.0517 54.8251 7.55556C54.0936 7.90826 52.7671 7.93849 52.0746 7.60595C51.0017 7.09201 50.4847 6.30599 50.4847 5.1975C50.4847 3.73631 51.2748 2.93013 52.6988 2.93013C53.323 2.93013 53.4401 2.96036 53.6254 3.16191C54.0936 3.67584 53.7424 4.44171 53.0402 4.44171C52.4257 4.44171 52.1233 3.97816 52.3184 3.35337C52.4062 3.07121 52.2891 3.07121 51.7917 3.33322C50.9724 3.76654 50.6018 4.92542 50.9529 5.9029C51.2748 6.75946 52.3672 7.46487 53.3913 7.46487C54.5617 7.46487 55.4981 6.84008 56.0443 5.70136C56.3856 4.98588 56.3954 4.92542 56.3564 4.11924C56.2881 2.68828 55.5956 1.66041 54.2789 1.01547C52.7573 0.279832 51.0602 0.390681 49.6264 1.34801C48.9437 1.79141 48.4267 2.4162 48.0561 3.23245C47.4611 4.51225 47.6074 6.32614 48.3877 7.61602C49.0802 8.76482 50.3092 9.7927 51.6357 10.3469C52.4745 10.6996 52.689 10.6896 53.1279 10.2663C53.3133 10.0849 53.3523 9.94386 53.3523 9.41984C53.3523 8.66405 53.4498 8.5532 54.2106 8.49274C54.8836 8.44235 55.0104 8.34158 55.0104 7.90826C55.0104 7.50518 55.1762 7.46487 55.4688 7.78734C56.1321 8.52297 55.6151 10.0749 54.5325 10.5989C53.9473 10.881 53.8985 11.0221 54.3959 10.9415C55.3908 10.7702 56.1711 10.3268 56.571 9.72216C56.9123 9.19814 56.9514 8.30127 56.6783 7.37417C56.571 6.99124 56.4734 6.60831 56.4734 6.51761C56.4734 6.04398 57.361 6.71915 57.7024 7.45479C57.9755 8.02919 57.995 8.95629 57.7609 9.52061C57.6439 9.77254 57.5951 9.98416 57.6439 9.98416C57.6829 9.98416 57.9267 9.75239 58.1706 9.47023C58.9606 8.5532 59.0386 7.94857 58.6095 5.75174C58.5119 5.22773 58.4241 4.69364 58.4241 4.57271C58.4241 4.32078 58.6875 4.19986 59.0386 4.29055C59.4288 4.4014 59.8482 4.08901 60.4431 3.2526C61.5258 1.74102 62.4329 0.975158 63.5838 0.612379C65.0371 0.148829 66.1685 0.551916 66.9 1.82164C67.0073 2.01311 67.1048 2.25496 67.1048 2.35573C67.1048 2.52705 67.0658 2.51697 66.8025 2.28519C65.9344 1.5294 63.9252 2.55728 62.9888 4.24017C62.8425 4.4921 62.5694 5.18742 62.3744 5.80213C62.0135 6.93078 61.3502 8.44235 60.9503 9.06714C60.6967 9.45007 60.7845 9.42992 61.399 8.93614C62.2183 8.27104 63.1254 7.35402 64.4421 5.84244C67.1634 2.72859 68.763 1.48909 70.6942 0.96508C71.4549 0.763537 73.1228 0.763537 73.8836 0.96508C75.3369 1.34801 76.5561 2.34566 76.9072 3.43399C77.1608 4.23009 77.0828 5.13704 76.7024 5.61066C76.5366 5.82229 76.2927 6.08429 76.1562 6.18506C75.8343 6.42692 74.9662 6.53777 74.7614 6.35638C74.5468 6.17499 74.5858 6.05406 74.8394 6.05406C75.1613 6.05406 75.2979 5.86259 75.2979 5.4192C75.2979 4.87503 75.4344 4.66341 75.8831 4.54248C76.7219 4.31071 76.8779 3.696 76.322 2.90998C75.9221 2.34566 75.1711 1.80149 74.4005 1.51933C73.6788 1.25732 72.1962 1.07593 71.8841 1.20693L71.6403 1.3077H71.8743C72.5083 1.32786 73.2496 2.12396 73.1228 2.64797C73.0448 2.94021 72.5864 3.45415 72.4401 3.40376C72.3815 3.38361 72.2938 3.20222 72.2352 2.98052C72.0499 2.31542 71.6012 2.25496 71.5915 2.88982C71.5915 3.00067 71.5037 3.18206 71.3964 3.28283C71.2013 3.46422 71.2013 3.46422 71.2599 3.16191C71.3672 2.60766 70.5479 2.12396 69.4847 2.12396C69.0458 2.12396 68.9093 2.18442 68.2753 2.63789C67.6315 3.11152 65.2029 5.43935 65.2809 5.50989C65.3004 5.53005 65.6223 5.40912 66.0027 5.24789C67.6315 4.54248 69.4067 4.68356 70.7429 5.63082C71.4062 6.11452 71.7768 6.72923 71.494 6.91062C71.4452 6.94085 71.1233 6.91062 70.7722 6.85016C69.9431 6.68892 69.7773 6.79977 69.2409 7.87803C68.7239 8.89583 68.2753 9.27876 67.6023 9.27876C67.1341 9.27876 67.0268 9.22837 66.149 8.54313C64.8518 7.52533 63.5643 7.74703 61.5843 9.30899C59.2337 11.1531 57.1074 11.9996 54.7861 11.9996C52.6793 11.9996 50.9139 11.1934 49.2558 9.4803C47.3246 7.4951 46.7296 5.01611 47.6952 2.96036C48.7096 0.824 51.0212 -0.234104 53.5961 0.269754Z" fill="#383838"/>
<path d="M42.4769 0.259649C43.2572 0.441039 43.8424 0.703046 44.4373 1.17667C45.7931 2.23478 46.3978 3.57504 46.3003 5.28817C46.271 5.84241 46.1637 6.45712 46.0369 6.84005C45.3737 8.8051 43.2181 10.8911 41.0431 11.667C40.1458 11.9895 38.3901 12.1003 37.3172 11.8988C35.4445 11.5562 33.8157 10.7298 31.6309 9.01673C30.714 8.29117 29.8167 7.93847 28.9584 7.93847C28.3634 7.94854 27.9733 8.10978 27.3588 8.62371C26.7833 9.09734 26.3932 9.27873 25.9153 9.27873C25.3106 9.27873 24.7839 8.78495 24.2864 7.76715C23.8183 6.80982 23.5842 6.66874 22.7746 6.85013C22.1699 6.99121 22.0431 6.9509 22.0431 6.61835C22.0431 6.28581 22.7941 5.60056 23.5354 5.24786C24.9692 4.55253 26.1786 4.63315 28.1879 5.51994C28.461 5.65094 27.4563 4.51222 26.5883 3.7262C25.2618 2.50686 24.6571 2.12393 24.0719 2.12393C23.4086 2.12393 22.8624 2.30532 22.521 2.63787C22.2674 2.87972 22.2479 2.95026 22.3357 3.20219L22.4332 3.48435L22.1894 3.20219C22.0529 3.05103 21.9456 2.82933 21.9456 2.72856C21.9456 2.21462 21.4872 2.41617 21.3506 2.99057C21.2921 3.23242 21.1945 3.43396 21.1458 3.43396C21.097 3.43396 20.9214 3.30296 20.7654 3.14172C20.5508 2.92003 20.4825 2.74871 20.4825 2.46655C20.4825 1.97277 20.9995 1.44876 21.5847 1.34799C21.9553 1.28752 21.9651 1.27745 21.7505 1.19683C21.4676 1.08598 20.463 1.17667 19.6827 1.37822C18.5221 1.66038 17.3809 2.50686 17.02 3.32311C16.8542 3.71612 16.8542 3.73628 17.0395 4.05875C17.1761 4.29052 17.3419 4.42153 17.654 4.51222C18.1612 4.66338 18.2392 4.76415 18.2392 5.27809C18.2392 5.79203 18.3855 6.05403 18.6781 6.05403C18.9415 6.05403 18.9902 6.14473 18.8049 6.33619C18.4635 6.68889 17.3126 6.28581 16.8932 5.6711C16.2397 4.72384 16.4836 3.23242 17.4687 2.20455C18.3562 1.28752 19.6437 0.813894 21.3116 0.813894C22.443 0.813894 23.155 0.97513 24.1499 1.45883C25.6714 2.20455 26.8711 3.25257 29.0267 5.71141C30.5092 7.40438 31.3578 8.26094 32.3429 9.05703C32.5672 9.23842 32.7818 9.3795 32.8111 9.3795C32.8501 9.3795 32.7428 9.16788 32.5672 8.91595C32.1478 8.28109 31.6016 7.01136 31.1725 5.6711C30.7433 4.35099 30.2361 3.49443 29.5144 2.90995C28.422 2.01308 27.4076 1.7813 26.8224 2.28516C26.6566 2.43632 26.5005 2.52702 26.4615 2.49678C26.3444 2.37586 26.8516 1.5193 27.3003 1.08598C27.7977 0.602274 28.2659 0.410808 28.9194 0.410808C30.3532 0.420884 31.7382 1.32783 33.0744 3.1518C33.8547 4.19983 34.079 4.37114 34.5862 4.29052C35.1909 4.19983 35.2787 4.36106 35.0837 5.27809C34.6545 7.25322 34.6252 8.07955 34.9666 8.82526C35.1519 9.21827 35.8639 10.0446 35.9517 9.9539C35.9712 9.93375 35.9225 9.74228 35.8347 9.52058C35.4738 8.64387 35.7664 7.27337 36.4492 6.65866C36.7613 6.36642 37.1612 6.25558 37.1612 6.44704C37.1612 6.49743 37.0734 6.82998 36.9661 7.18268C36.693 8.0997 36.6345 8.68418 36.771 9.13765C37.0831 10.1353 37.8439 10.6895 39.2289 10.9415C39.6678 11.012 39.7361 10.8407 39.3167 10.7399C38.9168 10.6492 38.2438 10.0144 38.0292 9.54074C37.7171 8.82526 37.8537 7.79739 38.2828 7.62607C38.5169 7.53538 38.5267 7.54546 38.5267 7.83769C38.5267 8.30124 38.6632 8.40202 39.346 8.48263C40.1945 8.57333 40.3213 8.68418 40.2433 9.30896C40.1848 9.88336 40.3311 10.2764 40.7017 10.4779C41.0821 10.6895 41.3845 10.6392 42.194 10.2461C44.2325 9.2485 45.4907 7.73692 45.8419 5.87264C46.3198 3.39365 44.6324 1.03559 42.0575 0.592196C40.7602 0.370499 39.2289 0.823971 38.2926 1.72084C36.2248 3.68589 37.288 7.24314 39.9897 7.43461C40.7212 7.49507 41.5308 7.23306 42.0575 6.77959C42.4086 6.4672 42.8182 5.63079 42.8182 5.19747C42.8182 4.4316 42.3598 3.60528 41.7356 3.27273C41.3942 3.09134 41.0724 3.08126 41.2382 3.25257C41.4332 3.45412 41.3747 3.97813 41.1309 4.21998C40.848 4.50214 40.2921 4.51222 39.98 4.25022C39.6581 3.98821 39.6678 3.38358 39.9897 3.11149C40.1945 2.94018 40.3506 2.92003 41.0236 2.95026C41.6966 2.98049 41.8722 3.0208 42.2038 3.26265C43.1304 3.91767 43.4035 5.36878 42.8182 6.42689C41.8624 8.15009 39.1314 8.35163 37.7464 6.79974C37.5221 6.54781 37.2197 6.08426 37.0831 5.77187C36.8588 5.27809 36.8198 5.06647 36.8198 4.24014C36.8295 3.20219 36.9954 2.65802 37.5221 1.93246C37.7464 1.64022 37.7561 1.59992 37.5903 1.67046C37.4928 1.71076 37.1807 1.77123 36.9173 1.79138C36.5174 1.83169 36.3809 1.80146 36.1468 1.60999C35.7567 1.28752 35.425 0.410808 35.6981 0.410808C35.7469 0.410808 35.9615 0.561965 36.1565 0.743355C36.3614 0.934821 36.6052 1.11621 36.7028 1.14644C36.81 1.18675 37.327 1.06582 37.9219 0.854203C39.0729 0.451116 40.7505 0.108492 41.443 0.118568C41.6868 0.118568 42.155 0.189109 42.4769 0.259649Z" fill="#383838"/>
<path d="M17.0201 0.219355C17.6249 0.582134 17.7419 1.33792 17.2737 1.8317C17.0592 2.04333 16.8933 2.12394 16.63 2.12394C15.6644 2.12394 15.1767 1.19684 15.7717 0.511593C16.074 0.158892 16.6885 0.0178111 17.0201 0.219355Z" fill="#383838"/>
<path d="M14.767 0.320125C15.4693 0.894524 14.65 1.96271 13.8404 1.50923C13.3723 1.2573 13.4113 0.451128 13.9087 0.219353C14.2598 0.0581177 14.4744 0.0782721 14.767 0.320125Z" fill="#383838"/>
<path d="M12.3091 0.219331C12.5139 0.340257 12.5432 0.813885 12.3676 0.995274C12.2994 1.06581 12.1335 1.1162 11.997 1.1162C11.6654 1.1162 11.5093 0.944888 11.5093 0.592187C11.5093 0.189099 11.9287 -0.0124446 12.3091 0.219331Z" fill="#383838"/>
<path d="M95 0.410793C95 0.612337 94.9317 0.612337 88.904 0.612337C82.8763 0.612337 82.808 0.612337 82.808 0.410793C82.808 0.20925 82.8763 0.20925 88.904 0.20925C94.9317 0.20925 95 0.20925 95 0.410793Z" fill="#383838"/>
<path d="M10.7291 0.410793C10.7291 0.612337 10.6608 0.612337 5.36459 0.612337C0.0683918 0.612337 0.000116348 0.612337 0.000116348 0.410793C0.000116348 0.20925 0.0683918 0.20925 5.36459 0.20925C10.6608 0.20925 10.7291 0.20925 10.7291 0.410793Z" fill="#383838"/>
<path d="M47.0806 1.41855C47.5586 1.62009 47.6073 2.28518 47.1587 2.5875C46.4662 3.05105 45.7444 2.05341 46.3881 1.52939C46.671 1.29762 46.7588 1.28754 47.0806 1.41855Z" fill="#383838"/>
<path d="M47.3439 7.8881C47.5682 8.22065 47.5292 8.53304 47.2464 8.76482C46.9343 9.01675 46.6514 9.0369 46.349 8.8152C46.0759 8.62374 46.0564 8.06949 46.31 7.83772C46.5831 7.58579 47.1586 7.61602 47.3439 7.8881Z" fill="#383838"/>
</svg>
