<svg width="324" height="169" viewBox="0 0 324 169" fill="none" xmlns="http://www.w3.org/2000/svg">
<path d="M0.714274 39.1229C0.763074 53.1617 0.812525 136.763 0.861326 150.802C0.862924 151.262 1.24375 151.631 1.7034 151.635C10.7073 151.718 18.1696 158.759 18.3197 167.79C18.3268 168.245 18.7 168.624 19.1624 168.623C25.0736 168.602 30.9852 168.582 36.8965 168.562C51.969 168.51 67.041 168.458 82.1139 168.406C102.356 168.337 122.598 168.267 142.841 168.197C164.26 168.124 185.681 168.05 207.101 167.976C225.706 167.912 244.312 167.848 262.918 167.784C274.717 167.744 286.517 167.703 298.316 167.663C300.469 167.655 302.622 167.648 304.774 167.64C305.223 167.639 305.625 167.257 305.611 166.802C305.336 157.391 313.547 149.924 322.824 150.214C323.282 150.229 323.663 149.819 323.661 149.376C323.612 135.325 323.564 51.7116 323.515 37.6606C323.513 37.2169 323.13 36.8102 322.672 36.8277C313.54 37.1761 305.679 30.1663 305.346 21.0278C305.33 20.5727 304.973 20.1933 304.503 20.1949C298.592 20.2152 292.681 20.2355 286.769 20.2559C271.696 20.3077 256.624 20.3596 241.551 20.4114C221.309 20.481 201.066 20.5507 180.824 20.6203C159.404 20.694 137.984 20.7677 116.564 20.8413C97.9589 20.9053 79.353 20.9693 60.7474 21.0333C48.9479 21.0739 37.1484 21.1145 25.3493 21.1551C23.1964 21.1625 21.0436 21.1699 18.891 21.1773C18.4286 21.1789 18.0581 21.5605 18.0541 22.016C17.9668 31.0472 10.5537 38.1403 1.55054 38.2846C0.467705 38.3018 0.473514 39.973 1.55635 39.9558C11.4765 39.797 19.6381 31.9531 19.7341 22.0102C19.4548 22.2896 19.1758 22.5694 18.8969 22.8485C24.8081 22.8282 30.7197 22.8078 36.6309 22.7875C51.7034 22.7357 66.7765 22.6838 81.8494 22.632C102.091 22.5623 122.334 22.4927 142.576 22.4231C163.996 22.3494 185.416 22.2757 206.836 22.2021C225.441 22.1381 244.047 22.0741 262.653 22.0101C274.452 21.9695 286.252 21.9289 298.051 21.8883C300.204 21.8809 302.357 21.8735 304.509 21.8661C304.228 21.5889 303.947 21.3111 303.666 21.0336C304.03 31.0528 312.615 38.8831 322.677 38.499C322.396 38.2218 322.115 37.9439 321.835 37.6664C321.883 51.7174 321.932 135.33 321.981 149.381C322.26 149.102 322.539 148.822 322.818 148.543C312.649 148.225 303.63 156.516 303.931 166.807C304.21 166.528 304.489 166.249 304.768 165.969C298.857 165.989 292.946 166.009 287.034 166.03C271.961 166.082 256.889 166.133 241.816 166.185C221.574 166.255 201.331 166.325 181.089 166.394C159.669 166.468 138.249 166.542 116.829 166.615C98.2234 166.679 79.6185 166.743 61.013 166.807C49.2135 166.848 37.414 166.888 25.6149 166.929C23.462 166.936 21.3091 166.944 19.1566 166.951C19.4375 167.229 19.7184 167.507 19.9997 167.784C19.8345 157.842 11.6186 150.055 1.69759 149.964C1.97709 150.241 2.2601 150.519 2.5396 150.797C2.4908 136.758 2.44135 53.156 2.39255 39.1171C2.3888 38.0396 0.710528 38.0453 0.714274 39.1229Z" fill="#383838"/>
<path d="M5.32324 41.7839C5.36584 54.0397 5.4091 135.859 5.4517 148.115C5.45246 148.334 5.63767 148.525 5.86049 148.521C14.7893 148.325 22.4106 155.446 22.2249 164.436C22.2201 164.659 22.4168 164.842 22.6355 164.842C28.6613 164.83 34.6867 164.819 40.7122 164.807C56.0104 164.777 71.3075 164.747 86.6053 164.718C107.009 164.678 127.412 164.638 147.815 164.598C169.156 164.557 190.497 164.515 211.839 164.474C229.95 164.439 248.061 164.403 266.172 164.368C276.886 164.347 287.599 164.327 298.313 164.306C299.611 164.303 300.908 164.301 302.206 164.298C302.41 164.298 302.64 164.11 302.614 163.889C301.917 157.929 305.655 151.964 310.759 149.162C313.364 147.731 316.691 146.73 319.702 146.773C319.925 146.776 320.111 146.583 320.11 146.364C320.068 134.275 320.026 52.6231 319.984 40.5343C319.984 40.315 319.797 40.1238 319.573 40.1284C315.03 40.2205 311.074 39.2827 307.572 36.247C303.971 33.1261 301.793 28.4428 301.613 23.7172C301.604 23.4955 301.431 23.3101 301.202 23.3113C295.161 23.3428 289.12 23.3743 283.079 23.4061C267.752 23.4866 252.425 23.5666 237.098 23.6471C216.677 23.754 196.256 23.861 175.835 23.968C154.512 24.0797 133.189 24.1915 111.867 24.303C93.8356 24.3976 75.8043 24.4921 57.773 24.5867C47.2253 24.6417 36.6776 24.6971 26.1299 24.7524C24.9392 24.7589 23.7487 24.7647 22.5579 24.7709C22.3319 24.772 22.1525 24.9573 22.1498 25.1796C22.0447 33.9078 14.4245 41.2147 5.7292 41.3752C5.20348 41.3846 5.20631 42.1993 5.73203 42.1895C14.8754 42.0209 22.8582 34.3501 22.9691 25.1768C22.8327 25.3134 22.6967 25.4493 22.5607 25.5859C28.6018 25.554 34.6422 25.5222 40.6832 25.4907C56.0101 25.4106 71.3374 25.3301 86.6647 25.2501C107.086 25.1428 127.507 25.0358 147.928 24.9288C169.25 24.8171 190.573 24.7056 211.895 24.5935C229.927 24.4992 247.958 24.405 265.99 24.3104C276.537 24.2551 287.085 24.1997 297.633 24.1444C298.824 24.1382 300.014 24.1321 301.204 24.1259C301.068 23.9906 300.931 23.8549 300.794 23.72C300.985 28.7434 303.282 33.4385 306.995 36.825C310.552 40.0704 314.886 41.0381 319.576 40.943C319.439 40.8074 319.302 40.6724 319.165 40.5371C319.207 52.6259 319.249 134.278 319.291 146.367C319.427 146.231 319.563 146.094 319.699 145.958C316.334 145.91 312.73 147.094 309.85 148.736C304.752 151.641 301.104 157.984 301.795 163.892C301.931 163.756 302.067 163.62 302.203 163.483C296.178 163.496 290.152 163.507 284.127 163.519C268.829 163.549 253.53 163.578 238.233 163.608C217.829 163.648 197.425 163.687 177.022 163.727C155.681 163.769 134.34 163.81 113 163.852C94.8881 163.887 76.778 163.922 58.6671 163.957C47.9532 163.978 37.2393 163.999 26.5254 164.02C25.2281 164.022 23.9303 164.025 22.6326 164.027C22.7699 164.163 22.9069 164.298 23.0438 164.433C23.2385 155.01 15.2213 147.5 5.85766 147.706C5.99742 147.842 6.13369 147.976 6.26997 148.112C6.22736 135.856 6.18411 54.0369 6.1415 41.7811C6.13968 41.2557 5.32142 41.2585 5.32324 41.7839Z" fill="#383838"/>
<path d="M9.52806 160.419C9.98587 162.412 6.63801 162.861 6.63801 162.861C7.87042 159.822 9.52806 160.419 9.52806 160.419ZM5.71489 155.712C5.59801 156.145 5.6174 156.714 5.84212 157.257C5.94405 157.533 6.10165 157.803 6.301 158.059C6.50035 158.317 6.75884 158.552 7.045 158.741C7.22997 158.868 7.43226 158.972 7.64147 159.06C5.353 160.781 4.28958 164.359 4.17268 164.786L4.16573 164.79L4.16923 164.79L4.16924 164.794L4.1727 164.789C4.62863 164.739 8.52648 164.254 10.5678 162.159C10.6091 162.518 10.6971 162.87 10.8441 163.201C10.9796 163.514 11.1661 163.81 11.3863 164.049C11.6034 164.291 11.8419 164.493 12.0966 164.645C12.5938 164.96 13.1527 165.081 13.6017 165.047C14.0494 165.022 14.509 164.822 14.8199 164.526L14.933 164.414L14.9878 164.357L15.0329 164.297C15.0925 164.217 15.1493 164.135 15.2034 164.055C15.247 163.973 15.2864 163.892 15.3251 163.811C15.3441 163.769 15.3631 163.732 15.3807 163.687L15.43 163.547C15.5425 163.167 15.5252 162.796 15.4385 162.484C15.3486 162.171 15.1969 161.906 14.9786 161.691C14.8675 161.585 14.7373 161.488 14.564 161.426C14.5205 161.41 14.4776 161.397 14.4267 161.389C14.3797 161.379 14.3299 161.374 14.277 161.376C14.1756 161.375 14.0688 161.401 13.9837 161.442C13.8085 161.528 13.7261 161.652 13.6742 161.749C13.6289 161.848 13.6104 161.932 13.602 162.005C13.5849 162.292 13.6772 162.423 13.771 162.443C13.8724 162.465 13.9848 162.35 14.1271 162.228C14.1521 162.209 14.1771 162.194 14.2007 162.182C14.1949 162.201 14.1873 162.22 14.1759 162.244C14.1548 162.279 14.1638 162.269 14.1607 162.278C14.1593 162.28 14.1621 162.29 14.1632 162.296C14.1671 162.31 14.1737 162.328 14.1811 162.351C14.2117 162.439 14.2453 162.576 14.244 162.713C14.2434 162.853 14.2133 162.989 14.1552 163.1C14.1462 163.114 14.1382 163.127 14.1306 163.142C14.1223 163.156 14.1064 163.176 14.0953 163.193C14.0703 163.228 14.0471 163.265 14.0246 163.302C13.9965 163.33 13.9701 163.358 13.9459 163.388L13.9275 163.41L13.906 163.425C13.8921 163.435 13.8785 163.446 13.8657 163.457C13.7574 163.538 13.6503 163.58 13.4992 163.591C13.353 163.602 13.1012 163.582 12.8092 163.425C12.6628 163.354 12.5141 163.247 12.3744 163.118C12.2315 162.99 12.1098 162.834 12.0029 162.644C11.7844 162.271 11.6657 161.77 11.6572 161.241C11.6508 160.711 11.7548 160.156 11.9546 159.656C12.1548 159.156 12.4496 158.71 12.8092 158.4C12.9862 158.242 13.18 158.12 13.3761 158.037C13.4727 157.988 13.5733 157.964 13.67 157.932C13.7681 157.912 13.8641 157.887 13.9581 157.88C14.335 157.841 14.6604 157.903 14.8807 157.96C15.1009 158.022 15.2288 158.062 15.2396 158.043C15.2496 158.025 15.1497 157.935 14.9425 157.81C14.7339 157.691 14.4033 157.544 13.9537 157.505C13.8422 157.494 13.7238 157.501 13.5999 157.504C13.4784 157.521 13.3483 157.532 13.2203 157.569C13.1138 157.591 13.0102 157.63 12.9041 157.67C12.9516 157.592 12.9962 157.513 13.03 157.431C13.0902 157.313 13.1242 157.188 13.1621 157.072C13.1882 156.953 13.2167 156.838 13.2254 156.728C13.2684 156.283 13.1843 155.934 13.1055 155.709C13.0208 155.483 12.9529 155.369 12.9358 155.375C12.9111 155.382 12.9262 155.515 12.9455 155.742C12.9605 155.968 12.962 156.296 12.856 156.656C12.8313 156.746 12.7895 156.835 12.7525 156.927C12.7034 157.015 12.6613 157.109 12.5961 157.194C12.4787 157.37 12.324 157.537 12.1361 157.68C11.9188 157.854 11.6574 157.997 11.3716 158.107C10.6549 158.249 9.93446 158.342 9.21595 158.274C9.1916 158.281 9.16377 158.29 9.13943 158.298C9.13246 158.297 9.129 158.296 9.12551 158.296C8.60638 158.194 8.13214 157.988 7.80389 157.708C7.63628 157.569 7.50346 157.422 7.40193 157.26C7.30041 157.101 7.21978 156.936 7.17745 156.78C7.07191 156.466 7.09889 156.216 7.13322 156.076C7.17449 155.93 7.23334 155.833 7.33399 155.741C7.34788 155.73 7.36175 155.719 7.37215 155.707L7.393 155.689L7.41733 155.675C7.45209 155.657 7.48334 155.636 7.5146 155.614C7.55633 155.598 7.59805 155.582 7.63629 155.564C7.65715 155.556 7.67801 155.544 7.6954 155.539C7.70931 155.534 7.72321 155.529 7.74059 155.522C7.85885 155.486 8.00156 155.48 8.13743 155.505C8.2733 155.529 8.40232 155.586 8.48604 155.632C8.50697 155.643 8.52095 155.653 8.5349 155.659C8.54187 155.662 8.55233 155.666 8.55233 155.666C8.56277 155.664 8.55233 155.671 8.59058 155.657C8.61493 155.65 8.63582 155.646 8.6567 155.643C8.63937 155.664 8.61854 155.686 8.59773 155.707C8.4519 155.825 8.31643 155.914 8.32027 156.017C8.3206 156.112 8.43589 156.226 8.72151 156.261C8.79464 156.266 8.88169 156.263 8.98953 156.237C9.09386 156.203 9.22944 156.145 9.34728 155.99C9.40272 155.914 9.44835 155.814 9.46611 155.715C9.47707 155.663 9.48141 155.613 9.48055 155.566C9.48177 155.514 9.47603 155.47 9.46891 155.424C9.43799 155.244 9.36508 155.099 9.28107 154.971C9.10959 154.718 8.87217 154.522 8.5792 154.378C8.28625 154.237 7.92385 154.153 7.52708 154.195L7.38092 154.217C7.3322 154.226 7.29395 154.238 7.24873 154.249C7.16177 154.273 7.07131 154.297 6.98436 154.324C6.89397 154.363 6.80359 154.404 6.71322 154.447L6.6472 154.48L6.58119 154.524L6.4492 154.615C6.1019 154.865 5.82131 155.278 5.71489 155.712Z" fill="#383838"/>
<path d="M9.37585 28.3883C7.43576 29.2695 6.27534 25.9794 6.27534 25.9794C9.63801 26.5864 9.37585 28.3883 9.37585 28.3883ZM13.3839 23.5436C12.9172 23.5189 12.3401 23.6577 11.8319 23.9965C11.5717 24.1598 11.3294 24.3747 11.1099 24.631C10.8873 24.8843 10.701 25.1963 10.5688 25.5244C10.4787 25.7405 10.414 25.9658 10.3685 26.1946C8.12854 24.2426 4.2523 23.921 3.78912 23.8897L3.78214 23.8849C3.78562 23.886 3.78561 23.888 3.78561 23.888L3.78215 23.8891L3.78563 23.8939C3.93342 24.3419 5.24893 28.1801 7.81713 29.8046C7.45892 29.9219 7.11827 30.0848 6.80916 30.303C6.5174 30.5056 6.25714 30.7566 6.05615 31.0295C5.85515 31.2996 5.69945 31.5835 5.59948 31.8723C5.38211 32.4414 5.37374 33.032 5.50412 33.4787C5.62405 33.9264 5.92495 34.3483 6.2914 34.6006L6.43099 34.6919L6.50078 34.7356L6.57052 34.7683C6.66468 34.8112 6.75881 34.8518 6.85295 34.8896C6.94705 34.9163 7.03767 34.9391 7.12827 34.9613C7.17705 34.9716 7.21539 34.9836 7.26764 34.9917L7.42089 35.0116C7.83185 35.0462 8.20755 34.95 8.50645 34.7973C8.80881 34.6407 9.04834 34.4314 9.2215 34.1655C9.30634 34.0315 9.37788 33.8789 9.40577 33.6907C9.41188 33.6436 9.41693 33.5975 9.41431 33.5442C9.41448 33.4947 9.40839 33.4431 9.39602 33.3898C9.37582 33.2873 9.32671 33.185 9.26655 33.1076C9.14066 32.9487 8.99771 32.8914 8.88967 32.8592C8.77817 32.8339 8.68764 32.8332 8.61106 32.8401C8.31527 32.883 8.2008 33.0039 8.20114 33.1026C8.19803 33.2096 8.34107 33.2992 8.49468 33.4178C8.51913 33.4389 8.54012 33.461 8.5576 33.4827C8.53671 33.4804 8.5158 33.4766 8.48793 33.4701C8.4461 33.4564 8.46003 33.463 8.44958 33.462C8.44958 33.462 8.43567 33.4662 8.43219 33.4686C8.41829 33.4749 8.40092 33.486 8.38007 33.4979C8.29668 33.5477 8.1646 33.6098 8.02194 33.6376C7.87929 33.6665 7.73304 33.6646 7.60758 33.629C7.59363 33.6228 7.57621 33.6177 7.56227 33.6133C7.54484 33.6074 7.52042 33.5957 7.50298 33.5878C7.46114 33.5703 7.41585 33.5549 7.37402 33.5394C7.3426 33.517 7.3077 33.4964 7.27282 33.4781L7.24493 33.464L7.22395 33.4457C7.20998 33.4337 7.19604 33.4219 7.18208 33.4113C7.07731 33.3191 7.01427 33.2196 6.96848 33.0691C6.9262 32.9238 6.89396 32.6652 6.99378 32.3368C7.035 32.1739 7.11448 32.0008 7.21834 31.8328C7.31524 31.6614 7.4505 31.5054 7.62059 31.3576C7.95728 31.0583 8.44394 30.8329 8.98319 30.7133C9.52315 30.5957 10.1129 30.584 10.6658 30.6811C11.218 30.7786 11.7364 30.9826 12.1278 31.2812C12.3274 31.4267 12.4916 31.5972 12.6187 31.7779C12.6883 31.8656 12.7342 31.9621 12.7871 32.053C12.8281 32.1478 12.8737 32.2401 12.9009 32.3335C13.0195 32.7065 13.0242 33.0483 13.0125 33.2835C12.9959 33.5187 12.981 33.6566 13.0037 33.6631C13.0242 33.6696 13.0945 33.5499 13.1786 33.3137C13.2572 33.0783 13.3374 32.7126 13.2829 32.2505C13.2713 32.1352 13.2393 32.0168 13.2089 31.8926C13.167 31.7729 13.1286 31.6435 13.0631 31.5221C13.0182 31.4191 12.9569 31.3227 12.8935 31.2235C12.9838 31.2554 13.0734 31.2842 13.1647 31.3008C13.2978 31.3367 13.4322 31.3449 13.5587 31.359C13.6864 31.3603 13.809 31.3648 13.9242 31.3505C14.3875 31.3008 14.7264 31.1424 14.9401 31.0152C15.1523 30.8825 15.2551 30.7897 15.2456 30.7735C15.2326 30.7506 15.0994 30.7937 14.8727 30.8606C14.6448 30.9234 14.3098 30.9938 13.9197 30.9619C13.8226 30.9564 13.7226 30.9325 13.6208 30.9145C13.5205 30.8833 13.4163 30.8601 13.3155 30.8123C13.1112 30.7306 12.9081 30.6097 12.7216 30.4496C12.4989 30.2665 12.2978 30.032 12.1256 29.7666C11.8293 29.0715 11.5832 28.363 11.503 27.6228C11.49 27.5972 11.4749 27.5734 11.4612 27.5478C11.4612 27.5443 11.4609 27.5405 11.4609 27.5367C11.4565 26.9891 11.5672 26.4665 11.7838 26.0747C11.89 25.8759 12.0119 25.7106 12.1566 25.575C12.2979 25.4374 12.4497 25.3222 12.5998 25.2455C12.8986 25.0755 13.1593 25.049 13.3108 25.0564C13.4685 25.0652 13.5804 25.1064 13.6946 25.1874C13.7082 25.1991 13.7225 25.2098 13.7372 25.2198L13.7598 25.2346L13.7791 25.2581C13.8053 25.2881 13.8333 25.3168 13.8629 25.3451C13.8874 25.3824 13.9123 25.4201 13.9385 25.4563C13.9508 25.474 13.9679 25.494 13.977 25.5089C13.9851 25.523 13.9935 25.5372 14.0029 25.5507C14.0656 25.6647 14.1006 25.8063 14.1046 25.9503C14.1089 26.0937 14.0774 26.2358 14.0474 26.3281C14.0402 26.3513 14.0336 26.3704 14.0302 26.3849C14.0292 26.3908 14.0264 26.4019 14.0278 26.4043C14.0313 26.4133 14.0219 26.403 14.0447 26.4396C14.0569 26.4631 14.0654 26.4835 14.0721 26.5025C14.047 26.4905 14.0208 26.4754 13.9946 26.4564C13.8437 26.3336 13.7243 26.2163 13.6196 26.2416C13.5232 26.2644 13.43 26.4022 13.4551 26.7C13.4651 26.7755 13.4863 26.8627 13.5354 26.9636C13.5914 27.0632 13.68 27.1896 13.8637 27.2753C13.9534 27.3162 14.0642 27.3404 14.1697 27.3372C14.2243 27.3374 14.2758 27.3317 14.3245 27.3208C14.3771 27.3109 14.4212 27.2958 14.4661 27.2791C14.6445 27.2099 14.7774 27.1066 14.8902 26.994C15.1119 26.7667 15.2631 26.4881 15.3486 26.1608C15.4314 25.8353 15.4412 25.4494 15.3152 25.0585L15.2614 24.9139C15.2421 24.8672 15.2215 24.8299 15.2004 24.7874C15.1587 24.704 15.1152 24.62 15.0686 24.536C15.0106 24.4538 14.9497 24.3712 14.8864 24.2894L14.8385 24.2282L14.7801 24.1706L14.6596 24.057C14.3302 23.7565 13.8491 23.5594 13.3839 23.5436Z" fill="#383838"/>
<path d="M317.14 162.292C317.14 162.292 313.789 161.866 314.233 159.871C314.233 159.871 315.887 159.261 317.14 162.292ZM317.271 154.045L317.139 153.955L317.073 153.912L317.005 153.879C316.914 153.836 316.824 153.796 316.734 153.759C316.646 153.731 316.557 153.708 316.47 153.685C316.425 153.674 316.386 153.662 316.337 153.654L316.19 153.632C315.794 153.593 315.431 153.68 315.139 153.823C314.846 153.969 314.613 154.167 314.442 154.421C314.358 154.549 314.287 154.695 314.257 154.876C314.25 154.921 314.245 154.966 314.247 155.017C314.246 155.064 314.251 155.114 314.262 155.166C314.28 155.265 314.326 155.364 314.383 155.44C314.501 155.595 314.638 155.652 314.744 155.685C314.85 155.711 314.937 155.713 315.01 155.707C315.297 155.67 315.409 155.555 315.411 155.46C315.414 155.357 315.278 155.268 315.132 155.152C315.109 155.131 315.089 155.11 315.072 155.089C315.092 155.091 315.113 155.095 315.138 155.102C315.177 155.116 315.165 155.109 315.174 155.11C315.177 155.111 315.187 155.107 315.192 155.104C315.205 155.098 315.222 155.088 315.243 155.077C315.324 155.03 315.452 154.972 315.589 154.947C315.727 154.921 315.867 154.926 315.988 154.962C316.003 154.968 316.018 154.973 316.033 154.977C316.049 154.983 316.071 154.995 316.09 155.003C316.13 155.02 316.171 155.036 316.211 155.051C316.244 155.074 316.276 155.094 316.31 155.112L316.336 155.126L316.355 155.144C316.368 155.156 316.381 155.167 316.394 155.178C316.494 155.268 316.555 155.365 316.596 155.51C316.633 155.651 316.661 155.901 316.56 156.215C316.518 156.372 316.439 156.537 316.337 156.697C316.238 156.86 316.106 157.008 315.939 157.147C315.612 157.429 315.139 157.639 314.619 157.745C314.616 157.745 314.612 157.746 314.609 157.747C314.582 157.739 314.556 157.73 314.529 157.722C313.812 157.796 313.092 157.708 312.373 157.571C312.087 157.463 311.825 157.322 311.606 157.15C311.417 157.008 311.261 156.842 311.143 156.666C311.077 156.582 311.034 156.489 310.984 156.401C310.947 156.309 310.904 156.22 310.879 156.13C310.77 155.771 310.769 155.443 310.783 155.217C310.801 154.99 310.815 154.857 310.79 154.85C310.773 154.844 310.706 154.959 310.623 155.185C310.545 155.411 310.464 155.76 310.51 156.205C310.519 156.315 310.549 156.429 310.576 156.549C310.615 156.665 310.649 156.789 310.71 156.906C310.745 156.989 310.79 157.067 310.838 157.145C310.731 157.105 310.628 157.068 310.521 157.046C310.393 157.01 310.262 157 310.141 156.984C310.017 156.981 309.898 156.975 309.787 156.987C309.338 157.029 309.008 157.178 308.8 157.299C308.594 157.425 308.495 157.515 308.505 157.534C308.516 157.553 308.643 157.512 308.863 157.449C309.083 157.39 309.408 157.325 309.785 157.362C309.879 157.368 309.976 157.392 310.074 157.412C310.171 157.443 310.272 157.467 310.368 157.515C310.566 157.597 310.76 157.717 310.938 157.874C311.299 158.181 311.598 158.626 311.801 159.124C312.004 159.623 312.112 160.178 312.11 160.707C312.105 161.236 311.989 161.738 311.773 162.113C311.668 162.303 311.547 162.461 311.405 162.589C311.267 162.719 311.119 162.827 310.973 162.899C310.682 163.058 310.43 163.08 310.284 163.07C310.133 163.059 310.025 163.018 309.917 162.938C309.904 162.927 309.89 162.917 309.876 162.906L309.854 162.891L309.836 162.869C309.811 162.84 309.785 162.812 309.757 162.784C309.734 162.748 309.71 162.711 309.685 162.676C309.674 162.659 309.658 162.639 309.649 162.624C309.642 162.611 309.634 162.597 309.625 162.584C309.566 162.473 309.534 162.336 309.533 162.197C309.531 162.059 309.563 161.923 309.594 161.834C309.6 161.812 309.607 161.793 309.611 161.779C309.612 161.774 309.615 161.763 309.613 161.761C309.61 161.752 309.619 161.762 309.598 161.727C309.586 161.704 309.579 161.684 309.572 161.666C309.596 161.678 309.622 161.692 309.646 161.711C309.79 161.831 309.903 161.946 310.004 161.923C310.098 161.903 310.189 161.772 310.17 161.485C310.161 161.412 310.142 161.327 310.096 161.229C310.043 161.132 309.96 161.009 309.785 160.924C309.699 160.884 309.592 160.858 309.491 160.86C309.438 160.859 309.388 160.864 309.341 160.874C309.29 160.882 309.247 160.896 309.204 160.912C309.031 160.976 308.902 161.074 308.792 161.18C308.575 161.396 308.425 161.662 308.337 161.976C308.253 162.289 308.238 162.66 308.353 163.039L308.403 163.179C308.421 163.224 308.44 163.26 308.459 163.302C308.499 163.383 308.539 163.464 308.583 163.546C308.637 163.626 308.695 163.706 308.755 163.786L308.8 163.846L308.856 163.902L308.97 164.014C309.283 164.308 309.744 164.505 310.191 164.526C310.641 164.557 311.199 164.433 311.694 164.114C311.947 163.961 312.184 163.757 312.4 163.514C312.618 163.273 312.803 162.976 312.936 162.661C313.081 162.33 313.166 161.976 313.205 161.618C315.262 163.699 319.163 164.157 319.617 164.204L319.623 164.209L319.621 164.204C319.623 164.204 319.625 164.204 319.626 164.205L319.62 164.2C319.497 163.774 318.411 160.203 316.111 158.498C316.318 158.409 316.518 158.304 316.706 158.176C316.99 157.985 317.247 157.747 317.442 157.488C317.641 157.231 317.796 156.96 317.898 156.684C318.117 156.138 318.132 155.57 318.014 155.137C317.905 154.705 317.621 154.293 317.271 154.045Z" fill="#383838"/>
<path d="M317.037 25.41C317.037 25.41 315.897 28.708 313.952 27.8398C313.952 27.8398 313.677 26.0398 317.037 25.41ZM308.638 23.5451L308.518 23.6594L308.461 23.7175L308.413 23.7789C308.35 23.8612 308.29 23.9442 308.232 24.0272C308.186 24.1115 308.144 24.1955 308.102 24.2791C308.082 24.3218 308.061 24.3596 308.042 24.4061L307.989 24.551C307.866 24.9428 307.878 25.3286 307.963 25.6535C308.051 25.9802 308.205 26.2574 308.428 26.4835C308.541 26.5957 308.675 26.6981 308.854 26.766C308.899 26.7825 308.943 26.7972 308.996 26.8064C309.044 26.817 309.096 26.8227 309.151 26.8222C309.256 26.8246 309.367 26.7992 309.456 26.7577C309.639 26.6709 309.727 26.5438 309.782 26.4442C309.831 26.3429 309.851 26.2552 309.861 26.1797C309.884 25.8817 309.79 25.7446 309.693 25.7227C309.588 25.6981 309.47 25.816 309.32 25.9398C309.294 25.9589 309.267 25.9742 309.243 25.9868C309.249 25.9674 309.257 25.9466 309.27 25.9233C309.292 25.8869 309.282 25.8973 309.286 25.8879C309.287 25.8859 309.285 25.8744 309.283 25.8689C309.28 25.854 309.273 25.835 309.266 25.8118C309.235 25.7198 309.203 25.5779 309.206 25.4345C309.209 25.2901 309.243 25.149 309.305 25.0345C309.314 25.0206 309.323 25.0067 309.331 24.9925C309.34 24.9776 309.356 24.9571 309.369 24.9394C309.395 24.9029 309.42 24.8647 309.443 24.8276C309.473 24.7994 309.501 24.7706 309.527 24.7397L309.546 24.7167L309.568 24.7018C309.583 24.691 309.597 24.6806 309.611 24.6691C309.725 24.5873 309.836 24.545 309.994 24.5351C310.145 24.5266 310.406 24.5513 310.706 24.7193C310.857 24.7954 311.009 24.9095 311.151 25.0458C311.297 25.1804 311.42 25.3451 311.528 25.5432C311.747 25.9335 311.862 26.4554 311.861 27.003C311.861 27.0064 311.86 27.0103 311.86 27.0141C311.847 27.0394 311.832 27.0633 311.82 27.0894C311.744 27.8298 311.503 28.5396 311.212 29.2371C311.041 29.504 310.842 29.7392 310.62 29.9242C310.435 30.0852 310.233 30.2078 310.029 30.2909C309.928 30.3398 309.824 30.3633 309.724 30.3952C309.623 30.4142 309.523 30.4385 309.426 30.445C309.036 30.4793 308.7 30.4112 308.472 30.35C308.245 30.2846 308.111 30.2424 308.099 30.2653C308.09 30.2817 308.193 30.3738 308.406 30.5053C308.621 30.6307 308.961 30.7867 309.425 30.8336C309.54 30.8471 309.662 30.8415 309.79 30.8393C309.916 30.8243 310.05 30.8152 310.183 30.7784C310.275 30.7611 310.364 30.7317 310.454 30.6995C310.391 30.7988 310.33 30.8956 310.286 30.999C310.222 31.1211 310.184 31.2508 310.143 31.3704C310.114 31.4949 310.082 31.6134 310.072 31.7291C310.02 32.1917 310.103 32.5561 310.183 32.7917C310.269 33.0273 310.34 33.1462 310.361 33.1399C310.383 33.1329 310.367 32.9954 310.349 32.76C310.336 32.5248 310.338 32.183 310.454 31.8092C310.481 31.7153 310.526 31.6233 310.566 31.528C310.618 31.437 310.663 31.3399 310.733 31.2517C310.858 31.0701 311.022 30.8988 311.22 30.7516C311.609 30.4507 312.126 30.2428 312.678 30.1415C313.23 30.0409 313.82 30.0479 314.36 30.1621C314.899 30.278 315.388 30.5 315.726 30.7971C315.898 30.944 316.033 31.0991 316.135 31.2695C316.239 31.4367 316.318 31.6093 316.361 31.7719C316.462 32.0996 316.431 32.3584 316.391 32.504C316.348 32.6552 316.283 32.7548 316.179 32.848C316.165 32.8588 316.151 32.8702 316.138 32.8824L316.118 32.9012L316.092 32.9151C316.056 32.9339 316.022 32.9545 315.988 32.9775C315.946 32.9932 315.904 33.0086 315.862 33.0264C315.842 33.0348 315.819 33.0466 315.802 33.0522C315.786 33.0568 315.771 33.0624 315.756 33.0683C315.63 33.1048 315.484 33.108 315.341 33.0801C315.2 33.0533 315.067 32.9917 314.983 32.9425C314.962 32.9308 314.945 32.9201 314.931 32.9136C314.926 32.9112 314.915 32.9063 314.912 32.9074C314.903 32.9085 314.916 32.9015 314.874 32.9155C314.849 32.9225 314.827 32.926 314.807 32.9285C314.824 32.907 314.844 32.8844 314.869 32.8635C315.022 32.7435 315.163 32.653 315.161 32.5463C315.16 32.4476 315.045 32.3271 314.747 32.2866C314.671 32.2799 314.581 32.2813 314.471 32.3073C314.361 32.3402 314.218 32.3986 314.094 32.5583C314.034 32.6365 313.986 32.7391 313.966 32.8417C313.954 32.8951 313.949 32.9464 313.949 32.9963C313.947 33.0493 313.952 33.0953 313.959 33.1427C313.988 33.3307 314.061 33.4821 314.146 33.6162C314.322 33.8806 314.562 34.0882 314.864 34.2424C315.166 34.3937 315.542 34.487 315.953 34.4499L316.107 34.4286C316.156 34.4205 316.198 34.4078 316.244 34.3973C316.335 34.3745 316.427 34.3506 316.519 34.3236C316.613 34.2852 316.707 34.2443 316.801 34.2004L316.872 34.1669L316.941 34.123L317.079 34.0308C317.445 33.776 317.743 33.3521 317.859 32.9035C317.985 32.4559 317.975 31.8654 317.753 31.2982C317.65 31.01 317.492 30.7269 317.289 30.4582C317.088 30.187 316.823 29.9375 316.53 29.7369C316.222 29.5208 315.879 29.3602 315.521 29.2455C318.078 27.6036 319.366 23.7565 319.51 23.3071L319.516 23.3023L319.511 23.3026C319.511 23.3026 319.512 23.2992 319.512 23.2981L319.506 23.303C319.045 23.3378 315.169 23.6861 312.944 25.6534C312.897 25.4249 312.831 25.1997 312.739 24.9842C312.604 24.657 312.416 24.3467 312.191 24.0946C311.971 23.8401 311.726 23.6266 311.465 23.4654C310.955 23.1294 310.376 22.9953 309.91 23.0232C309.445 23.0422 308.965 23.2426 308.638 23.5451Z" fill="#383838"/>
<line x1="6.0672" y1="121.401" x2="319.376" y2="121.401" stroke="#383838" stroke-width="0.5"/>
<path d="M155.989 7.72474C155.868 7.67251 155.778 7.57101 155.732 7.40907C155.69 7.25025 155.703 7.03096 155.815 6.7819C155.925 6.53527 156.153 6.26779 156.482 6.07756C156.81 5.8849 157.23 5.78856 157.641 5.81693C157.849 5.82522 158.109 5.88459 158.386 5.99239C158.662 6.10123 158.948 6.27065 159.204 6.49039C159.461 6.70909 159.691 6.97673 159.873 7.26703C160.056 7.55733 160.191 7.86927 160.284 8.17339C160.371 8.47995 160.418 8.77799 160.436 9.04773C160.441 9.18279 160.443 9.31128 160.439 9.43009C160.431 9.5503 160.425 9.66047 160.411 9.76095C160.395 9.8618 160.379 9.95224 160.363 10.0313C160.345 10.1099 160.323 10.1779 160.304 10.2327C160.265 10.3426 160.229 10.4023 160.199 10.4024C160.173 10.4025 160.136 10.3427 160.092 10.2396C160.046 10.1241 159.989 9.98129 159.925 9.81838C159.89 9.73261 159.847 9.64133 159.806 9.54518C159.761 9.44975 159.712 9.35085 159.659 9.25024C159.549 9.05043 159.419 8.84757 159.272 8.66001C159.121 8.47524 158.953 8.30716 158.779 8.17199C158.604 8.03544 158.424 7.93214 158.257 7.86172C158.09 7.78991 157.936 7.752 157.812 7.73442C157.78 7.7269 157.751 7.72769 157.723 7.72363C157.696 7.71991 157.669 7.7162 157.646 7.71698C157.621 7.71602 157.599 7.71401 157.578 7.71097C157.558 7.71173 157.539 7.71145 157.522 7.70977C157.384 7.70124 157.273 7.69297 157.162 7.6892C157.052 7.68438 156.931 7.68168 156.798 7.69911C156.532 7.72704 156.233 7.82953 155.989 7.72474Z" fill="#383838"/>
<path d="M160.111 5.51351C160.855 7.17896 161.062 9.51921 161.087 9.82772C161.088 9.84745 161.1 9.86161 161.113 9.86157L161.837 10.6712C161.933 10.7786 162.102 10.7781 162.197 10.67L162.915 9.85537C162.929 9.85532 162.94 9.84108 162.942 9.82134C162.964 9.51267 163.124 7.35125 163.888 5.50052C163.894 5.48595 162.392 2.83914 162.055 2.2858C162.021 2.23016 161.955 2.23039 161.921 2.28626C161.587 2.84191 160.104 5.49933 160.111 5.51351Z" fill="#383838"/>
<path d="M168.12 7.68301C168.24 7.62995 168.33 7.52783 168.374 7.36558C168.416 7.20647 168.401 6.98728 168.288 6.73899C168.176 6.49312 167.945 6.22723 167.615 6.03926C167.286 5.84886 166.865 5.75541 166.454 5.78661C166.246 5.79633 165.987 5.85749 165.711 5.96719C165.436 6.07793 165.151 6.24931 164.897 6.4708C164.64 6.69127 164.413 6.96048 164.233 7.25203C164.053 7.54358 163.919 7.85644 163.829 8.16119C163.743 8.46835 163.699 8.7667 163.683 9.03656C163.678 9.17165 163.677 9.30015 163.682 9.41893C163.691 9.53908 163.698 9.6492 163.712 9.74959C163.729 9.85032 163.746 9.94066 163.763 10.0196C163.78 10.0981 163.804 10.1659 163.823 10.2206C163.862 10.3302 163.898 10.3897 163.928 10.3896C163.955 10.3895 163.992 10.3294 164.035 10.2261C164.08 10.1102 164.135 9.96703 164.199 9.80368C164.233 9.71767 164.276 9.62609 164.315 9.52967C164.36 9.43392 164.409 9.33469 164.461 9.23372C164.569 9.03316 164.698 8.82941 164.844 8.64084C164.993 8.45503 165.16 8.2858 165.334 8.14944C165.507 8.01169 165.686 7.90716 165.853 7.83558C166.019 7.76262 166.173 7.72366 166.297 7.70522C166.329 7.6975 166.358 7.69808 166.386 7.69383C166.413 7.68992 166.44 7.68603 166.463 7.68664C166.487 7.68552 166.51 7.68336 166.531 7.68017C166.551 7.68079 166.57 7.68038 166.587 7.67859C166.725 7.66911 166.836 7.66007 166.947 7.65554C167.057 7.64996 167.178 7.64643 167.311 7.66294C167.577 7.68904 167.876 7.78948 168.12 7.68301Z" fill="#383838"/>
<path d="M162.035 11.3167C162.035 11.3167 163.389 14.1505 162.045 14.1596C160.673 14.1692 161.955 11.147 162.035 11.3167Z" fill="#383838"/>
<path d="M161.304 11.3261C161.304 11.3261 160.413 13.5049 159.728 12.7703C159.028 12.0197 161.358 11.1964 161.304 11.3261Z" fill="#383838"/>
<path d="M162.765 11.4039C162.765 11.4039 165.099 11.779 164.532 12.608C163.954 13.4547 162.625 11.3805 162.765 11.4039Z" fill="#383838"/>
<path d="M108.641 6.08628C108.781 5.47411 109.004 4.91291 109.277 4.42117C109.549 3.92874 109.868 3.50646 110.193 3.14615C110.515 2.78066 110.884 2.46905 111.26 2.17958C111.355 2.11067 111.452 2.04176 111.548 1.97319C111.594 1.93805 111.645 1.90531 111.698 1.87361L111.852 1.77713C111.954 1.71063 112.062 1.65657 112.168 1.59941L112.327 1.51538L112.49 1.44104C112.923 1.24178 113.368 1.08957 113.816 0.982734C114.264 0.875204 114.714 0.79919 115.16 0.762324C116.054 0.686513 116.932 0.731289 117.775 0.874213C118.196 0.945849 118.609 1.03795 119.01 1.15849C119.211 1.21391 119.407 1.28459 119.603 1.35111C119.7 1.38472 119.796 1.42527 119.892 1.46165C119.987 1.49943 120.083 1.53581 120.176 1.57913C120.27 1.62072 120.363 1.66231 120.456 1.7039C120.547 1.74757 120.638 1.79472 120.729 1.84013L120.864 1.90824L120.996 1.9826C121.084 2.03218 121.171 2.08176 121.258 2.13099C121.343 2.18508 121.427 2.23882 121.511 2.29221L121.637 2.37284L121.759 2.4597C121.839 2.51762 121.919 2.57553 121.999 2.63275C122.077 2.69449 122.154 2.75622 122.231 2.81761C122.308 2.87726 122.381 2.94282 122.453 3.00908C122.525 3.07499 122.599 3.13881 122.669 3.20646C122.803 3.34662 122.944 3.47879 123.066 3.62801C123.323 3.91322 123.537 4.22976 123.733 4.54706C123.778 4.62934 123.822 4.71127 123.867 4.79251L123.933 4.9149L123.99 5.04183C124.028 5.12622 124.065 5.21025 124.102 5.29394C124.133 5.38077 124.164 5.46691 124.195 5.55271L124.24 5.68106C124.254 5.72431 124.264 5.7686 124.276 5.8122C124.299 5.89976 124.321 5.98662 124.344 6.07313C124.362 6.1607 124.377 6.24898 124.392 6.33621L124.415 6.46671C124.421 6.51068 124.424 6.55466 124.429 6.59829C124.437 6.68589 124.445 6.77315 124.453 6.85971C124.454 6.94664 124.455 7.03323 124.456 7.11913L124.457 7.24763L124.449 7.37547C124.442 7.46036 124.436 7.54489 124.43 7.62873C124.417 7.71191 124.405 7.79437 124.392 7.87685C124.386 7.91775 124.38 7.95865 124.372 7.9992L124.344 8.11983C124.325 8.19956 124.307 8.27929 124.287 8.3573C124.262 8.43462 124.238 8.51159 124.213 8.58753C124.201 8.62567 124.189 8.66382 124.176 8.70127L124.131 8.81122C124.101 8.88441 124.071 8.95691 124.041 9.02906C124.006 9.09846 123.971 9.16749 123.937 9.23619L123.885 9.3389C123.866 9.37221 123.846 9.4045 123.826 9.43712C123.787 9.50168 123.748 9.56624 123.709 9.63011C123.668 9.69294 123.623 9.75232 123.581 9.81273C123.499 9.93494 123.402 10.044 123.31 10.1538C122.934 10.587 122.491 10.9127 122.045 11.1457C121.597 11.3779 121.141 11.5107 120.717 11.5666C120.292 11.6207 119.898 11.6113 119.557 11.5477C119.515 11.5409 119.472 11.5355 119.431 11.5277C119.39 11.5178 119.35 11.5079 119.31 11.4983C119.231 11.4788 119.155 11.4601 119.081 11.4413C118.937 11.3915 118.802 11.3477 118.68 11.2985C118.563 11.2439 118.454 11.193 118.353 11.1459C118.316 11.1242 118.282 11.1042 118.248 11.0842C117.498 10.9587 116.924 10.3122 116.921 9.52981C116.918 8.65489 117.629 7.94377 118.508 7.94074C119.387 7.93772 120.102 8.64394 120.105 9.51886C120.108 10.2043 119.671 10.7881 119.059 11.0105C119.097 11.0179 119.135 11.0258 119.176 11.034C119.244 11.042 119.314 11.0504 119.387 11.0589C119.423 11.0636 119.459 11.0683 119.497 11.0727C119.534 11.0753 119.572 11.0755 119.611 11.0775C119.917 11.1 120.258 11.0732 120.616 10.9951C120.974 10.9159 121.348 10.774 121.709 10.5528C122.069 10.3313 122.421 10.0374 122.712 9.65883C122.782 9.56298 122.858 9.46955 122.92 9.36369C122.952 9.31163 122.987 9.26128 123.018 9.20783C123.048 9.153 123.077 9.09818 123.106 9.043C123.121 9.01524 123.136 8.98818 123.15 8.96008L123.188 8.87336C123.214 8.81542 123.239 8.75748 123.266 8.69886C123.287 8.63852 123.308 8.57783 123.33 8.51679L123.363 8.42525C123.372 8.39439 123.379 8.36249 123.388 8.33094C123.405 8.26819 123.422 8.20475 123.439 8.14096C123.452 8.07614 123.464 8.01098 123.477 7.94547L123.496 7.84704C123.5 7.81378 123.503 7.78016 123.506 7.7469C123.514 7.68002 123.521 7.61281 123.528 7.54524C123.531 7.477 123.532 7.4091 123.534 7.34051L123.537 7.23729L123.532 7.13339C123.528 7.06448 123.524 6.99487 123.521 6.92526C123.511 6.85568 123.502 6.78574 123.492 6.71581C123.488 6.68084 123.484 6.64553 123.478 6.61091L123.455 6.50604C123.439 6.43648 123.426 6.36586 123.409 6.29561C123.388 6.2264 123.366 6.1572 123.345 6.08731C123.334 6.05236 123.325 6.01741 123.313 5.98247L123.272 5.87974C123.244 5.81091 123.217 5.74207 123.19 5.67289C123.157 5.60546 123.124 5.53803 123.091 5.47026L123.041 5.36825L122.983 5.26905C122.944 5.20268 122.905 5.13631 122.866 5.06925C122.198 4.02101 121.081 3.15165 119.736 2.61109C119.654 2.57397 119.568 2.54343 119.482 2.51186C119.396 2.48133 119.312 2.44664 119.224 2.41854C119.049 2.36268 118.874 2.30267 118.693 2.25688C118.335 2.15524 117.964 2.07928 117.588 2.021C116.835 1.90444 116.052 1.87457 115.271 1.94895C114.88 1.98459 114.492 2.05485 114.11 2.14899C113.728 2.24244 113.356 2.37396 113.002 2.53866L112.869 2.59973L112.74 2.66875C112.655 2.71511 112.567 2.75872 112.487 2.81268L112.364 2.89C112.322 2.91473 112.281 2.94084 112.241 2.97181C112.159 3.03097 112.077 3.09014 111.995 3.14931C111.677 3.39632 111.366 3.6582 111.101 3.96115C110.832 4.25995 110.569 4.6055 110.346 5.00563C110.123 5.40507 109.939 5.85945 109.822 6.35966C109.704 6.85953 109.652 7.40419 109.68 7.97422C109.682 8.11692 109.703 8.26059 109.716 8.40636C109.731 8.55179 109.761 8.69751 109.783 8.84534C109.845 9.1385 109.915 9.43753 110.018 9.73332C110.112 10.0323 110.241 10.3259 110.377 10.6215C110.524 10.912 110.68 11.2055 110.868 11.4861C111.049 11.7709 111.26 12.0431 111.482 12.3105C111.598 12.4399 111.71 12.5757 111.836 12.6993C111.899 12.7621 111.959 12.8277 112.023 12.8884C112.088 12.9492 112.154 13.0099 112.219 13.071C112.283 13.1331 112.352 13.1904 112.422 13.248C112.491 13.3059 112.558 13.3646 112.63 13.4225C112.78 13.537 112.93 13.6522 113.081 13.7677C113.158 13.8249 113.232 13.8856 113.31 13.9404C113.388 13.9949 113.467 14.0493 113.545 14.1045C113.624 14.1589 113.703 14.2141 113.782 14.2689C113.861 14.3244 113.94 14.3806 114.023 14.4298C114.187 14.5321 114.351 14.6351 114.517 14.7381C114.683 14.8387 114.857 14.9285 115.028 15.0252C115.198 15.1247 115.377 15.2066 115.555 15.2925C115.644 15.3355 115.733 15.3785 115.823 15.4215C115.912 15.4655 116.006 15.4985 116.097 15.5383C116.19 15.5761 116.282 15.6142 116.374 15.6527C116.467 15.6912 116.559 15.7297 116.655 15.7605C116.846 15.8267 117.037 15.8925 117.228 15.9587C117.424 16.0145 117.62 16.0703 117.817 16.1268C117.915 16.1573 118.016 16.1777 118.116 16.2013C118.217 16.2245 118.318 16.2477 118.419 16.2705C119.229 16.4458 120.068 16.5676 120.927 16.6391C121.141 16.6605 121.358 16.6698 121.574 16.6857L121.899 16.7071L122.226 16.7209C122.444 16.7295 122.663 16.7377 122.883 16.7463C123.103 16.7504 123.324 16.7545 123.544 16.7583C123.765 16.7637 123.987 16.7647 124.209 16.7643C124.432 16.7646 124.654 16.7648 124.877 16.7651C125.097 16.7592 125.318 16.7532 125.538 16.7476L125.87 16.7385C125.98 16.735 126.09 16.7246 126.201 16.7183C126.422 16.703 126.643 16.688 126.864 16.6731C127.086 16.6553 127.307 16.6275 127.528 16.6053C127.972 16.5653 128.413 16.4942 128.856 16.4338C129.077 16.4039 129.297 16.3599 129.518 16.3235C129.738 16.2836 129.959 16.2523 130.179 16.2048C130.618 16.116 131.058 16.0324 131.495 15.9291C132.371 15.7369 133.238 15.5071 134.101 15.2759C134.962 15.0353 135.818 14.7892 136.665 14.531C137.513 14.2756 138.353 14.0146 139.185 13.7586C140.017 13.5022 140.847 13.2534 141.657 13.0103C143.277 12.5187 144.854 12.0187 146.391 11.6151C147.158 11.4112 147.918 11.2382 148.662 11.0898C149.406 10.9424 150.139 10.8384 150.853 10.7615C152.282 10.6291 153.64 10.6553 154.858 10.8672C155.467 10.9718 156.042 11.1191 156.567 11.3248C157.09 11.5305 157.564 11.8011 157.932 12.1493C158.115 12.3229 158.272 12.5146 158.39 12.7206C158.507 12.926 158.586 13.1411 158.636 13.3523C158.645 13.4056 158.655 13.4585 158.665 13.5104C158.676 13.5624 158.676 13.615 158.682 13.6662C158.694 13.7687 158.695 13.8712 158.69 13.9696C158.679 14.1678 158.642 14.3525 158.589 14.5217C158.483 14.8605 158.313 15.1365 158.118 15.3311C157.924 15.5275 157.703 15.6346 157.516 15.6667C157.33 15.7017 157.184 15.6762 157.093 15.6533C157.046 15.6431 157.012 15.629 156.99 15.6204C156.967 15.6115 156.956 15.606 156.957 15.6039C156.959 15.598 157.006 15.6117 157.098 15.6249C157.19 15.6374 157.33 15.6504 157.503 15.6069C157.675 15.5657 157.875 15.4563 158.048 15.2645C158.222 15.0741 158.371 14.8065 158.459 14.4841C158.502 14.3229 158.53 14.1479 158.534 13.9643C158.535 13.8721 158.531 13.779 158.516 13.6831C158.509 13.6357 158.507 13.5865 158.495 13.5387C158.484 13.4906 158.474 13.4425 158.463 13.3934C158.41 13.2003 158.332 13.0059 158.218 12.8217C158.105 12.6371 157.955 12.4665 157.782 12.3102C157.431 11.999 156.979 11.7553 156.472 11.5728C155.964 11.3899 155.404 11.2619 154.809 11.1757C153.617 11 152.292 11.0073 150.898 11.1697C150.201 11.2618 149.485 11.38 148.755 11.5411C148.027 11.7037 147.283 11.8905 146.528 12.1089C145.017 12.5408 143.46 13.0705 141.842 13.5967C141.031 13.8582 140.217 14.1201 139.39 14.3928C138.563 14.6651 137.727 14.9423 136.881 15.2147C136.036 15.4898 135.178 15.7543 134.313 16.0125C133.445 16.2625 132.571 16.5111 131.682 16.7223C131.24 16.8353 130.793 16.9287 130.346 17.0272C130.123 17.0792 129.896 17.1157 129.671 17.1605C129.446 17.2014 129.222 17.2503 128.995 17.2847C128.541 17.3548 128.089 17.435 127.633 17.4844C127.404 17.5111 127.177 17.5435 126.949 17.5657C126.72 17.5849 126.491 17.6044 126.263 17.6238C126.148 17.6325 126.034 17.6451 125.92 17.6506L125.576 17.6657C125.347 17.6751 125.118 17.6853 124.89 17.6947C124.664 17.6983 124.439 17.7015 124.213 17.705C123.988 17.7089 123.763 17.7114 123.538 17.7094C123.313 17.7091 123.088 17.7085 122.863 17.7079C122.639 17.7028 122.414 17.6977 122.19 17.6922L121.854 17.6837L121.519 17.6665C121.295 17.6537 121.072 17.6472 120.849 17.629C119.957 17.5679 119.071 17.4539 118.202 17.2792C118.094 17.256 117.986 17.2328 117.878 17.2093C117.77 17.1854 117.662 17.1654 117.555 17.1342C117.342 17.0764 117.13 17.019 116.918 16.9619C116.709 16.893 116.501 16.824 116.294 16.7558C116.189 16.724 116.088 16.6835 115.987 16.6429C115.886 16.6028 115.785 16.5629 115.684 16.5231C115.584 16.4815 115.482 16.4462 115.385 16.4001C115.287 16.3544 115.189 16.3094 115.092 16.2643C114.897 16.1739 114.702 16.0862 114.516 15.9819C114.33 15.8804 114.141 15.7851 113.96 15.679C113.781 15.5705 113.602 15.4624 113.424 15.3546C113.335 15.3023 113.25 15.244 113.165 15.1861C113.08 15.1282 112.995 15.0707 112.91 15.0135C112.826 14.9559 112.741 14.8987 112.657 14.8415C112.572 14.7843 112.494 14.7215 112.412 14.6619C112.251 14.5415 112.09 14.4216 111.93 14.3023C111.851 14.2405 111.771 14.1726 111.692 14.1084C111.613 14.0436 111.533 13.9794 111.459 13.9097C111.384 13.8407 111.309 13.7727 111.234 13.7048C111.16 13.6357 111.09 13.5625 111.019 13.4918C110.874 13.352 110.744 13.2001 110.61 13.0537C110.352 12.7518 110.11 12.4433 109.898 12.1195C109.68 11.8009 109.496 11.4659 109.324 11.133C109.162 10.7937 109.011 10.4555 108.897 10.1088C108.414 8.73263 108.359 7.30924 108.641 6.08628Z" fill="#383838"/>
<path d="M103.616 6.65356C103.452 6.79197 103.457 7.09536 103.592 7.47865C103.728 7.86124 103.995 8.32753 104.374 8.78548C104.75 9.23963 105.723 10.1905 106.712 10.9085C107.203 11.2695 107.699 11.5635 108.08 11.7406C108.268 11.8331 108.431 11.8925 108.547 11.9274C108.662 11.9623 108.732 11.9721 108.745 11.9513C108.756 11.9333 108.718 11.8738 108.641 11.784C108.565 11.6942 108.45 11.5755 108.317 11.4232C108.046 11.1259 107.695 10.7153 107.348 10.2566C106.648 9.34498 105.943 8.25607 105.569 7.80572C105.198 7.35743 104.795 6.9969 104.438 6.78616C104.082 6.57542 103.778 6.51654 103.616 6.65356Z" fill="#383838"/>
<path d="M97.5909 11.5466C97.5994 12.0817 98.7386 12.473 100.085 12.5141C100.763 12.5322 102.264 12.4338 103.607 12.5366C104.278 12.5821 104.913 12.6686 105.382 12.7514C105.62 12.7849 105.812 12.8262 105.952 12.8409C106.093 12.8567 106.178 12.854 106.192 12.8266C106.204 12.8027 106.15 12.7398 106.042 12.6467C105.934 12.5549 105.775 12.4249 105.565 12.294C105.151 12.0163 104.545 11.6997 103.863 11.435C103.183 11.1676 102.431 10.9554 101.762 10.8178C101.093 10.6795 100.508 10.6067 100.149 10.5961C99.4294 10.5733 98.7846 10.6812 98.3253 10.8594C97.8656 11.0369 97.5872 11.282 97.5909 11.5466Z" fill="#383838"/>
<path d="M108.495 14.7668C108.495 14.7668 108.764 14.9979 109.229 15.3981C109.709 15.7972 110.426 16.3504 111.365 16.9678C112.312 17.5707 113.481 18.2394 114.859 18.8276C116.236 19.4124 117.824 19.913 119.541 20.2009C121.258 20.4894 122.934 20.522 124.433 20.3641C124.526 20.3558 124.62 20.3503 124.712 20.3393C124.804 20.3254 124.896 20.312 124.987 20.2985C125.167 20.2709 125.346 20.2432 125.523 20.2163C125.699 20.1859 125.874 20.1687 126.042 20.1279C126.21 20.0899 126.376 20.052 126.539 20.015C126.865 19.9377 127.178 19.8757 127.48 19.7759C127.631 19.7328 127.775 19.6831 127.916 19.6317C128.056 19.5824 128.194 19.5334 128.324 19.4803C128.851 19.2755 129.309 19.0696 129.714 18.9005C129.917 18.8143 130.105 18.7371 130.28 18.67C130.455 18.5984 130.616 18.5431 130.762 18.4924C130.835 18.4661 130.904 18.4416 130.97 18.4186C131.038 18.3948 131.1 18.37 131.156 18.3424C131.268 18.2877 131.345 18.2399 131.426 18.2303C131.504 18.2176 131.566 18.2257 131.607 18.2321C131.648 18.2378 131.67 18.2409 131.67 18.2409C131.67 18.2409 131.649 18.2333 131.61 18.2189C131.57 18.2042 131.509 18.1829 131.423 18.1791C131.338 18.1714 131.228 18.2095 131.117 18.24C131.006 18.2723 130.874 18.2845 130.717 18.3124C130.562 18.3372 130.388 18.3644 130.202 18.4067C130.014 18.444 129.811 18.4908 129.596 18.5449C129.163 18.6496 128.676 18.787 128.144 18.9153C128.011 18.95 127.875 18.9789 127.736 19.0088C127.597 19.0401 127.456 19.0704 127.312 19.0931C127.028 19.1509 126.715 19.1769 126.398 19.2168C126.239 19.2364 126.078 19.2563 125.915 19.2759C125.752 19.299 125.583 19.2992 125.413 19.3126C125.243 19.3236 125.071 19.3346 124.898 19.3459C124.811 19.3514 124.723 19.3576 124.635 19.3635C124.547 19.3669 124.457 19.3654 124.368 19.3661C122.937 19.4077 121.364 19.3051 119.738 19.0318C118.111 18.7593 116.583 18.3544 115.218 17.8939C113.854 17.43 112.656 16.9132 111.657 16.4511C110.666 15.9744 109.875 15.5511 109.334 15.2457C108.802 14.9424 108.495 14.7668 108.495 14.7668Z" fill="#383838"/>
<path d="M102.788 16.9566C103.244 17.2248 103.899 17.0148 104.416 16.5059C104.545 16.3784 104.725 16.1426 104.942 15.8814C105.159 15.6195 105.412 15.3329 105.67 15.1152C105.928 14.8958 106.183 14.7525 106.415 14.7233C106.65 14.6879 106.843 14.7589 106.885 14.7079C106.903 14.6884 106.893 14.6348 106.849 14.5483C106.803 14.4654 106.714 14.3545 106.565 14.2539C106.417 14.1501 106.206 14.075 105.973 14.0439C105.739 14.0125 105.485 14.0259 105.239 14.069C104.743 14.1562 104.273 14.3546 103.891 14.562C103.509 14.77 103.211 14.9914 103.051 15.1505C102.731 15.4689 102.545 15.8515 102.502 16.1904C102.456 16.5293 102.563 16.8181 102.788 16.9566Z" fill="#383838"/>
<path d="M215.361 5.70635C215.217 5.09551 214.989 4.53553 214.713 4.04567C214.438 3.55512 214.116 3.13538 213.788 2.77698C213.463 2.41406 213.093 2.10465 212.715 1.81812C212.619 1.74987 212.522 1.68161 212.425 1.61336C212.379 1.57854 212.328 1.54616 212.275 1.51482L212.119 1.41976C212.017 1.35396 211.909 1.29994 211.803 1.2442L211.643 1.16093L211.48 1.08771C211.045 0.891773 210.599 0.742298 210.15 0.638892C209.701 0.534447 209.251 0.461179 208.804 0.427733C207.91 0.35807 207.032 0.40889 206.191 0.557259C205.77 0.632135 205.358 0.727069 204.958 0.850365C204.757 0.906822 204.562 0.978504 204.366 1.04672C204.269 1.081 204.174 1.12219 204.078 1.15959C203.983 1.19767 203.887 1.23506 203.794 1.27902C203.701 1.32125 203.608 1.36348 203.516 1.40537C203.424 1.45002 203.334 1.49778 203.244 1.54346L203.109 1.61285L202.978 1.68777C202.89 1.73795 202.803 1.78847 202.716 1.8383C202.632 1.89297 202.548 1.94696 202.464 2.00093L202.339 2.08241L202.218 2.16976C202.138 2.22857 202.058 2.28669 201.979 2.34481C201.902 2.40742 201.825 2.46969 201.749 2.5316C201.672 2.59179 201.599 2.65784 201.528 2.72425C201.456 2.791 201.383 2.85499 201.313 2.92277C201.179 3.06455 201.04 3.19734 200.919 3.34773C200.664 3.63471 200.452 3.95236 200.258 4.27134C200.214 4.35393 200.17 4.43583 200.126 4.51738L200.061 4.64056L200.005 4.76752C199.968 4.85217 199.931 4.93646 199.894 5.02041C199.864 5.10711 199.833 5.1938 199.803 5.2798L199.759 5.4088C199.746 5.45215 199.736 5.49652 199.724 5.5402C199.702 5.62722 199.68 5.71458 199.658 5.80125C199.641 5.88894 199.627 5.9773 199.612 6.06464L199.589 6.19565C199.584 6.23931 199.581 6.28365 199.577 6.32731C199.57 6.41497 199.562 6.50193 199.555 6.58855C199.554 6.67549 199.554 6.76209 199.553 6.84833L199.553 6.97683L199.563 7.10462C199.57 7.18911 199.576 7.2736 199.583 7.35775C199.596 7.44048 199.609 7.52322 199.622 7.60526C199.629 7.64646 199.635 7.68731 199.643 7.72781L199.672 7.84789C199.692 7.92748 199.71 8.00708 199.731 8.08529C199.756 8.16244 199.781 8.23891 199.806 8.31502C199.819 8.35308 199.831 8.39114 199.844 8.42816L199.89 8.53815C199.921 8.61078 199.951 8.68342 199.981 8.75501C200.017 8.82451 200.052 8.89332 200.087 8.96178L200.14 9.06376C200.159 9.09729 200.179 9.12944 200.199 9.16159C200.238 9.22622 200.278 9.29052 200.318 9.35412C200.359 9.41667 200.404 9.47573 200.447 9.53585C200.53 9.65749 200.628 9.76557 200.721 9.8747C201.1 10.3057 201.545 10.6283 201.992 10.8578C202.442 11.087 202.899 11.2163 203.323 11.2696C203.749 11.3211 204.142 11.3087 204.483 11.2431C204.525 11.236 204.568 11.2303 204.609 11.2222C204.65 11.2117 204.69 11.2019 204.729 11.192C204.808 11.1717 204.884 11.152 204.958 11.1334C205.102 11.0827 205.237 11.0379 205.358 10.9876C205.474 10.9324 205.583 10.8805 205.684 10.8323C205.721 10.8111 205.755 10.7905 205.789 10.7706C206.538 10.6399 207.107 9.98921 207.104 9.20677C207.101 8.33185 206.386 7.62529 205.507 7.62832C204.628 7.63134 203.917 8.3428 203.92 9.21772C203.923 9.90318 204.364 10.4842 204.977 10.7024C204.939 10.7102 204.901 10.7179 204.861 10.7264C204.793 10.7349 204.722 10.7442 204.65 10.7531C204.613 10.7577 204.577 10.7627 204.54 10.7673C204.503 10.7706 204.464 10.771 204.426 10.7729C204.12 10.7979 203.778 10.773 203.42 10.6977C203.062 10.621 202.686 10.481 202.324 10.263C201.963 10.0436 201.608 9.7525 201.315 9.37597C201.244 9.28027 201.167 9.18736 201.104 9.08228C201.072 9.03009 201.037 8.97999 201.006 8.92675C200.976 8.87213 200.946 8.8175 200.917 8.76253C200.901 8.73522 200.886 8.70791 200.872 8.6799L200.833 8.59344C200.807 8.53603 200.781 8.47793 200.755 8.41983C200.733 8.35964 200.711 8.29875 200.689 8.23786L200.656 8.14688C200.646 8.11574 200.638 8.0839 200.63 8.05242C200.612 7.98978 200.594 7.92646 200.577 7.86279C200.564 7.79841 200.551 7.73298 200.538 7.66756L200.519 7.56962C200.514 7.53639 200.511 7.50279 200.507 7.46956C200.499 7.40239 200.491 7.33557 200.484 7.26806C200.481 7.19983 200.479 7.1316 200.476 7.06302L200.473 6.96017L200.477 6.85624C200.481 6.7873 200.484 6.71767 200.487 6.64769C200.496 6.57804 200.505 6.50839 200.514 6.43804C200.518 6.40339 200.522 6.36805 200.528 6.3327L200.55 6.22837C200.565 6.15835 200.578 6.08764 200.595 6.01762C200.615 5.94827 200.636 5.87858 200.657 5.80889C200.668 5.77387 200.677 5.73851 200.688 5.70384L200.729 5.60048C200.756 5.53181 200.782 5.46278 200.809 5.39307C200.842 5.32576 200.874 5.25811 200.907 5.19011L200.956 5.08776L201.013 4.98781C201.052 4.92152 201.09 4.85488 201.129 4.78755C201.789 3.73475 202.901 2.85772 204.242 2.30758C204.324 2.27024 204.409 2.23912 204.495 2.20696C204.58 2.17549 204.665 2.14056 204.752 2.11152C204.927 2.0548 205.102 1.99359 205.282 1.94621C205.64 1.84211 206.01 1.76393 206.386 1.70272C207.138 1.58098 207.921 1.54608 208.702 1.61474C209.093 1.64804 209.482 1.71528 209.864 1.80679C210.247 1.89761 210.62 2.02621 210.975 2.18882L211.109 2.24932L211.238 2.31746C211.323 2.36323 211.411 2.40623 211.492 2.45964L211.615 2.53576C211.657 2.56021 211.699 2.58605 211.739 2.61708C211.821 2.67534 211.904 2.73393 211.987 2.79253C212.306 3.0377 212.619 3.29744 212.886 3.59821C213.157 3.89515 213.422 4.23888 213.648 4.63782C213.874 5.03571 214.061 5.4888 214.182 5.98785C214.303 6.4869 214.359 7.03155 214.334 7.60176C214.333 7.74447 214.314 7.88828 214.301 8.0338C214.287 8.17933 214.259 8.32524 214.238 8.47356C214.178 8.7668 214.11 9.06628 214.009 9.36312C213.917 9.6627 213.79 9.95686 213.657 10.2538C213.511 10.5449 213.357 10.8399 213.171 11.1217C212.992 11.4078 212.783 11.6814 212.563 11.9503C212.447 12.0806 212.337 12.2171 212.212 12.3415C212.149 12.4048 212.09 12.4701 212.026 12.5319C211.961 12.5931 211.896 12.6543 211.831 12.7155C211.767 12.7784 211.699 12.8361 211.63 12.8942C211.561 12.9527 211.494 13.0118 211.422 13.0699C211.274 13.1854 211.124 13.3016 210.974 13.4185C210.898 13.4762 210.824 13.5374 210.747 13.5924C210.668 13.6474 210.591 13.7024 210.512 13.7581C210.434 13.8134 210.355 13.8688 210.276 13.9245C210.198 13.9805 210.119 14.0369 210.037 14.0871C209.874 14.1905 209.71 14.2946 209.545 14.3987C209.379 14.5005 209.206 14.5911 209.036 14.689C208.867 14.7894 208.689 14.8731 208.511 14.96C208.422 15.0036 208.333 15.0472 208.244 15.0911C208.155 15.1358 208.061 15.1693 207.97 15.2098C207.878 15.2482 207.786 15.2867 207.694 15.3258C207.602 15.3652 207.509 15.4043 207.414 15.4359C207.224 15.5027 207.033 15.5701 206.842 15.6377C206.647 15.6948 206.451 15.7523 206.255 15.8098C206.157 15.8413 206.056 15.862 205.956 15.8863C205.855 15.9105 205.755 15.9341 205.654 15.958C204.844 16.1388 204.006 16.2664 203.148 16.3438C202.935 16.3667 202.718 16.3771 202.502 16.3949L202.177 16.4185L201.85 16.4342C201.632 16.4443 201.413 16.4544 201.193 16.4641C200.973 16.4697 200.753 16.4754 200.532 16.4806C200.311 16.488 200.089 16.4905 199.867 16.4916C199.645 16.4934 199.422 16.4952 199.199 16.4966C198.979 16.4925 198.758 16.4881 198.538 16.484L198.207 16.4772C198.096 16.4744 197.986 16.4648 197.875 16.4586C197.654 16.4451 197.433 16.4317 197.211 16.4179C196.99 16.4024 196.769 16.3758 196.547 16.3554C196.103 16.3185 195.662 16.2501 195.218 16.1924C194.997 16.1644 194.777 16.1218 194.556 16.0873C194.335 16.0489 194.114 16.0188 193.894 15.9732C193.454 15.887 193.013 15.8068 192.576 15.7061C191.699 15.5204 190.829 15.2965 189.965 15.0709C189.102 14.8366 188.244 14.596 187.396 14.3437C186.547 14.0944 185.705 13.8389 184.87 13.5886C184.037 13.3383 183.205 13.0952 182.394 12.8576C180.77 12.3773 179.189 11.8877 177.65 11.495C176.881 11.2961 176.121 11.1283 175.376 10.9851C174.631 10.8432 173.896 10.7442 173.183 10.6722C171.752 10.5497 170.395 10.5852 169.178 10.8055C168.57 10.9142 167.995 11.0655 167.472 11.2748C166.951 11.4837 166.479 11.7579 166.113 12.1083C165.932 12.2835 165.775 12.4759 165.659 12.6828C165.544 12.8889 165.466 13.105 165.418 13.3164C165.408 13.3695 165.399 13.4225 165.39 13.4745C165.379 13.5265 165.379 13.5795 165.373 13.6307C165.362 13.733 165.362 13.8355 165.367 13.9342C165.38 14.1316 165.418 14.3167 165.472 14.4856C165.581 14.8233 165.752 15.0984 165.949 15.2917C166.144 15.4867 166.367 15.5919 166.553 15.6231C166.74 15.6564 166.886 15.63 166.977 15.6068C167.024 15.5959 167.057 15.5819 167.079 15.5728C167.102 15.5641 167.113 15.5585 167.112 15.5565C167.11 15.5506 167.063 15.5646 166.971 15.5784C166.88 15.5915 166.739 15.6052 166.566 15.5632C166.394 15.5232 166.193 15.4148 166.019 15.2242C165.844 15.0354 165.692 14.7688 165.603 14.447C165.558 14.2858 165.529 14.111 165.524 13.9278C165.522 13.8356 165.526 13.7424 165.54 13.6464C165.546 13.5986 165.548 13.5498 165.56 13.5016C165.57 13.4538 165.58 13.4052 165.59 13.356C165.642 13.1626 165.719 12.9676 165.831 12.7826C165.943 12.5976 166.092 12.4253 166.265 12.2685C166.613 11.9549 167.063 11.7081 167.569 11.5218C168.075 11.3357 168.635 11.2039 169.23 11.1136C170.42 10.9297 171.745 10.9279 173.14 11.0804C173.837 11.1677 174.555 11.2809 175.285 11.4374C176.015 11.5949 176.76 11.7766 177.517 11.9894C179.031 12.411 180.591 12.93 182.213 13.4454C183.026 13.7013 183.842 13.9572 184.671 14.2245C185.499 14.4908 186.337 14.7626 187.185 15.0292C188.032 15.2982 188.892 15.5567 189.758 15.8093C190.628 16.0533 191.504 16.2959 192.394 16.501C192.836 16.6106 193.285 16.7012 193.733 16.7967C193.956 16.8468 194.183 16.8817 194.408 16.9253C194.634 16.9643 194.858 17.0121 195.085 17.0445C195.54 17.1119 195.992 17.189 196.449 17.2352C196.677 17.26 196.905 17.2911 197.133 17.3115C197.362 17.329 197.591 17.347 197.82 17.3649C197.934 17.3728 198.048 17.3845 198.163 17.3893L198.506 17.402C198.736 17.4102 198.964 17.4184 199.192 17.4266C199.419 17.4283 199.644 17.4303 199.869 17.4319C200.095 17.4343 200.32 17.4356 200.545 17.432C200.77 17.4299 200.995 17.4281 201.219 17.4259C201.444 17.4189 201.668 17.4122 201.892 17.4056L202.228 17.3947L202.564 17.3752C202.787 17.3606 203.011 17.3529 203.234 17.3331C204.125 17.2659 205.01 17.1455 205.877 16.9648C205.985 16.9409 206.093 16.917 206.201 16.893C206.309 16.8684 206.417 16.8473 206.523 16.8157C206.736 16.7565 206.948 16.6975 207.16 16.6386C207.368 16.5686 207.576 16.4983 207.782 16.4287C207.886 16.3954 207.988 16.3545 208.088 16.3133C208.189 16.2728 208.289 16.2322 208.39 16.1914C208.49 16.1491 208.592 16.1134 208.689 16.0663C208.787 16.0203 208.884 15.9742 208.981 15.9285C209.175 15.8368 209.37 15.7481 209.554 15.6422C209.74 15.5394 209.928 15.4431 210.108 15.3358C210.287 15.2261 210.465 15.1164 210.642 15.0077C210.731 14.9548 210.815 14.8956 210.9 14.8371C210.985 14.779 211.069 14.7208 211.154 14.663C211.238 14.6049 211.322 14.5471 211.406 14.4893C211.49 14.4316 211.568 14.3682 211.649 14.308C211.81 14.1866 211.97 14.0655 212.128 13.9451C212.208 13.8825 212.287 13.8143 212.365 13.7497C212.444 13.6843 212.523 13.6192 212.597 13.549C212.672 13.4798 212.746 13.411 212.821 13.3425C212.894 13.2733 212.964 13.1997 213.034 13.1284C213.179 12.9876 213.307 12.8348 213.44 12.6871C213.696 12.3835 213.937 12.0734 214.145 11.7485C214.362 11.428 214.543 11.0921 214.713 10.7576C214.872 10.4176 215.021 10.078 215.132 9.73057C215.606 8.35109 215.651 6.9277 215.361 5.70635Z" fill="#383838"/>
<path d="M220.391 6.23958C220.228 6.10334 219.924 6.1643 219.57 6.37783C219.214 6.59067 218.813 6.95433 218.445 7.40515C218.075 7.85806 217.372 8.94766 216.678 9.86163C216.332 10.321 215.984 10.7337 215.717 11.0328C215.585 11.1867 215.472 11.3069 215.397 11.3986C215.322 11.4903 215.286 11.5518 215.299 11.5725C215.31 11.5905 215.379 11.5784 215.493 11.5413C215.607 11.5039 215.769 11.4434 215.956 11.3489C216.335 11.1689 216.828 10.8718 217.318 10.5092C218.303 9.78713 219.274 8.83341 219.648 8.37633C220.024 7.91613 220.287 7.44765 220.42 7.06414C220.552 6.68028 220.556 6.37652 220.391 6.23958Z" fill="#383838"/>
<path d="M226.449 11.0908C226.452 10.8266 226.171 10.583 225.71 10.409C225.25 10.2336 224.604 10.1302 223.885 10.1583C223.526 10.1709 222.942 10.246 222.273 10.3865C221.605 10.5267 220.854 10.7408 220.174 11.0113C219.493 11.2789 218.887 11.5993 218.476 11.8812C218.267 12.0143 218.109 12.1468 218.003 12.2413C217.896 12.337 217.844 12.4026 217.858 12.4299C217.87 12.4538 217.954 12.4535 218.093 12.4346C218.234 12.4172 218.425 12.3736 218.662 12.3378C219.131 12.2499 219.766 12.1598 220.438 12.111C221.782 12.0025 223.285 12.0985 223.962 12.0754C225.308 12.0254 226.445 11.6259 226.449 11.0908Z" fill="#383838"/>
<path d="M215.567 14.3857C215.567 14.3857 215.261 14.5634 214.731 14.8704C214.193 15.1798 213.405 15.6085 212.417 16.0917C211.421 16.5606 210.227 17.0857 208.866 17.559C207.504 18.0292 205.979 18.4443 204.354 18.7283C202.73 19.0128 201.158 19.1262 199.727 19.0944C199.637 19.0937 199.548 19.0961 199.46 19.0933C199.371 19.088 199.284 19.0828 199.197 19.0775C199.023 19.0674 198.851 19.0576 198.681 19.0482C198.512 19.0359 198.342 19.0365 198.179 19.0149C198.016 18.996 197.854 18.9776 197.695 18.9591C197.378 18.921 197.065 18.8971 196.781 18.8417C196.637 18.82 196.495 18.7907 196.356 18.76C196.217 18.7314 196.081 18.7031 195.947 18.6696C195.414 18.5443 194.927 18.4106 194.493 18.3088C194.277 18.2566 194.075 18.2112 193.886 18.1748C193.7 18.1339 193.526 18.1078 193.37 18.0844C193.213 18.0576 193.081 18.0459 192.969 18.0148C192.859 17.985 192.748 17.9473 192.664 17.9559C192.578 17.9604 192.516 17.9817 192.477 17.9971C192.437 18.0118 192.417 18.0195 192.417 18.0195C192.417 18.0195 192.438 18.0163 192.48 18.0099C192.521 18.0035 192.583 17.995 192.661 18.0065C192.741 18.0163 192.82 18.0631 192.931 18.1175C192.987 18.1443 193.05 18.169 193.118 18.192C193.184 18.215 193.253 18.239 193.327 18.2644C193.473 18.3144 193.635 18.3682 193.809 18.439C193.985 18.5049 194.174 18.5808 194.377 18.6657C194.784 18.8319 195.243 19.0347 195.771 19.2358C195.902 19.288 196.04 19.3361 196.18 19.3844C196.321 19.4345 196.466 19.4836 196.618 19.5256C196.921 19.623 197.234 19.6832 197.56 19.7579C197.724 19.7941 197.89 19.8309 198.058 19.8677C198.227 19.907 198.401 19.9234 198.577 19.9525C198.754 19.9783 198.933 20.0043 199.114 20.0307C199.205 20.0439 199.297 20.0568 199.389 20.0699C199.481 20.08 199.575 20.0852 199.669 20.0929C201.169 20.2405 202.844 20.1963 204.559 19.8956C206.275 19.5963 207.858 19.0848 209.231 18.4906C210.606 17.8925 211.77 17.2158 212.712 16.6068C213.647 15.9825 214.361 15.4244 214.838 15.022C215.3 14.619 215.567 14.3857 215.567 14.3857Z" fill="#383838"/>
<path d="M221.29 16.5358C221.514 16.3961 221.619 16.1069 221.571 15.768C221.526 15.4294 221.337 15.0484 221.015 14.7319C220.853 14.5742 220.556 14.3536 220.172 14.146C219.791 13.9392 219.32 13.7417 218.823 13.6554C218.576 13.6123 218.322 13.5996 218.087 13.632C217.851 13.6643 217.639 13.7416 217.49 13.8477C217.341 13.9507 217.252 14.0639 217.208 14.1493C217.165 14.2381 217.157 14.2936 217.177 14.316C217.214 14.3612 217.405 14.2844 217.643 14.3161C217.879 14.3406 218.14 14.4838 218.4 14.7042C218.66 14.9225 218.914 15.2102 219.131 15.4727C219.349 15.7341 219.529 15.97 219.659 16.097C220.179 16.6019 220.836 16.8075 221.29 16.5358Z" fill="#383838"/>
</svg>
