<svg width="54" height="49" viewBox="0 0 54 49" fill="none" xmlns="http://www.w3.org/2000/svg">
<path d="M44.8115 47.2369C43.3534 46.1542 42.4998 44.5582 42.1399 42.9748C41.7813 41.3718 41.9205 39.7984 42.2636 38.4063C42.6109 37.0057 43.1565 35.7669 43.7682 34.6687C44.3827 33.5705 45.0745 32.6228 45.779 31.8283C47.1879 30.2323 48.6067 29.241 49.622 28.6617C50.647 28.0865 51.2742 27.9009 51.3206 27.9909C51.3783 28.0964 50.8552 28.4676 49.9749 29.1777C49.1017 29.892 47.8629 30.9663 46.655 32.5497C46.0503 33.3371 45.4612 34.2539 44.9437 35.2917C44.4291 36.328 43.9721 37.4909 43.7035 38.7395C43.4349 39.9826 43.3604 41.3311 43.6697 42.6177C43.9777 43.8973 44.6864 45.153 45.7663 45.9474C46.8111 46.7461 48.2369 46.9725 49.3998 46.6238C49.6909 46.5394 49.9665 46.4213 50.2097 46.2652C50.4586 46.1077 50.678 45.9376 50.8552 45.7239C51.2222 45.3062 51.4682 44.7691 51.5653 44.2249C51.7776 43.138 51.3614 42.0299 50.5669 41.5898C49.7682 41.1033 48.677 41.1258 47.9838 41.5293C47.6266 41.7248 47.3693 42.0102 47.1964 42.3294C47.0332 42.6542 46.977 43.0044 47.0276 43.2912C47.0557 43.4389 47.1021 43.5626 47.1753 43.6681C47.247 43.7778 47.344 43.872 47.4495 43.9409C47.6618 44.0829 47.8938 44.1251 48.0808 44.0801C48.2524 44.0421 48.4042 43.9043 48.4914 43.7553C48.5828 43.6062 48.6152 43.4515 48.6208 43.3292C48.6292 43.0789 48.5238 42.9383 48.5716 42.8975C48.5955 42.8638 48.8106 42.9158 48.94 43.2715C48.9948 43.4445 49.0145 43.6807 48.9316 43.9395C48.8514 44.1926 48.6672 44.4977 48.296 44.6665C47.943 44.8253 47.4832 44.8085 47.0825 44.613C46.88 44.516 46.6887 44.3754 46.5242 44.1884C46.3569 43.9999 46.2317 43.7595 46.1586 43.512C46.0096 43.0058 46.056 42.4419 46.2613 41.9216C46.475 41.4014 46.8645 40.9008 47.389 40.5633C47.9093 40.2174 48.5392 40.0205 49.2001 39.9896C49.8596 39.9601 50.5683 40.0712 51.2236 40.4325C51.5568 40.5985 51.8549 40.8558 52.1291 41.1412C52.3738 41.4365 52.603 41.7627 52.7492 42.1298C52.9025 42.4911 53.0108 42.8778 53.0488 43.273C53.0966 43.6681 53.0867 44.0702 53.0234 44.4668C52.9039 45.2612 52.5763 46.0501 52.0223 46.7166C51.7495 47.0541 51.4036 47.3424 51.0422 47.5758C50.678 47.8162 50.2772 47.999 49.861 48.127C48.1989 48.6444 46.2753 48.3365 44.8115 47.2369Z" fill="#383838"/>
<path d="M48.3972 27.4707C49.1438 26.454 49.5868 25.249 49.7668 24.0453C49.9594 22.8402 49.8807 21.6352 49.6346 20.537C49.1284 18.3307 47.8572 16.5604 46.3962 15.7786C45.6819 15.3905 44.9212 15.2203 44.2547 15.2105C43.5839 15.188 43.0074 15.3216 42.5588 15.4833C41.6561 15.8207 41.2596 16.2609 41.1625 16.1737C41.1218 16.1399 41.171 15.9937 41.3341 15.7547C41.5056 15.524 41.8066 15.2077 42.2861 14.9208C42.7641 14.6396 43.4208 14.3823 44.2195 14.3148C45.014 14.2346 45.9547 14.3415 46.9024 14.7633C47.8333 15.1795 48.729 15.8995 49.4462 16.8346C50.1675 17.7697 50.7286 18.9086 51.0689 20.177C51.3979 21.4467 51.5244 22.8445 51.322 24.2703C51.1321 25.6919 50.6175 27.1543 49.6936 28.4142C48.7867 29.6755 47.5113 30.6697 46.0348 31.1126C45.3051 31.3334 44.5078 31.3952 43.7597 31.2687C43.0144 31.1492 42.3142 30.8609 41.7222 30.4292C41.126 29.9989 40.6535 29.4168 40.3779 28.7404C40.1136 28.0641 40.0657 27.361 40.1824 26.7156C40.2963 26.0688 40.5804 25.4655 41.0079 24.9987C41.2146 24.761 41.4691 24.574 41.732 24.4179C42.009 24.2675 42.2973 24.1676 42.5827 24.1198C43.155 24.02 43.6936 24.1114 44.1576 24.2829C44.6231 24.4573 45.0182 24.7385 45.305 25.0802C45.5961 25.4219 45.7649 25.8255 45.8211 26.2037C45.8745 26.589 45.8141 26.9335 45.7086 27.2148C45.4991 27.7857 45.1054 28.1006 44.8242 28.2145C44.5345 28.3312 44.3686 28.2933 44.3601 28.2455C44.3433 28.1878 44.474 28.1133 44.6498 27.9431C44.8213 27.7744 45.0379 27.4791 45.1082 27.0446C45.1447 26.8309 45.1419 26.5876 45.0716 26.3556C44.9971 26.1208 44.8607 25.8874 44.6484 25.6919C44.2392 25.2968 43.4883 25.0605 42.8091 25.2321C42.1553 25.3783 41.5942 26.0645 41.4972 26.9209C41.4424 27.3441 41.5042 27.8011 41.6786 28.1963C41.8586 28.5815 42.1707 28.9556 42.5771 29.2227C42.9793 29.4969 43.4728 29.6868 43.9903 29.7543C44.5064 29.8274 45.0421 29.7782 45.5807 29.608C46.6507 29.2706 47.6674 28.4944 48.3972 27.4707Z" fill="#383838"/>
<path d="M2.42455 7.85912C3.21903 8.93904 4.47473 9.64774 5.75432 9.95568C7.04095 10.265 8.38944 10.1905 9.63248 9.92194C10.8825 9.65336 12.0454 9.19636 13.0804 8.68171C14.1181 8.16425 15.0349 7.57507 15.8224 6.97043C17.4057 5.76255 18.48 4.52513 19.1943 3.65192C19.9058 2.77026 20.2756 2.24717 20.3811 2.30482C20.4711 2.35123 20.2869 2.97837 19.7104 4.00345C19.131 5.01869 18.1397 6.4389 16.5437 7.84646C15.7492 8.55094 14.8015 9.24276 13.7033 9.85725C12.6065 10.4689 11.3663 11.0159 9.96574 11.3618C8.57365 11.7049 7.00017 11.8455 5.39716 11.487C3.81524 11.1256 2.21926 10.2721 1.13512 8.81389C0.730152 8.27674 0.415176 7.64819 0.235189 7.00699C0.048172 6.36438 -0.0319843 5.70068 0.0116062 5.04541C0.053791 4.39014 0.204254 3.74191 0.481266 3.14851C0.759684 2.55653 1.15902 2.01797 1.66383 1.59753C2.66782 0.765092 3.93195 0.447303 5.11171 0.578075C5.7037 0.646976 6.28022 0.841024 6.77518 1.15881C7.26874 1.46676 7.69059 1.92516 7.94792 2.41591C8.46819 3.41006 8.48928 4.48717 8.20946 5.39976C7.9212 6.31376 7.23499 7.07308 6.43489 7.37118C5.66151 7.67772 4.75173 7.61023 4.17099 7.08854C3.62119 6.59639 3.4651 5.84832 3.71118 5.3168C3.88413 4.94839 4.18787 4.77121 4.43958 4.69106C4.69831 4.61232 4.93312 4.6306 5.10327 4.68684C5.45621 4.81761 5.50824 5.02994 5.47449 5.05525C5.43512 5.10166 5.29451 4.9976 5.04562 5.00463C4.92328 5.00885 4.77001 5.04119 4.62096 5.13118C4.47331 5.21696 4.3327 5.36742 4.29333 5.53756C4.21599 5.81035 4.36082 6.21673 4.69548 6.44593C5.00343 6.66529 5.54199 6.68217 6.03274 6.43469C6.52208 6.19564 6.90596 5.70489 7.07047 5.06931C7.22374 4.43514 7.14922 3.66738 6.78784 3.06696C6.44474 2.47497 5.75995 2.07843 4.96407 2.01656C4.17662 1.95188 3.28091 2.20921 2.65376 2.76745C2.34301 3.03743 2.08708 3.39319 1.90288 3.79816C1.72148 4.20453 1.62023 4.66153 1.59492 5.13259C1.56821 5.60506 1.63149 6.09159 1.76929 6.55561C1.90569 7.02527 2.12082 7.45555 2.42455 7.85912Z" fill="#383838"/>
<path d="M19.9579 3.93171C21.2192 3.00927 22.6802 2.49322 24.1018 2.30339C25.5276 2.1009 26.9253 2.22745 28.1951 2.55649C29.4634 2.89678 30.6024 3.45783 31.5375 4.17919C32.4726 4.89632 33.1925 5.79204 33.6088 6.72432C34.0306 7.67066 34.1375 8.61278 34.0573 9.40585C33.9898 10.2045 33.7325 10.8612 33.4513 11.3393C33.1658 11.8188 32.848 12.1211 32.6174 12.2913C32.3784 12.4544 32.2321 12.505 32.1998 12.4628C32.1112 12.3658 32.5513 11.9693 32.8888 11.0679C33.0505 10.6179 33.1841 10.0414 33.1616 9.37069C33.1518 8.70418 32.983 7.94345 32.5935 7.22913C31.8117 5.76814 30.0428 4.49698 27.8365 3.99076C26.7369 3.74469 25.5318 3.66594 24.3268 3.85859C23.1245 4.03857 21.918 4.48292 20.9028 5.22818C19.8791 5.95797 19.1015 6.97461 18.764 8.04469C18.5939 8.58325 18.5447 9.12039 18.6178 9.63505C18.6867 10.1539 18.8751 10.6461 19.1493 11.0482C19.4179 11.4546 19.7905 11.7668 20.1772 11.9468C20.5709 12.1211 21.0279 12.1844 21.4512 12.1281C22.3075 12.0311 22.9937 11.4701 23.14 10.8162C23.3115 10.137 23.0753 9.38616 22.6802 8.97697C22.4847 8.76464 22.2527 8.62824 22.0165 8.55372C21.7845 8.48341 21.5412 8.4806 21.3289 8.51716C20.8929 8.58887 20.5977 8.80542 20.4289 8.97556C20.2588 9.15133 20.1857 9.2821 20.1266 9.26663C20.0788 9.25679 20.0408 9.09087 20.1575 8.8012C20.2714 8.51997 20.5878 8.12625 21.1573 7.91673C21.4399 7.81268 21.783 7.75081 22.1683 7.80424C22.548 7.86049 22.9501 8.03063 23.2918 8.3203C23.6349 8.60715 23.9148 9.00369 24.0891 9.46771C24.2607 9.93174 24.3521 10.4717 24.2522 11.0426C24.2044 11.328 24.1046 11.6177 23.9541 11.8933C23.7981 12.1563 23.611 12.4108 23.3734 12.6175C22.9066 13.045 22.3033 13.329 21.6579 13.4429C21.0111 13.561 20.308 13.5118 19.6316 13.2474C18.9553 12.9718 18.3731 12.4994 17.9442 11.9032C17.5112 11.3112 17.2229 10.6109 17.1034 9.86566C16.9782 9.11758 17.0387 8.3217 17.2595 7.59051C17.7024 6.11405 18.6965 4.83867 19.9579 3.93171Z" fill="#383838"/>
<path d="M39.7437 12.8791C39.7437 12.8791 39.8126 12.7089 39.9336 12.4137C40.0587 12.1184 40.2415 11.7007 40.496 11.2058C40.7534 10.7108 41.0824 10.1371 41.5338 9.55355C41.9809 8.97 42.5631 8.3766 43.2872 7.89289C43.6374 7.65244 44.0761 7.4373 44.5008 7.27699C44.9324 7.12513 45.3782 7.01686 45.8239 6.96905C46.7126 6.87062 47.6027 7.00842 48.3255 7.34027C49.0497 7.67353 49.5784 8.21208 49.7893 8.72955C50.0002 9.25826 49.9032 9.72651 49.5952 10.0598C49.5952 10.0598 49.5488 10.0977 49.4617 10.1427C49.3759 10.1877 49.2451 10.2383 49.0848 10.2763C48.7656 10.3494 48.3353 10.3776 47.839 10.3508C47.583 10.341 47.3018 10.3101 46.9264 10.2749C46.5551 10.2383 46.0799 10.2018 45.478 10.2383C45.4021 10.2454 45.3248 10.251 45.246 10.2566C45.1673 10.2665 45.0871 10.2777 45.0056 10.2876C44.8467 10.3143 44.6737 10.3438 44.474 10.3972C44.0845 10.4957 43.65 10.6419 43.1691 10.8571C42.2059 11.2761 41.0697 11.9932 39.7437 12.8791Z" fill="#383838"/>
<path d="M37.5164 11.6852C37.5164 11.6852 37.5207 11.6374 37.5305 11.546C37.5361 11.4546 37.5586 11.3281 37.5628 11.1607C37.5867 10.8317 37.5797 10.3621 37.508 9.83053C37.3828 8.76467 36.8668 7.46398 36.0962 6.54014C35.3383 5.60224 34.3582 4.99619 33.5947 4.46888C33.208 4.20312 32.8677 3.9486 32.5949 3.63925C32.3235 3.33693 32.1154 2.98117 32.0479 2.51574C32.0479 2.51574 32.0367 2.2781 32.242 2.00109C32.4473 1.7297 32.9015 1.38941 33.8562 1.41894C34.3287 1.44003 34.9249 1.56518 35.5999 1.90406C36.272 2.24154 37.0285 2.79978 37.6978 3.68847C38.3615 4.57012 38.9099 5.83284 38.9662 7.28118C38.9943 8.00394 38.9156 8.77029 38.6793 9.52961C38.5654 9.90927 38.4051 10.2847 38.2181 10.6503C38.0198 11.0131 37.7864 11.3618 37.5164 11.6852Z" fill="#383838"/>
<path d="M39.7817 9.2357C39.7817 9.2357 39.8563 8.62965 40.0222 7.73815C40.1909 6.84665 40.4412 5.68095 40.8307 4.53072L40.9081 4.31277L41.0023 4.07654C41.0163 4.03998 41.0684 3.95139 41.1007 3.89233L41.1162 3.86843C41.119 3.8628 41.1556 3.81359 41.1766 3.78827C41.2245 3.72781 41.2779 3.67016 41.3341 3.61673C41.358 3.59282 41.3285 3.61954 41.3271 3.61954L41.3046 3.64063L41.2596 3.68281L41.2484 3.69406C43.1495 5.42222 41.7489 4.14684 42.161 4.52088L42.0639 4.43229C41.9992 4.37323 41.9332 4.31699 41.8643 4.26215C41.7293 4.15106 41.5887 4.04841 41.4424 3.9528C41.3693 3.90499 41.2948 3.85858 41.2202 3.81499L41.1626 3.78124C41.1612 3.78265 41.1598 3.78546 41.1584 3.78687L41.1598 3.78265L41.1696 3.7489L41.1921 3.68422C41.2905 3.44096 41.4059 3.17801 41.5268 2.93334C41.77 2.43415 42.0414 1.98278 42.3438 1.61999C42.947 0.894421 43.674 0.527416 44.5402 0.846611C44.5402 0.846611 45.3937 1.25721 45.2292 2.51712C45.142 3.15129 44.8186 3.98092 43.958 5.11427C43.8989 5.19021 43.8385 5.26754 43.7766 5.34629C43.7358 5.3941 43.6965 5.44472 43.6571 5.49393L43.5868 5.58112L43.501 5.68095C43.4813 5.70345 43.4138 5.77235 43.359 5.82016L43.3365 5.83985C43.5179 6.06483 41.6379 3.93592 42.4464 4.84992C42.4619 4.86679 42.4773 4.88226 42.4942 4.89773C42.5266 4.92866 42.5631 4.95538 42.6011 4.98069C42.6194 4.99194 42.639 5.00459 42.6587 5.01444C42.663 5.01444 42.6784 5.02428 42.7276 5.06225L42.8429 5.15083L43.3112 5.49815L43.5066 5.63877V5.63736L43.5052 5.63455C43.5024 5.63174 43.5052 5.61908 43.4869 5.64158L43.4026 5.73298C43.3421 5.80188 43.2788 5.87219 43.2142 5.94531C42.947 6.24341 42.6433 6.57245 42.303 6.91836C41.6224 7.61159 40.7914 8.38216 39.7817 9.2357Z" fill="#383838"/>
<path d="M28.2513 24.1648C28.2513 24.1648 28.6549 23.892 29.4732 23.5616C30.293 23.2339 31.5304 22.8557 33.1911 22.663C33.1911 22.663 33.845 20.8927 34.9994 18.5332C35.5717 17.3506 36.2607 16.0148 36.961 14.6606C37.6627 13.3065 38.3601 11.9369 39.0407 10.6869C39.0407 10.6869 38.9521 10.7923 38.7904 10.985C38.6273 11.1762 38.3967 11.456 38.0915 11.7837C37.4925 12.4488 36.6263 13.3248 35.5956 14.2135C34.5663 15.1064 33.3795 16.0218 32.1998 16.8599C31.02 17.6979 29.8529 18.4615 28.8574 19.0042C28.8574 19.0042 28.8841 21.8531 28.2513 24.1648Z" fill="#383838"/>
<path d="M38.8157 24.8552C38.8157 24.8552 38.8284 24.7695 38.8748 24.6092C38.9254 24.4489 38.9985 24.2154 39.1504 23.9244C39.4485 23.3464 40.0222 22.5309 41.1007 21.7828C41.1007 21.7828 40.9207 21.5677 40.6564 21.1585C40.4004 20.7493 40.0728 20.1362 39.8225 19.353C39.5764 18.574 39.4189 17.6262 39.4597 16.6419C39.4977 15.6604 39.741 14.6466 40.1909 13.8085C40.1909 13.8085 40.1276 13.8774 40.0152 14.0026C39.9041 14.1291 39.7241 14.3035 39.5328 14.5425C39.1236 15.0066 38.6062 15.697 38.0775 16.5337C37.5502 17.3703 37.0327 18.3602 36.594 19.3755C36.151 20.3879 35.7897 21.4228 35.4508 22.2918C35.4508 22.2918 35.9458 22.6729 36.6249 23.196C37.2928 23.7106 38.152 24.304 38.8157 24.8552Z" fill="#383838"/>
<path d="M25.3322 14.4258C25.3322 14.4258 25.3954 14.4765 25.5122 14.5918C25.6289 14.7028 25.7962 14.8941 26.0226 15.1444C26.4796 15.6422 27.1574 16.438 28.2317 17.5348C28.2317 17.5348 28.3216 17.487 28.4862 17.4027C28.6507 17.3141 28.8883 17.2016 29.1738 17.0371C29.7461 16.7136 30.5082 16.2327 31.2802 15.6267C32.055 15.015 32.8326 14.274 33.5202 13.4992C34.212 12.723 34.811 11.9173 35.351 11.1847C35.351 11.1847 35.2779 11.2353 35.1443 11.3295C35.0065 11.4181 34.8265 11.5615 34.5692 11.6965C34.084 11.9946 33.3557 12.311 32.5415 12.5135C31.7259 12.7146 30.8147 12.7778 29.9907 12.6597C29.1667 12.5444 28.4398 12.2491 27.9406 11.8695C27.9406 11.8695 27.8871 11.9876 27.7803 12.1788C27.6734 12.3644 27.5103 12.6457 27.2895 12.9213C26.8508 13.4964 26.1393 14.1249 25.3322 14.4258Z" fill="#383838"/>
</svg>
