<svg width="336" height="15" viewBox="0 0 336 15" fill="none" xmlns="http://www.w3.org/2000/svg">
<path d="M332.454 9.10095C331.296 9.44651 330.207 9.70491 329.189 9.87924C328.167 10.0505 327.266 10.2466 326.478 10.4614C325.69 10.6762 325.155 11.1743 324.878 11.9526C324.695 11.2615 324.137 10.5673 323.212 9.87924C322.284 9.185 321.312 8.62464 320.291 8.19502C320.755 8.62464 321.009 9.14453 321.055 9.74848C321.102 10.3524 320.892 10.8723 320.431 11.3051C319.873 11.9962 319.479 12.5348 319.249 12.9239C319.015 13.3131 319.272 13.8081 320.014 14.4152C319.089 14.2408 318.508 13.7676 318.277 12.9893C318.044 12.211 318.161 11.4763 318.625 10.7852C319.179 10.0941 318.945 9.27217 317.927 8.32265C317.65 8.83944 317.139 9.10095 316.398 9.10095C315.473 9.10095 314.872 8.79587 314.591 8.19502H21.4084C20.9456 8.79898 20.344 9.10095 19.6011 9.10095C18.8602 9.10095 18.3497 8.83944 18.0722 8.32265C17.0532 9.27529 16.8208 10.0941 17.3767 10.7852C17.8418 11.4794 17.9567 12.211 17.7246 12.9893C17.4946 13.7676 16.914 14.2439 15.9864 14.4152C16.7293 13.8112 16.9841 13.3131 16.751 12.9239C16.521 12.5348 16.126 11.9962 15.5694 11.3051C14.9223 10.5268 14.8288 9.61773 15.2916 8.58104C14.2729 9.18811 13.3694 9.86058 12.5808 10.5922C11.7948 11.3269 11.3077 11.9122 11.121 12.3418C10.8429 11.5635 10.3107 11.0685 9.52274 10.8506C8.73611 10.6358 7.83261 10.4178 6.81126 10.203C5.79257 9.98822 4.68074 9.72671 3.47508 9.42473C2.27176 9.12275 1.11184 8.49699 0 7.54436C1.20533 6.682 2.38728 6.07805 3.54453 5.72937C4.70444 5.38692 5.79257 5.12852 6.81126 4.95418C7.83261 4.77984 8.73611 4.58683 9.52274 4.36891C10.3107 4.1541 10.8429 3.65601 11.121 2.87771C11.3077 3.57195 11.8636 4.26305 12.7891 4.95418C13.717 5.64531 14.6896 6.2057 15.7086 6.63843C15.2462 6.2057 14.9914 5.68891 14.944 5.08184C14.8986 4.47788 15.107 3.96109 15.5694 3.52525C16.126 2.83723 16.521 2.29554 16.751 1.90639C16.9841 1.51724 16.7293 1.02223 15.9864 0.415161C16.914 0.5895 17.4946 1.06583 17.7246 1.84413C17.9567 2.61931 17.8418 3.35403 17.3767 4.04515C16.8208 4.73939 17.0532 5.55815 18.0722 6.50767C18.3497 5.99088 18.8602 5.72937 19.6011 5.72937C20.5283 5.72937 21.1303 6.03447 21.4084 6.63843H314.591C315.055 6.03447 315.656 5.72937 316.398 5.72937C317.139 5.72937 317.65 5.99088 317.927 6.50767C318.945 5.55504 319.179 4.73628 318.625 4.04515C318.161 3.35403 318.044 2.61931 318.277 1.84413C318.508 1.06583 319.089 0.586386 320.014 0.415161C319.272 1.01912 319.015 1.51724 319.249 1.90639C319.479 2.29554 319.873 2.83412 320.431 3.52525C321.079 4.30354 321.172 5.21259 320.708 6.24928C321.726 5.64221 322.631 4.97288 323.419 4.24128C324.204 3.50345 324.695 2.92129 324.878 2.48856C325.155 3.26686 325.69 3.76185 326.478 3.98289C327.266 4.19459 328.167 4.41248 329.189 4.62729C330.207 4.84522 331.319 5.10361 332.524 5.40559C333.73 5.70757 334.888 6.33333 336 7.28597C334.795 8.14832 333.613 8.75227 332.454 9.10095Z" fill="#383838"/>
</svg>
