<svg width="117" height="15" viewBox="0 0 117 15" fill="none" xmlns="http://www.w3.org/2000/svg">
<path d="M100.897 0.61231C101.185 0.947183 101.053 1.45569 100.633 1.55492C100.033 1.71615 99.6008 1.19524 99.9129 0.686727C100.165 0.302243 100.597 0.265035 100.897 0.61231Z" fill="#383838"/>
<path d="M98.2441 0.624735C99.1084 1.33169 98.1 2.64637 97.1037 2.08825C96.5275 1.77819 96.5755 0.78597 97.1877 0.500708C97.6199 0.302265 97.884 0.32707 98.2441 0.624735Z" fill="#383838"/>
<path d="M95.4593 0.55032C95.8915 0.798374 96.0355 1.09604 96.0355 1.70377C96.0355 2.36111 95.5193 2.84482 94.8231 2.84482C93.7547 2.84482 93.1545 1.54254 93.8867 0.785971C94.2709 0.389085 95.0031 0.277461 95.4593 0.55032Z" fill="#383838"/>
<path d="M65.9644 0.562739C66.4926 0.661961 67.573 0.972029 68.3533 1.24489C69.9499 1.80301 70.142 1.79061 70.7782 1.09606C71.1863 0.649558 71.3064 0.637156 71.3064 1.04644C71.3064 1.53015 70.9823 2.07587 70.5741 2.29912C70.19 2.49756 69.4337 2.49756 68.9655 2.28671C68.7374 2.17509 68.7254 2.18749 68.9295 2.47275C69.7578 3.66341 70.0819 4.9781 69.8659 6.21837C69.6018 7.7315 68.7494 8.90975 67.477 9.52989C66.5766 9.96398 64.944 10.0012 64.0917 9.5919C62.7712 8.95937 62.135 7.99196 62.135 6.62766C62.135 4.82927 63.1074 3.83705 64.86 3.83705C65.6283 3.83705 65.7723 3.87426 66.0004 4.12231C66.5766 4.75485 66.1445 5.69746 65.2802 5.69746C64.5239 5.69746 64.1517 5.12693 64.3918 4.35796C64.4999 4.01069 64.3558 4.01069 63.7436 4.33316C62.7352 4.86648 62.2791 6.29279 62.7112 7.49585C63.1074 8.55008 64.4519 9.41827 65.7123 9.41827C67.1529 9.41827 68.3053 8.6493 68.9775 7.24779C69.3977 6.3672 69.4097 6.29279 69.3617 5.30057C69.2776 3.53939 68.4253 2.27431 66.8047 1.48054C64.932 0.575142 62.8433 0.711572 61.0786 1.88983C60.2383 2.43555 59.6021 3.20451 59.1459 4.20913C58.4136 5.78428 58.5937 8.01676 59.5541 9.60431C60.4064 11.0182 61.9189 12.2833 63.5515 12.9654C64.5839 13.3995 64.848 13.3871 65.3882 12.8662C65.6163 12.643 65.6643 12.4693 65.6643 11.8244C65.6643 10.8942 65.7844 10.7578 66.7207 10.6833C67.549 10.6213 67.7051 10.4973 67.7051 9.96398C67.7051 9.46788 67.9091 9.41827 68.2693 9.81515C69.0856 10.7205 68.4493 12.6306 67.1168 13.2755C66.3966 13.6228 66.3366 13.7964 66.9488 13.6972C68.1732 13.4864 69.1336 12.9406 69.6258 12.1965C70.0459 11.5515 70.0939 10.4477 69.7578 9.30664C69.6258 8.83534 69.5057 8.36404 69.5057 8.25241C69.5057 7.66949 70.5981 8.50047 71.0183 9.40586C71.3544 10.1128 71.3784 11.2539 71.0903 11.9484C70.9463 12.2585 70.8862 12.5189 70.9463 12.5189C70.9943 12.5189 71.2944 12.2337 71.5945 11.8864C72.5668 10.7578 72.6629 10.0136 72.1347 7.30981C72.0146 6.66487 71.9066 6.00752 71.9066 5.85869C71.9066 5.54862 72.2307 5.39979 72.6629 5.51142C73.1431 5.64785 73.6593 5.26336 74.3915 4.23394C75.724 2.37353 76.8404 1.43093 78.2569 0.984431C80.0456 0.413907 81.4381 0.910015 82.3384 2.47275C82.4705 2.70841 82.5905 3.00607 82.5905 3.1301C82.5905 3.34094 82.5425 3.32854 82.2184 3.04328C81.15 2.11308 78.6771 3.37815 77.5247 5.4494C77.3446 5.75947 77.0085 6.61526 76.7684 7.37182C76.3242 8.76092 75.5079 10.6213 75.0158 11.3903C74.7036 11.8616 74.8117 11.8368 75.568 11.2291C76.5763 10.4105 77.6927 9.28184 79.3133 7.42143C82.6626 3.589 84.6313 2.06347 87.0082 1.41853C87.9445 1.17047 89.9973 1.17047 90.9336 1.41853C92.7223 1.88983 94.2228 3.11769 94.655 4.45719C94.9671 5.437 94.8711 6.55324 94.4029 7.13617C94.1988 7.39663 93.8987 7.7191 93.7306 7.84312C93.3345 8.14079 92.2661 8.27722 92.014 8.05397C91.7499 7.83072 91.7979 7.68189 92.11 7.68189C92.5062 7.68189 92.6743 7.44624 92.6743 6.90052C92.6743 6.23077 92.8423 5.97032 93.3945 5.82148C94.4269 5.53622 94.619 4.77966 93.9347 3.81225C93.4425 3.11769 92.5182 2.44795 91.5698 2.10067C90.6815 1.7782 88.8569 1.55496 88.4727 1.71619L88.1726 1.84022H88.4607C89.241 1.86502 90.1533 2.84484 89.9973 3.48978C89.9012 3.84945 89.337 4.48199 89.157 4.41998C89.0849 4.39517 88.9769 4.17192 88.9049 3.89907C88.6768 3.08049 88.1246 3.00607 88.1126 3.78744C88.1126 3.92387 88.0045 4.14712 87.8725 4.27115C87.6324 4.49439 87.6324 4.49439 87.7044 4.12231C87.8365 3.44017 86.8281 2.84484 85.5196 2.84484C84.9794 2.84484 84.8114 2.91925 84.0311 3.47737C83.2388 4.0603 80.2497 6.92532 80.3457 7.01214C80.3697 7.03695 80.7659 6.88811 81.234 6.68967C83.2388 5.82148 85.4236 5.99512 87.0682 7.16097C87.8845 7.7563 88.3407 8.51287 87.9925 8.73612C87.9325 8.77332 87.5364 8.73612 87.1042 8.6617C86.0838 8.46326 85.8798 8.59969 85.2195 9.92678C84.5833 11.1794 84.0311 11.6508 83.2028 11.6508C82.6266 11.6508 82.4945 11.5887 81.4141 10.7454C79.8175 9.49268 78.2329 9.76554 75.796 11.688C72.903 13.9577 70.286 14.9995 67.429 14.9995C64.836 14.9995 62.6632 14.0073 60.6224 11.8988C58.2456 9.45547 57.5133 6.40441 58.7017 3.87426C59.9502 1.24489 62.7952 -0.057395 65.9644 0.562739Z" fill="#383838"/>
<path d="M52.2792 0.550303C53.2396 0.773551 53.9598 1.09602 54.6921 1.67895C56.3607 2.98123 57.105 4.63079 56.985 6.73925C56.9489 7.4214 56.8169 8.17796 56.6608 8.64926C55.8445 11.0678 53.1916 13.6351 50.5146 14.5902C49.4102 14.987 47.2494 15.1235 45.9289 14.8754C43.624 14.4537 41.6193 13.4367 38.9303 11.3282C37.8019 10.4353 36.6975 10.0012 35.6411 10.0012C34.9088 10.0136 34.4286 10.212 33.6724 10.8445C32.9641 11.4275 32.4839 11.6507 31.8957 11.6507C31.1514 11.6507 30.5032 11.043 29.891 9.79031C29.3148 8.61205 29.0267 8.43842 28.0303 8.66167C27.286 8.8353 27.13 8.78569 27.13 8.3764C27.13 7.96711 28.0543 7.12373 28.9666 6.68964C30.7313 5.83385 32.2198 5.93307 34.6927 7.02451C35.0289 7.18574 33.7924 5.78424 32.724 4.81683C31.0914 3.3161 30.3471 2.8448 29.6269 2.8448C28.8106 2.8448 28.1383 3.06805 27.7182 3.47734C27.4061 3.775 27.382 3.86182 27.4901 4.17189L27.6101 4.51917L27.31 4.17189C27.142 3.98585 27.0099 3.71299 27.0099 3.58896C27.0099 2.95642 26.4457 3.20448 26.2776 3.91143C26.2056 4.2091 26.0856 4.45715 26.0255 4.45715C25.9655 4.45715 25.7494 4.29592 25.5574 4.09747C25.2933 3.82461 25.2092 3.61377 25.2092 3.26649C25.2092 2.65876 25.8455 2.01382 26.5657 1.88979C27.0219 1.81538 27.0339 1.80297 26.7698 1.70375C26.4217 1.56732 25.1852 1.67895 24.2249 1.927C22.7964 2.27428 21.3918 3.3161 20.9477 4.32072C20.7436 4.80443 20.7436 4.82923 20.9717 5.22612C21.1398 5.51138 21.3438 5.67262 21.728 5.78424C22.3522 5.97028 22.4482 6.09431 22.4482 6.72684C22.4482 7.35938 22.6283 7.68185 22.9884 7.68185C23.3125 7.68185 23.3726 7.79348 23.1445 8.02913C22.7243 8.46322 21.3078 7.96711 20.7916 7.21055C19.9873 6.0447 20.2874 4.2091 21.4999 2.94402C22.5923 1.81538 24.1769 1.23245 26.2296 1.23245C27.6221 1.23245 28.4985 1.43089 29.7229 2.02622C31.5956 2.94402 33.0721 4.2339 35.7251 7.26016C37.5498 9.34381 38.5942 10.398 39.8066 11.3779C40.0827 11.6011 40.3468 11.7747 40.3828 11.7747C40.4309 11.7747 40.2988 11.5143 40.0827 11.2042C39.5665 10.4228 38.8943 8.86011 38.3661 7.21055C37.8379 5.5858 37.2137 4.53157 36.3253 3.81221C34.9808 2.70837 33.7324 2.42311 33.0121 3.04324C32.808 3.22928 32.616 3.34091 32.568 3.3037C32.4239 3.15487 33.0481 2.10064 33.6003 1.56732C34.2126 0.971994 34.7888 0.736343 35.5931 0.736343C37.3577 0.748746 39.0624 1.86499 40.707 4.10988C41.6673 5.39976 41.9434 5.6106 42.5676 5.51138C43.3119 5.39976 43.42 5.5982 43.1799 6.72684C42.6517 9.15777 42.6157 10.1748 43.0358 11.0926C43.2639 11.5763 44.1402 12.5933 44.2483 12.4817C44.2723 12.4569 44.2122 12.2212 44.1042 11.9484C43.66 10.8693 44.0202 9.18258 44.8605 8.42601C45.2446 8.06634 45.7368 7.92991 45.7368 8.16556C45.7368 8.22757 45.6288 8.63686 45.4967 9.07095C45.1606 10.1996 45.0886 10.919 45.2566 11.4771C45.6408 12.7049 46.5771 13.3871 48.2817 13.6972C48.8219 13.784 48.906 13.5731 48.3898 13.4491C47.8976 13.3375 47.0693 12.5561 46.8052 11.9732C46.4211 11.0926 46.5891 9.82752 47.1173 9.61667C47.4054 9.50505 47.4174 9.51745 47.4174 9.87713C47.4174 10.4477 47.5855 10.5717 48.4258 10.6709C49.4702 10.7825 49.6262 10.919 49.5302 11.6879C49.4582 12.3949 49.6382 12.8786 50.0944 13.1266C50.5626 13.3871 50.9347 13.3251 51.9311 12.8414C54.44 11.6135 55.9886 9.7531 56.4207 7.4586C57.009 4.40754 54.9322 1.50531 51.763 0.959592C50.1664 0.686732 48.2817 1.24485 47.1293 2.34869C44.5844 4.76722 45.8929 9.14537 49.2181 9.38102C50.1184 9.45544 51.1148 9.13297 51.763 8.57485C52.1952 8.19036 52.6994 7.16094 52.6994 6.62762C52.6994 5.68502 52.1352 4.668 51.3669 4.25871C50.9467 4.03546 50.5506 4.02306 50.7547 4.2339C50.9947 4.48196 50.9227 5.1269 50.6226 5.42456C50.2745 5.77184 49.5902 5.78424 49.2061 5.46177C48.8099 5.1393 48.8219 4.39514 49.2181 4.06026C49.4702 3.84942 49.6623 3.82461 50.4906 3.86182C51.3189 3.89903 51.5349 3.94864 51.9431 4.24631C53.0835 5.05248 53.4196 6.83847 52.6994 8.14075C51.5229 10.2616 48.1617 10.5097 46.4571 8.59965C46.181 8.28958 45.8088 7.71906 45.6408 7.33458C45.3647 6.72684 45.3167 6.46639 45.3167 5.44937C45.3287 4.17189 45.5327 3.50214 46.181 2.60915C46.4571 2.24947 46.4691 2.19986 46.265 2.28668C46.145 2.33629 45.7608 2.41071 45.4367 2.43551C44.9445 2.48512 44.7765 2.44792 44.4883 2.21226C44.0082 1.81538 43.6 0.736343 43.9361 0.736343C43.9962 0.736343 44.2603 0.922383 44.5004 1.14563C44.7524 1.38128 45.0526 1.60453 45.1726 1.64174C45.3047 1.69135 45.9409 1.54252 46.6732 1.28206C48.0897 0.785954 50.1544 0.364263 51.0068 0.376665C51.3069 0.376665 51.8831 0.463484 52.2792 0.550303Z" fill="#383838"/>
<path d="M20.9478 0.500709C21.6921 0.947206 21.8362 1.87741 21.2599 2.48514C20.9959 2.7456 20.7918 2.84482 20.4677 2.84482C19.2792 2.84482 18.679 1.70377 19.4113 0.860387C19.7834 0.426293 20.5397 0.252655 20.9478 0.500709Z" fill="#383838"/>
<path d="M18.1748 0.624733C19.0391 1.33169 18.0307 2.64637 17.0343 2.08825C16.4581 1.77818 16.5061 0.785968 17.1184 0.500706C17.5505 0.302263 17.8146 0.327068 18.1748 0.624733Z" fill="#383838"/>
<path d="M15.1497 0.500679C15.4018 0.649511 15.4378 1.23244 15.2218 1.45569C15.1377 1.54251 14.9337 1.60452 14.7656 1.60452C14.3574 1.60452 14.1654 1.39367 14.1654 0.959579C14.1654 0.463471 14.6816 0.215417 15.1497 0.500679Z" fill="#383838"/>
<path d="M116.923 0.736325C116.923 0.984379 116.839 0.984379 109.42 0.984379C102.002 0.984379 101.918 0.984379 101.918 0.736325C101.918 0.488271 102.002 0.488271 109.42 0.488271C116.839 0.488271 116.923 0.488271 116.923 0.736325Z" fill="#383838"/>
<path d="M13.205 0.736325C13.205 0.984379 13.1209 0.984379 6.60252 0.984379C0.0841227 0.984379 9.15527e-05 0.984379 9.15527e-05 0.736325C9.15527e-05 0.488271 0.0841227 0.488271 6.60252 0.488271C13.1209 0.488271 13.205 0.488271 13.205 0.736325Z" fill="#383838"/>
<path d="M57.9454 1.97664C58.5336 2.22469 58.5937 3.04327 58.0415 3.41535C57.1891 3.98587 56.3008 2.75801 57.0931 2.11306C57.4412 1.8278 57.5493 1.8154 57.9454 1.97664Z" fill="#383838"/>
<path d="M58.2695 9.93917C58.5456 10.3485 58.4975 10.7329 58.1494 11.0182C57.7653 11.3283 57.4171 11.3531 57.045 11.0802C56.7089 10.8446 56.6849 10.1624 56.997 9.87716C57.3331 9.56709 58.0414 9.6043 58.2695 9.93917Z" fill="#383838"/>
</svg>
