<svg width="328" height="37" viewBox="0 0 328 37" fill="none" xmlns="http://www.w3.org/2000/svg">
<path d="M146.495 20.6058H146.387V20.5504H146.495V20.6058ZM155.607 23.9342C153.907 23.1549 150.891 22.0605 146.547 20.6578V20.6058H146.63C147.951 20.9972 149.184 21.1911 150.326 21.1911C151.399 21.1911 152.612 20.9972 153.97 20.6058C159.115 18.4723 161.689 15.3379 161.689 11.199C161.689 9.59885 161.296 7.97448 160.512 6.3224C158.492 3.00092 155.517 1.34188 151.584 1.34188C149.532 1.34188 147.735 1.8718 146.198 2.94202C143.645 4.85732 142.367 7.35452 142.367 10.4266C142.367 12.6814 143.143 14.5655 144.701 16.0756C146.09 17.3536 147.689 17.9944 149.497 17.9944H149.682C151.166 17.9944 152.559 17.4783 153.862 16.4496C155.095 15.3274 155.712 14.0944 155.712 12.7437C155.712 11.4657 155.294 10.34 154.454 9.35985C153.542 8.45588 152.507 8.00219 151.344 8.00219C150.525 8.00219 149.727 8.23078 148.961 8.69489C147.961 9.56422 147.459 10.676 147.459 12.0267L147.752 12.1029L147.808 11.573C148.309 10.2569 149.128 9.59884 150.274 9.59884H150.755C151.04 9.59884 151.256 9.63695 151.399 9.70968C152.793 10.2569 153.489 11.2336 153.489 12.6398C153.489 13.4537 153.256 14.2642 152.793 15.0642C151.775 16.5362 150.595 17.2739 149.253 17.2739H148.773C148.362 17.2739 147.843 17.1943 147.219 17.035C144.502 15.8989 143.143 13.9525 143.143 11.199C143.143 9.08626 143.725 7.24715 144.885 5.68165C146.69 3.92567 148.78 3.04592 151.159 3.04592C153.838 3.04592 156.053 4.11962 157.802 6.27045C158.802 8.09917 159.303 9.70966 159.303 11.0916C159.303 13.6684 158.223 15.9059 156.06 17.8073C153.775 19.546 151.445 20.4188 149.065 20.4188C146.136 20.4188 143.349 19.068 140.705 16.37C138.381 13.471 137.221 10.7383 137.221 8.1615V7.68006C137.221 7.30947 137.284 6.7761 137.41 6.0834C138.197 3.86331 139.19 2.75152 140.385 2.75152C141.311 2.82426 141.778 3.09789 141.778 3.57931V3.76287C141.778 4.29971 141.538 4.77766 141.053 5.20367C142.091 4.79498 142.607 4.17502 142.607 3.34032C142.607 2.00687 141.59 1.19643 139.555 0.912426C138.5 0.912426 137.479 1.41116 136.497 2.40517C135.427 3.82867 134.891 5.40802 134.891 7.15015C134.961 8.32081 135.121 9.31832 135.372 10.1322C136.319 12.7437 137.096 14.2884 137.702 14.7698V14.8218C136.936 14.1291 135.776 12.9238 134.222 11.199C128.467 4.30664 123.42 0.860474 119.079 0.860474C118.944 0.860474 118.804 0.867378 118.665 0.874306C118.62 0.867378 118.574 0.860474 118.533 0.860474H0.832533C0.372713 0.860474 0 1.23104 0 1.68822C0 2.14887 0.372713 2.51601 0.832533 2.51601H114.196C112.753 3.66243 112.032 5.1275 112.032 6.91119C112.032 7.93985 112.29 8.87152 112.809 9.70968C113.882 11.2163 115.356 11.9713 117.233 11.9713H117.658C120.18 11.4553 121.438 10.392 121.438 8.77454C121.438 8.5979 121.413 8.43857 121.358 8.2931C121.107 7.07049 120.233 6.45745 118.731 6.45745C118.658 6.45745 118.418 6.47477 118.007 6.50941V6.7484C118.007 6.82113 118.052 6.85576 118.142 6.85576H118.919C120.274 6.99776 120.954 7.53114 120.954 8.45589V9.0135C120.954 9.12087 120.891 9.35294 120.769 9.70968C119.999 10.863 118.965 11.4379 117.658 11.4379H117.125C116.909 11.4379 116.669 11.4033 116.397 11.334C114.847 10.6587 114.07 9.58153 114.07 8.10954V7.68006C114.07 7.27137 114.129 6.86615 114.258 6.45745C115.202 4.02262 117.076 2.80696 119.884 2.80696C122.03 2.80696 124.036 3.607 125.914 5.20367C127.468 6.65833 128.603 7.90519 129.317 8.93385C130.854 10.9427 132.254 12.6121 133.522 13.9455C135.703 16.0582 137.455 17.506 138.775 18.2853C140.688 19.5287 142.823 20.5781 145.181 21.4301C150.452 22.8328 153.622 23.7853 154.695 24.2806C157.697 25.4028 159.199 27.1518 159.199 29.5312V29.7702C159.199 31.0309 158.812 32.1427 158.042 33.1021C157.06 34.0961 156.123 34.5914 155.231 34.5914H154.454C153.186 34.1861 152.549 33.4311 152.549 32.3263V31.8483C152.549 30.837 153.124 30.0473 154.266 29.4758L154.21 29.8776C154.392 30.9963 154.907 31.5574 155.768 31.5574H156.14C157.018 31.2353 157.454 30.7538 157.454 30.1166V29.7702L157.401 29.3961C157.098 28.6861 156.579 28.3329 155.848 28.3329H155.66C155.322 28.3329 154.9 28.4125 154.402 28.5718C152.65 29.3892 151.776 30.598 151.776 32.1946C151.776 32.9947 151.971 33.6943 152.364 34.3004C153.329 35.5265 154.426 36.1395 155.66 36.1395H156.008C156.419 36.1395 156.854 36.0772 157.321 35.9525C159.606 35.1871 160.752 33.5974 160.752 31.1833V30.7296C160.752 28.1527 159.035 25.8876 155.607 23.9342Z" fill="url(#paint0_linear_70_129)"/>
<path d="M169.835 22.2028C166.369 19.1288 164.634 15.5067 164.634 11.333C164.634 7.12424 164.394 7.09965 164.394 11.2522C164.394 14.2736 163.44 17.1157 161.528 19.7787C160.348 21.1488 159.546 21.9393 159.115 22.1501C159.133 22.2204 159.437 22.4979 160.027 22.9757C161.027 24.0613 161.885 25.1714 162.599 26.3062C163.832 28.8286 164.45 30.7574 164.45 32.0889H164.5L164.744 30.6485C165.26 28.7514 165.744 27.4796 166.189 26.8402C166.585 25.723 167.8 24.1772 169.835 22.2028Z" fill="#383838"/>
<path d="M182.644 20.6039H182.509V20.5501H182.644V20.6039ZM327.167 0.86068H209.469C209.406 0.86068 209.343 0.869637 209.284 0.883068C205.803 1.12936 201.889 3.53846 197.543 8.11044C194.526 11.4689 192.427 13.7482 191.247 14.9572H191.193L191.972 13.9452C193.364 11.3345 194.062 9.13141 194.062 7.33576V6.85661C194.062 5.88042 193.8 4.7878 193.282 3.57875C192.247 1.80549 190.968 0.914379 189.45 0.914379L189.049 0.968124C187.297 1.32636 186.423 2.09655 186.423 3.28769C186.423 4.06685 186.878 4.70723 187.788 5.20428H187.896C187.432 4.68932 187.198 4.21015 187.198 3.76683C187.288 3.09067 187.707 2.75484 188.459 2.75484C189.067 2.75484 189.603 2.97425 190.067 3.41756C191.229 4.59526 191.81 6.073 191.81 7.86865C191.81 10.233 190.909 12.7541 189.103 15.4364C186.279 18.759 183.252 20.4203 180.019 20.4203C178.037 20.4203 176.096 19.8516 174.204 18.7142C171.218 16.7394 169.728 14.2363 169.728 11.2002C169.728 9.67324 170.201 8.04777 171.151 6.32376C172.88 4.13853 175.114 3.04591 177.848 3.04591C179.667 3.04591 181.428 3.62357 183.126 4.77888C184.914 6.25212 185.806 8.27611 185.806 10.8554V11.442C185.806 12.6108 185.468 13.7213 184.788 14.7691C183.5 16.4394 181.964 17.2768 180.176 17.2768H179.78C179.276 17.2768 178.776 17.1604 178.276 16.9275C176.434 15.9155 175.515 14.5049 175.515 12.6914V12.4496C175.515 12.3108 175.533 12.1317 175.569 11.9212C176.087 10.3763 176.992 9.60158 178.276 9.60158H178.623C179.163 9.60158 179.722 9.78072 180.312 10.1345C180.956 10.8106 181.28 11.4689 181.28 12.1048H181.383C181.455 12.1048 181.492 12.06 181.492 11.9704C181.492 11.1554 181.293 10.3808 180.902 9.65532C180.064 8.55375 179.028 8.00299 177.794 8.00299H177.74C176.866 8.00299 176.024 8.2582 175.222 8.77316C173.952 9.77174 173.317 11.039 173.317 12.5839V12.7451C173.317 13.6855 173.614 14.5856 174.204 15.4364C175.614 17.1425 177.294 17.9933 179.24 17.9933H179.537C180.357 17.9933 181.248 17.8186 182.217 17.4604C185.126 16.0229 186.585 13.7213 186.585 10.5599V10.1882C186.585 9.12247 186.351 7.93133 185.887 6.61929C184.027 3.09963 181.235 1.33978 177.497 1.33978C175.105 1.33978 172.988 1.98909 171.151 3.28769C168.593 5.31171 167.318 7.93131 167.318 11.1465V11.2002C167.318 13.8825 168.417 16.1663 170.61 18.047C173.205 20.1427 175.875 21.1905 178.623 21.1905C179.803 21.1905 181.064 20.9979 182.401 20.6039H182.455V20.6576C178.65 21.9383 176.204 22.7712 175.114 23.1608C170.52 25.1535 168.228 27.7552 168.228 30.9703C168.228 32.0002 168.467 32.9675 168.948 33.872C169.935 35.3856 171.263 36.1379 172.943 36.1379H173.371C173.533 36.1379 173.749 36.1199 174.015 36.0886C176.177 35.3408 177.258 34.0691 177.258 32.2779C177.204 31.7092 177.123 31.2883 177.019 31.0241C176.249 29.2284 174.97 28.3328 173.182 28.3328H172.997C172.227 28.3328 171.736 28.8747 171.52 29.9583C171.718 31.0241 172.236 31.5569 173.078 31.5569H173.236C174.236 31.342 174.74 30.8628 174.74 30.1195V29.5822L174.686 29.4792C175.88 29.9762 176.479 30.827 176.479 32.0361V32.1435C176.479 32.3047 176.465 32.5242 176.425 32.8063C175.997 33.9974 175.258 34.593 174.204 34.593H173.777C173.398 34.593 172.961 34.4676 172.461 34.2213C170.673 33.2989 169.782 31.7719 169.782 29.6404C169.782 27.8984 170.493 26.5282 171.925 25.5341C172.961 24.7012 175.24 23.7922 178.758 22.816C182.009 22.0189 184.405 21.2801 185.941 20.6039C187.725 19.8426 189.522 18.8127 191.328 17.5141C192.364 16.9096 194.035 15.4184 196.341 13.0362L201.241 7.04469C203.637 4.21912 206.271 2.80858 209.149 2.80858C209.739 2.80858 210.478 2.91603 211.37 3.1265C213.766 4.1206 214.964 5.70133 214.964 7.86865C214.964 8.22689 214.919 8.56272 214.829 8.88065C214.221 10.5867 213.203 11.442 211.775 11.442H211.239C209.095 11.1017 208.023 10.1882 208.023 8.69707C208.023 8.55378 208.077 8.27615 208.181 7.86865C208.559 7.19248 209.199 6.85661 210.113 6.85661H210.942L210.996 6.56555V6.5118C210.924 6.5118 210.712 6.49393 210.356 6.4581C210.122 6.4581 209.739 6.4939 209.199 6.56555C208.127 6.95513 207.595 7.66714 207.595 8.69707V8.88065C207.595 9.31053 207.708 9.70906 207.942 10.0807C208.888 11.3435 210.167 11.9704 211.775 11.9704C212.347 11.9704 213.068 11.8405 213.946 11.5719C215.928 10.6136 216.918 9.16722 216.918 7.22827V6.66853C216.918 5.11916 216.225 3.73552 214.847 2.51752H327.167C327.626 2.51752 328 2.15033 328 1.6891C328 1.23235 327.626 0.86068 327.167 0.86068Z" fill="url(#paint1_linear_70_129)"/>
<defs>
<linearGradient id="paint0_linear_70_129" x1="162" y1="0.999991" x2="-2.91338e-07" y2="0.999992" gradientUnits="userSpaceOnUse">
<stop offset="0.485" stop-color="#383838"/>
<stop offset="1" stop-color="#454545" stop-opacity="0"/>
</linearGradient>
<linearGradient id="paint1_linear_70_129" x1="167" y1="1" x2="328" y2="1" gradientUnits="userSpaceOnUse">
<stop offset="0.379545" stop-color="#383838"/>
<stop offset="1" stop-color="#626262" stop-opacity="0"/>
</linearGradient>
</defs>
</svg>
