<svg width="54" height="49" viewBox="0 0 54 49" fill="none" xmlns="http://www.w3.org/2000/svg">
<path d="M9.18836 47.244C10.6465 46.1609 11.5001 44.5644 11.8601 42.9806C12.2186 41.3771 12.0794 39.8032 11.7363 38.4107C11.389 37.0097 10.8434 35.7705 10.2317 34.672C9.61724 33.5734 8.92542 32.6254 8.22093 31.8307C6.81197 30.2342 5.39316 29.2425 4.37792 28.663C3.35284 28.0877 2.72568 27.9021 2.67928 27.9921C2.62163 28.0976 3.14472 28.4689 4.02497 29.1792C4.89819 29.8938 6.13702 30.9684 7.3449 32.5522C7.94955 33.3399 8.53871 34.257 9.05618 35.2951C9.57083 36.3317 10.0278 37.495 10.2964 38.744C10.565 39.9874 10.6395 41.3363 10.3302 42.6234C10.0222 43.9034 9.3135 45.1594 8.23358 45.9542C7.18881 46.7531 5.76298 46.9796 4.60009 46.6307C4.30902 46.5463 4.0334 46.4282 3.79014 46.272C3.54125 46.1145 3.3219 45.9443 3.14472 45.7305C2.77772 45.3128 2.53164 44.7754 2.43462 44.2311C2.22229 43.1438 2.63851 42.0354 3.43298 41.5952C4.23168 41.1085 5.32286 41.131 6.01609 41.5347C6.37325 41.7302 6.63058 42.0157 6.80353 42.335C6.96665 42.6599 7.02289 43.0102 6.97227 43.2971C6.94415 43.4448 6.89775 43.5686 6.82463 43.6741C6.75291 43.7838 6.65589 43.878 6.55043 43.947C6.3381 44.089 6.10608 44.1312 5.91906 44.0862C5.74751 44.0482 5.59564 43.9104 5.50846 43.7613C5.41706 43.6122 5.38472 43.4575 5.37909 43.3351C5.37065 43.0847 5.47612 42.9441 5.42831 42.9033C5.4044 42.8695 5.18927 42.9216 5.05991 43.2774C5.00506 43.4504 4.98537 43.6867 5.06834 43.9456C5.14849 44.1987 5.3327 44.504 5.70392 44.6728C6.05686 44.8317 6.51667 44.8148 6.91743 44.6193C7.11991 44.5223 7.31115 44.3816 7.47567 44.1945C7.643 44.006 7.76815 43.7655 7.84127 43.518C7.99032 43.0116 7.94392 42.4475 7.73863 41.9271C7.52489 41.4067 7.13538 40.9059 6.61089 40.5683C6.09061 40.2223 5.46066 40.0254 4.79977 39.9945C4.14028 39.9649 3.43158 40.076 2.77631 40.4375C2.44305 40.6035 2.14494 40.8609 1.87074 41.1465C1.62607 41.4418 1.39687 41.7682 1.25063 42.1353C1.09736 42.4968 0.989091 42.8836 0.951125 43.2788C0.903316 43.6741 0.913156 44.0764 0.976433 44.473C1.09596 45.2677 1.42359 46.0568 1.97762 46.7236C2.25041 47.0611 2.59633 47.3495 2.95771 47.583C3.3219 47.8235 3.72265 48.0064 4.13888 48.1344C5.80095 48.652 7.72456 48.3439 9.18836 47.244Z" fill="#383838"/>
<path d="M5.60269 27.4717C4.85603 26.4547 4.41308 25.2493 4.2331 24.0452C4.04045 22.8398 4.1192 21.6343 4.36528 20.5358C4.87149 18.3289 6.14265 16.558 7.60365 15.7759C8.31797 15.3877 9.0787 15.2175 9.74521 15.2077C10.4159 15.1852 10.9925 15.3188 11.441 15.4806C12.3438 15.8181 12.7403 16.2584 12.8373 16.1712C12.8781 16.1374 12.8289 15.9911 12.6658 15.752C12.4942 15.5213 12.1933 15.2049 11.7138 14.9179C11.2357 14.6366 10.5791 14.3792 9.78037 14.3117C8.98589 14.2315 8.04518 14.3384 7.09743 14.7604C6.16656 15.1767 5.27085 15.8969 4.55371 16.8323C3.83235 17.7677 3.27129 18.907 2.931 20.1757C2.60196 21.4459 2.47541 22.844 2.6779 24.2703C2.86773 25.6923 3.38238 27.1552 4.30622 28.4155C5.21319 29.6772 6.48857 30.6716 7.96503 31.1147C8.69482 31.3356 9.49211 31.3974 10.2402 31.2708C10.9854 31.1513 11.6857 30.8629 12.2777 30.4311C12.8739 30.0007 13.3464 29.4184 13.622 28.7418C13.8863 28.0652 13.9341 27.362 13.8174 26.7163C13.7035 26.0693 13.4195 25.4659 12.992 24.9989C12.7853 24.7612 12.5308 24.5741 12.2679 24.418C11.9908 24.2675 11.7026 24.1676 11.4171 24.1198C10.8448 24.0199 10.3063 24.1113 9.84224 24.2829C9.37681 24.4574 8.98168 24.7387 8.69483 25.0805C8.40375 25.4223 8.23501 25.826 8.17877 26.2043C8.12533 26.5897 8.1858 26.9344 8.29126 27.2157C8.50078 27.7867 8.89449 28.1018 9.17572 28.2157C9.46539 28.3325 9.63131 28.2945 9.63975 28.2467C9.65662 28.189 9.52586 28.1145 9.35009 27.9443C9.17854 27.7755 8.962 27.4801 8.89169 27.0455C8.85513 26.8317 8.85794 26.5883 8.92824 26.3562C9.00277 26.1213 9.13916 25.8879 9.35149 25.6923C9.76068 25.2971 10.5116 25.0608 11.1907 25.2324C11.8446 25.3787 12.4057 26.0651 12.5027 26.9217C12.5575 27.3451 12.4956 27.8022 12.3213 28.1975C12.1413 28.5829 11.8291 28.957 11.4228 29.2243C11.0206 29.4986 10.527 29.6884 10.0096 29.756C9.49352 29.8291 8.95777 29.7799 8.41921 29.6097C7.34913 29.2721 6.33249 28.4957 5.60269 27.4717Z" fill="#383838"/>
<path d="M51.5755 7.85405C50.781 8.9343 49.5253 9.64322 48.2457 9.95126C46.959 10.2607 45.6105 10.1862 44.3675 9.9175C43.1174 9.64884 41.9545 9.19171 40.9196 8.6769C39.8819 8.15927 38.9651 7.56991 38.1776 6.96508C36.5943 5.75683 35.52 4.51904 34.8057 3.64555C34.0942 2.76362 33.7243 2.24037 33.6189 2.29804C33.5289 2.34446 33.7131 2.9718 34.2896 3.99719C34.8689 5.01275 35.8603 6.4334 37.4563 7.84138C38.2507 8.54608 39.1985 9.23812 40.2967 9.8528C41.3935 10.4647 42.6337 11.0118 44.0342 11.3578C45.4263 11.701 46.9998 11.8417 48.6028 11.483C50.1848 11.1215 51.7807 10.2677 52.8649 8.80911C53.2699 8.2718 53.5848 7.64306 53.7648 7.00165C53.9518 6.35885 54.032 5.69494 53.9884 5.03947C53.9462 4.384 53.7958 3.73557 53.5187 3.14199C53.2403 2.54982 52.841 2.0111 52.3362 1.59053C51.3322 0.757835 50.068 0.439947 48.8883 0.570759C48.2963 0.639682 47.7198 0.833789 47.2248 1.15168C46.7313 1.45972 46.3094 1.91826 46.0521 2.40916C45.5318 3.40362 45.5107 4.48106 45.7905 5.39393C46.0788 6.30821 46.765 7.06776 47.5651 7.36596C48.3385 7.67259 49.2483 7.60508 49.829 7.08324C50.3788 6.59093 50.5349 5.84263 50.2888 5.31094C50.1159 4.94242 49.8121 4.76519 49.5604 4.68501C49.3017 4.60625 49.0669 4.62453 48.8967 4.68079C48.5438 4.81161 48.4918 5.024 48.5255 5.04932C48.5649 5.09573 48.7055 4.99165 48.9544 4.99868C49.0767 5.0029 49.23 5.03525 49.379 5.12527C49.5267 5.21107 49.6673 5.36158 49.7067 5.53178C49.784 5.80465 49.6392 6.21115 49.3045 6.44043C48.9966 6.65985 48.458 6.67674 47.9673 6.42918C47.4779 6.19006 47.094 5.69916 46.9295 5.06338C46.7762 4.42901 46.8508 3.66102 47.2122 3.06041C47.5553 2.46824 48.2401 2.07158 49.0359 2.00969C49.8234 1.94499 50.7191 2.20239 51.3462 2.76081C51.657 3.03087 51.9129 3.38674 52.0971 3.79183C52.2785 4.19834 52.3798 4.65547 52.4051 5.12668C52.4318 5.59929 52.3685 6.08597 52.2307 6.55014C52.0943 7.01994 51.8792 7.45036 51.5755 7.85405Z" fill="#383838"/>
<path d="M34.0421 3.92543C32.7808 3.00272 31.3198 2.4865 29.8982 2.29661C28.4723 2.09406 27.0746 2.22065 25.8049 2.54979C24.5365 2.89019 23.3975 3.45141 22.4625 4.17299C21.5274 4.89035 20.8074 5.78634 20.3912 6.71891C19.9693 7.66554 19.8625 8.60795 19.9426 9.40126C20.0101 10.2002 20.2675 10.8571 20.5487 11.3353C20.8341 11.815 21.1519 12.1174 21.3825 12.2876C21.6216 12.4507 21.7678 12.5014 21.8002 12.4592C21.8887 12.3621 21.4486 11.9655 21.1111 11.0638C20.9494 10.6137 20.8158 10.037 20.8383 9.3661C20.8482 8.69938 21.0169 7.93841 21.4064 7.22387C22.1883 5.76243 23.9572 4.49088 26.1634 3.98451C27.2631 3.73836 28.4681 3.65959 29.6732 3.85229C30.8755 4.03233 32.0819 4.47681 33.0972 5.2223C34.1209 5.95232 34.8985 6.96928 35.2359 8.03969C35.4061 8.57841 35.4553 9.11572 35.3822 9.63053C35.3133 10.1496 35.1249 10.6419 34.8507 11.0441C34.5821 11.4506 34.2095 11.7629 33.8228 11.943C33.429 12.1174 32.972 12.1807 32.5488 12.1244C31.6924 12.0273 31.0062 11.4661 30.86 10.8121C30.6884 10.1327 30.9247 9.38157 31.3198 8.97225C31.5153 8.75986 31.7473 8.62342 31.9835 8.54887C32.2155 8.47854 32.4588 8.47573 32.6711 8.5123C33.107 8.58403 33.4023 8.80065 33.5711 8.97085C33.7412 9.14667 33.8143 9.27748 33.8734 9.26201C33.9212 9.25216 33.9592 9.08619 33.8424 8.79643C33.7285 8.51511 33.4122 8.12127 32.8427 7.91169C32.56 7.8076 32.2169 7.74571 31.8316 7.79916C31.452 7.85542 31.0498 8.02562 30.7081 8.31538C30.365 8.60232 30.0852 8.99898 29.9108 9.46315C29.7393 9.92732 29.6479 10.4674 29.7477 11.0385C29.7955 11.3241 29.8954 11.6138 30.0458 11.8895C30.2019 12.1525 30.3889 12.4071 30.6266 12.6139C31.0934 13.0415 31.6966 13.3256 32.3421 13.4396C32.9889 13.5577 33.692 13.5085 34.3683 13.244C35.0447 12.9684 35.6269 12.4957 36.0557 11.8993C36.4888 11.3072 36.7771 10.6067 36.8966 9.86121C37.0218 9.11291 36.9613 8.31678 36.7405 7.58536C36.2976 6.10845 35.3034 4.83268 34.0421 3.92543Z" fill="#383838"/>
<path d="M14.2562 12.8756C14.2562 12.8756 14.1873 12.7054 14.0663 12.41C13.9412 12.1146 13.7584 11.6968 13.5039 11.2017C13.2465 10.7066 12.9175 10.1327 12.4661 9.54899C12.019 8.96526 11.4368 8.37168 10.7126 7.88781C10.3625 7.64729 9.92379 7.43208 9.49913 7.27173C9.06744 7.11982 8.6217 7.01151 8.17594 6.96369C7.28726 6.86523 6.39716 7.00307 5.67439 7.33502C4.95023 7.66838 4.42152 8.20711 4.21059 8.72473C3.99967 9.2536 4.09669 9.722 4.40464 10.0554C4.40464 10.0554 4.45104 10.0933 4.53823 10.1383C4.624 10.1834 4.75477 10.234 4.91507 10.272C5.23427 10.3451 5.66456 10.3732 6.16093 10.3465C6.41685 10.3367 6.69807 10.3057 7.07352 10.2706C7.44474 10.234 7.92002 10.1974 8.52185 10.234C8.59778 10.241 8.67512 10.2467 8.75387 10.2523C8.83261 10.2621 8.91277 10.2734 8.99433 10.2832C9.15322 10.3099 9.32618 10.3395 9.52585 10.3929C9.91536 10.4914 10.3499 10.6377 10.8308 10.8529C11.794 11.2721 12.9302 11.9894 14.2562 12.8756Z" fill="#383838"/>
<path d="M16.4835 11.6814C16.4835 11.6814 16.4793 11.6335 16.4694 11.5421C16.4638 11.4507 16.4413 11.3241 16.4371 11.1567C16.4132 10.8276 16.4202 10.3578 16.4919 9.82607C16.6171 8.75988 17.1331 7.45879 17.9037 6.53467C18.6616 5.59648 19.6417 4.99024 20.4053 4.46277C20.792 4.19693 21.1322 3.94234 21.405 3.63289C21.6764 3.33047 21.8845 2.97461 21.952 2.50903C21.952 2.50903 21.9633 2.27132 21.758 1.99422C21.5527 1.72275 21.0985 1.38235 20.1437 1.41189C19.6712 1.43299 19.075 1.55818 18.4001 1.89716C17.7279 2.23474 16.9714 2.79316 16.3021 3.68212C15.6384 4.56405 15.09 5.82716 15.0338 7.27594C15.0056 7.99892 15.0844 8.76551 15.3206 9.52506C15.4345 9.90484 15.5948 10.2804 15.7818 10.6461C15.9801 11.009 16.2135 11.3578 16.4835 11.6814Z" fill="#383838"/>
<path d="M14.2182 9.23109C14.2182 9.23109 14.1437 8.62485 13.9777 7.73308C13.809 6.8413 13.5587 5.67525 13.1692 4.52466L13.0919 4.30664L12.9977 4.07033C12.9836 4.03376 12.9316 3.94515 12.8992 3.88607L12.8837 3.86216C12.8809 3.85653 12.8444 3.8073 12.8233 3.78198C12.7755 3.7215 12.722 3.66383 12.6658 3.61038C12.6419 3.58647 12.6714 3.61319 12.6728 3.61319L12.6953 3.63429L12.7403 3.67649L12.7516 3.68774C10.8505 5.41643 12.251 4.14066 11.839 4.51481L11.936 4.4262C12.0007 4.36712 12.0668 4.31086 12.1357 4.256C12.2707 4.14488 12.4113 4.0422 12.5575 3.94656C12.6306 3.89873 12.7052 3.85231 12.7797 3.80871L12.8373 3.77495C12.8388 3.77636 12.8402 3.77917 12.8416 3.78058L12.8402 3.77636L12.8303 3.7426L12.8078 3.6779C12.7094 3.43456 12.5941 3.17153 12.4731 2.92678C12.2299 2.42745 11.9585 1.97593 11.6562 1.61304C11.0529 0.887238 10.326 0.52012 9.45977 0.839415C9.45977 0.839415 8.60623 1.25014 8.77075 2.51043C8.85793 3.1448 9.18135 3.97469 10.0419 5.10839C10.101 5.18435 10.1614 5.26171 10.2233 5.34048C10.2641 5.3883 10.3035 5.43894 10.3428 5.48817L10.4131 5.57538L10.4989 5.67525C10.5186 5.69775 10.5861 5.76667 10.6409 5.8145L10.6634 5.83419C10.482 6.05924 12.3621 3.92968 11.5535 4.84396C11.5381 4.86083 11.5226 4.87631 11.5057 4.89178C11.4734 4.92272 11.4368 4.94945 11.3989 4.97477C11.3806 4.98602 11.3609 4.99868 11.3412 5.00853C11.337 5.00853 11.3215 5.01837 11.2723 5.05635L11.157 5.14496L10.6887 5.49239L10.4933 5.63305V5.63164L10.4947 5.62883C10.4975 5.62602 10.4947 5.61336 10.513 5.63586L10.5973 5.72729C10.6578 5.79621 10.7211 5.86654 10.7858 5.93968C11.0529 6.23788 11.3567 6.56702 11.697 6.91304C12.3775 7.60648 13.2086 8.37729 14.2182 9.23109Z" fill="#383838"/>
<path d="M25.7486 24.1647C25.7486 24.1647 25.3451 23.8919 24.5267 23.5613C23.7069 23.2336 22.4695 22.8552 20.8088 22.6625C20.8088 22.6625 20.155 20.8916 19.0005 18.5314C18.4282 17.3484 17.7392 16.0122 17.0389 14.6577C16.3372 13.3031 15.6398 11.9331 14.9592 10.6826C14.9592 10.6826 15.0478 10.7881 15.2095 10.9808C15.3726 11.1721 15.6032 11.452 15.9084 11.7798C16.5074 12.4451 17.3736 13.3214 18.4043 14.2104C19.4336 15.1035 20.6204 16.0192 21.8002 16.8575C22.9799 17.6959 24.147 18.4596 25.1426 19.0026C25.1426 19.0026 25.1159 21.8523 25.7486 24.1647Z" fill="#383838"/>
<path d="M15.1842 24.8554C15.1842 24.8554 15.1716 24.7696 15.1252 24.6093C15.0745 24.4489 15.0014 24.2154 14.8496 23.9243C14.5514 23.3462 13.9777 22.5303 12.8992 21.782C12.8992 21.782 13.0792 21.5668 13.3436 21.1575C13.5995 20.7482 13.9271 20.1349 14.1774 19.3515C14.4235 18.5722 14.581 17.6242 14.5402 16.6396C14.5022 15.6578 14.259 14.6436 13.809 13.8053C13.809 13.8053 13.8723 13.8742 13.9848 13.9994C14.0959 14.126 14.2759 14.3004 14.4671 14.5395C14.8763 15.0037 15.3937 15.6943 15.9225 16.5313C16.4498 17.3682 16.9672 18.3584 17.4059 19.374C17.8489 20.3867 18.2103 21.4219 18.5491 22.2912C18.5491 22.2912 18.0542 22.6724 17.375 23.1956C16.7071 23.7105 15.8479 24.304 15.1842 24.8554Z" fill="#383838"/>
<path d="M28.6678 14.4228C28.6678 14.4228 28.6045 14.4734 28.4878 14.5887C28.3711 14.6999 28.2037 14.8912 27.9773 15.1415C27.5203 15.6395 26.8426 16.4356 25.7683 17.5327C25.7683 17.5327 25.6783 17.4849 25.5138 17.4005C25.3492 17.3119 25.1116 17.1994 24.8261 17.0348C24.2538 16.7113 23.4917 16.2302 22.7197 15.624C21.9449 15.0121 21.1673 14.2709 20.4797 13.4958C19.7879 12.7194 19.1889 11.9134 18.6489 11.1806C18.6489 11.1806 18.722 11.2312 18.8556 11.3255C18.9934 11.4141 19.1734 11.5576 19.4308 11.6926C19.9159 11.9908 20.6443 12.3073 21.4584 12.5098C22.274 12.711 23.1852 12.7743 24.0092 12.6561C24.8332 12.5408 25.5602 12.2454 26.0593 11.8656C26.0593 11.8656 26.1128 11.9838 26.2197 12.1751C26.3265 12.3607 26.4896 12.642 26.7104 12.9177C27.1491 13.493 27.8606 14.1218 28.6678 14.4228Z" fill="#383838"/>
</svg>
