<svg width="295" height="320" viewBox="0 0 295 320" fill="none" xmlns="http://www.w3.org/2000/svg">
<path d="M13.376 166.351C13.9822 167.848 14.3055 169.628 14.3863 172.137C14.5884 178.245 15.2349 180.147 18.3062 183.828C19.4781 185.204 19.7205 185.729 19.1952 185.527C18.7507 185.365 17.4575 184.839 16.3664 184.435C14.9925 183.909 14.0226 183.14 13.376 182.21C12.8507 181.441 11.4767 180.025 10.3452 179.095C7.59725 176.829 6.10205 175.171 5.81917 174.078C5.45547 172.784 6.42534 170.316 7.43561 169.912C8.1226 169.628 8.00136 169.547 6.6678 169.547C3.43493 169.466 1.45479 171.651 0.969856 175.656C0.646569 178.286 1.29314 180.025 3.47534 182.412C5.81917 185.042 8.64794 185.891 11.6384 184.839C12.3253 184.597 13.2952 184.475 13.8205 184.556C14.5075 184.678 14.1438 184.88 12.4466 185.406C9.77945 186.215 8.00136 187.833 7.0315 190.463C5.45547 194.508 7.96095 200.576 11.9616 202.357C13.4973 203.004 14.063 203.085 16.0431 202.721C17.2959 202.478 18.6699 201.952 19.1144 201.588C20.1247 200.657 21.0137 198.554 20.9733 197.138C20.9733 196.207 20.8521 196.329 20.3671 197.866C19.6397 200.253 18.387 200.941 16.4068 199.97C14.3863 199.039 13.3356 196.855 13.3356 193.699C13.3356 191.474 13.4973 190.867 14.4671 189.613C15.8411 187.793 17.2959 187.145 19.5589 187.388C21.7411 187.631 23.4384 188.885 25.2568 191.515C27.0349 194.144 27.924 197.421 28.126 202.276C28.2877 205.997 28.2473 206.078 27.6815 204.703C26.6712 202.357 26.4692 202.114 25.0144 201.305C23.1555 200.293 21.7815 200.657 20.4075 202.478C18.9931 204.298 18.7103 206.483 19.5993 208.546L20.2459 210.164L20.8521 208.748C22.1048 205.795 24.0849 205.027 25.7822 206.847C27.6815 208.87 27.6411 209.841 25.2164 216.961C23.9637 220.561 22.0644 225.254 20.9329 227.358L18.8315 231.161L18.3466 229.785C18.0637 229.016 17.8212 227.924 17.8212 227.358C17.7808 225.78 19.2356 223.029 21.2562 220.764C22.3068 219.59 23.4788 217.932 23.8829 217.042C24.6507 215.424 24.8527 212.794 24.3274 211.459C24.0849 210.893 23.8425 211.095 23.1151 212.551C22.4281 213.967 21.7411 214.655 20.1651 215.504C17.6192 216.88 15.1137 219.024 14.3459 220.521C12.6082 223.879 13.6185 227.722 17.013 230.716L18.9527 232.415L18.1849 236.056C17.7808 238.038 17.5384 239.818 17.6192 239.98C17.7 240.101 17.6596 240.344 17.4575 240.425C17.2959 240.546 16.6493 239.373 16.0027 237.836C15.0733 235.53 14.3459 234.559 12.1637 232.577C9.6178 230.271 6.82945 228.855 6.14246 229.583C5.98082 229.745 6.10205 229.987 6.42534 230.109C6.74862 230.23 7.51643 230.837 8.1226 231.525C9.17328 232.657 9.45616 233.426 11.3151 239.939C12.4062 243.661 14.5479 246.776 16.4877 247.383C17.5788 247.707 17.8616 248.03 18.387 249.851C19.074 252.238 21.0541 256.647 22.0644 258.023C22.7514 258.913 22.7514 258.953 21.5794 258.508C19.1952 257.578 17.9021 256.202 16.811 253.33C15.3562 249.608 13.9014 248.192 11.3959 248.192C10.3452 248.233 8.72876 248.597 7.7589 249.042L6.06164 249.851L8.08219 251.186C9.21369 251.914 10.426 252.966 10.8301 253.573C13.3356 257.375 16.811 259.317 21.0541 259.317C22.9534 259.317 22.9938 259.358 24.8123 261.906C25.8226 263.322 27.439 265.143 28.3685 265.952L30.0658 267.408H28.7322C26.9541 267.408 25.6205 266.437 24.0445 263.929C22.4281 261.421 21.539 260.855 19.0336 260.814C16.6089 260.774 14.1842 261.987 13.174 263.687C12.5274 264.86 12.487 265.224 12.9315 266.68C13.4164 268.42 15.3157 270.645 16.2048 270.645C16.6089 270.645 16.6089 270.523 16.2452 270.159C15.0329 268.946 16.2048 266.195 17.9021 266.195C18.2657 266.195 19.4781 267.004 20.5692 267.975C21.6603 268.946 22.9534 269.876 23.3979 270.038C23.8425 270.159 24.5699 271.09 25.0548 272.061C26.2671 274.569 29.3788 277.927 31.3185 278.776C34.0664 280.03 36.6123 279.788 40.411 277.886C42.2295 276.956 44.2904 275.702 45.0178 275.054C46.7151 273.598 48.089 273.072 50.3116 273.072C52.6151 273.072 57.5856 272.101 59.5658 271.252C61.3842 270.483 61.5863 270.564 60.6569 271.697C59.4445 273.234 56.8178 274.286 54.4336 274.245C49.6651 274.124 47.2808 276.996 47.2808 282.862V285.694L49.0185 283.914C50.7562 282.134 51.2815 281.81 54.7973 280.354C57.626 279.181 59.5658 277.037 61.2226 273.274L62.5966 270.119L66.1527 268.582C71.7699 266.154 75.4069 266.073 76.9829 268.379C78.276 270.2 77.2658 272.668 75.2452 272.668C74.3562 272.668 72.7397 271.373 72.7397 270.645C72.7397 270.402 72.5781 270.24 72.3356 270.24C72.1336 270.24 71.9315 270.766 71.9315 271.413C71.9315 272.384 72.3356 272.91 73.9521 274.083C75.124 274.973 76.6192 275.661 77.5486 275.783L79.1247 275.985L78.1144 277.482C77.2658 278.736 77.1445 279.302 77.2658 281.487C77.3466 282.862 77.3062 283.995 77.2253 283.995C76.9021 283.995 75.9322 282.498 74.7603 280.314C72.861 276.673 69.9514 274.69 66.3952 274.69C64.8596 274.69 64.3747 274.893 63.2432 276.025C61.0205 278.25 60.8589 281.244 62.839 283.469L63.8493 284.602L63.6068 283.307C63.4048 282.296 63.5664 281.81 64.3747 281.001C64.9808 280.435 65.8699 279.949 66.3952 279.949C67.4459 279.949 70.7192 282.094 70.7192 282.781C70.7192 283.429 74.3562 285.573 76.4979 286.22C77.5486 286.544 79.448 287.434 80.7411 288.202C82.7212 289.416 85.5096 290.711 88.7021 291.843C89.9144 292.288 88.6617 292.895 86.4795 292.895C84.5397 292.895 83.7719 292.491 80.8623 289.982C77.2253 286.827 74.5178 287.029 71.1233 290.711C70.0322 291.965 69.1027 293.097 69.1027 293.219C69.1027 293.381 69.911 293.461 70.8808 293.381C72.0932 293.259 73.4267 293.542 75.2048 294.311C80.0945 296.293 84.0952 296.172 87.8938 293.866C90.1569 292.531 90.3185 292.491 92.4603 292.895C93.713 293.097 95.3699 293.3 96.1377 293.34H97.5925L95.976 294.068C95.087 294.473 93.3897 295.606 92.2178 296.617C90.2377 298.316 87.9747 299.368 86.237 299.368C85.6308 299.368 85.6712 299.53 86.6007 300.501C88.0959 302.038 90.8843 303.413 92.5815 303.413C94.5212 303.413 96.7034 301.795 98.4007 299.166C99.6534 297.183 101.795 295.322 102.805 295.322C103.008 295.322 102.805 295.727 102.361 296.212C100.825 297.871 100.219 299.651 100.26 302.078C100.3 303.373 100.421 304.829 100.583 305.355C100.825 306.245 100.906 306.205 102.199 304.465C103.169 303.171 104.422 302.2 106.2 301.31C110.322 299.206 113.393 295.08 114.121 290.67C114.323 289.254 114.282 289.173 113.838 289.861C112.625 291.843 110.322 293.623 108.382 294.068C106.685 294.513 106.038 294.473 104.018 293.866L101.634 293.138L103.048 292.814C106.321 292.005 108.786 291.075 113.959 288.647C121.475 285.128 127.052 283.51 123.173 285.977C121.96 286.746 120.627 288.202 119.334 290.144C118.242 291.762 116.505 293.745 115.454 294.513L113.555 295.929L114.848 296.455C119.657 298.478 123.698 296.819 124.91 292.329C126.163 287.595 127.86 285.249 130.851 284.116C132.427 283.55 132.952 283.51 135.134 283.955C139.175 284.764 142.287 287.07 144.146 290.589C144.954 292.126 145.035 295.646 144.308 297.871C143.701 299.651 141.438 301.391 139.701 301.391C136.589 301.391 133.962 298.842 133.962 295.848C133.962 293.502 135.175 292.288 137.438 292.369C139.62 292.491 139.337 291.803 136.629 290.387C133.275 288.647 130.366 289.052 127.739 291.681C126.608 292.814 126.486 293.219 126.486 295.363C126.486 297.669 126.567 297.871 128.345 299.772C130.932 302.523 132.912 303.413 136.508 303.413C138.165 303.413 140.064 303.171 140.873 302.807C142.732 302.038 143.014 302.726 141.842 305.072C141.075 306.528 141.034 306.812 141.56 307.095C142.045 307.378 142.045 307.823 141.721 309.563C141.398 311.14 141.438 311.707 141.762 311.828C142.045 311.909 142.247 312.597 142.247 313.365C142.247 314.134 142.449 314.741 142.651 314.741C142.893 314.741 143.055 315.388 143.055 316.197C143.055 316.966 143.216 317.532 143.419 317.37C143.621 317.249 143.903 317.33 144.065 317.573C144.186 317.775 144.631 317.977 145.035 317.977C145.439 317.977 146.086 318.341 146.49 318.786C147.419 319.798 148.389 319.798 149.319 318.786C149.723 318.341 150.369 317.977 150.814 317.977C151.218 317.977 151.541 317.775 151.541 317.532C151.541 317.29 151.824 317.168 152.147 317.33C152.632 317.492 152.753 317.209 152.753 315.914C152.753 314.943 152.915 314.377 153.158 314.539C153.4 314.7 153.562 314.215 153.562 313.365C153.562 312.597 153.764 311.828 154.006 311.707C154.289 311.504 154.329 310.695 154.168 309.401C153.966 307.985 154.006 307.257 154.37 307.054C154.734 306.852 154.612 306.326 153.966 305.032C152.794 302.726 153.077 302.038 154.936 302.807C156.754 303.575 161.644 303.575 163.422 302.847C165.281 302.078 168.11 299.449 168.797 297.871C169.403 296.334 169.484 294.19 168.918 292.733C168.514 291.56 164.755 289.254 163.341 289.254C161.442 289.254 158.855 290.185 157.562 291.317L156.188 292.531L157.603 292.369C162.735 291.722 163.422 298.721 158.411 300.743C156.229 301.593 155.34 301.553 153.683 300.501C151.905 299.408 151.137 297.628 151.137 294.513C151.137 291.641 151.743 289.982 153.562 287.879C156.269 284.804 161.482 282.943 164.392 283.955C167.706 285.128 169.079 286.786 170.615 291.439C172.029 295.687 173.808 297.386 176.879 297.305C178.738 297.264 181.526 296.455 181.688 295.929C181.769 295.687 181.122 295.039 180.233 294.432C179.384 293.826 177.808 292.005 176.717 290.387C175.464 288.445 174.09 286.989 172.797 286.099C169.928 284.197 172.434 284.561 178.091 286.908L181.001 288.081L181.445 290.387C182.415 295.161 185.446 299.287 189.366 301.148C190.619 301.755 192.154 302.968 193.205 304.182C194.175 305.274 195.104 306.124 195.266 306.003C195.427 305.881 195.589 304.425 195.589 302.766C195.589 299.692 194.942 297.426 193.69 296.051C192.76 294.999 193.488 295.161 195.023 296.334C195.791 296.9 196.882 298.195 197.448 299.206C198.862 301.593 201.327 303.413 203.186 303.413C204.924 303.413 207.712 302.078 209.208 300.501C210.218 299.449 210.218 299.368 209.45 299.368C207.834 299.368 205.045 298.114 203.631 296.698C202.823 295.889 201.287 294.837 200.196 294.311L198.216 293.34L199.671 293.3C200.438 293.3 202.095 293.097 203.348 292.895C205.49 292.491 205.651 292.531 207.914 293.866C211.713 296.172 215.714 296.293 220.603 294.311C222.382 293.542 223.715 293.259 224.927 293.381C225.897 293.461 226.706 293.34 226.706 293.178C226.706 292.976 225.776 291.843 224.645 290.63C221.169 286.989 218.542 286.827 214.906 290.023C212.602 292.086 210.905 292.895 209.046 292.895C207.268 292.895 205.934 292.288 206.904 291.924C211.188 290.387 212.723 289.74 214.623 288.445C215.875 287.636 217.896 286.625 219.068 286.26C221.977 285.33 224.443 283.833 225.453 282.458C226.584 280.839 228.726 279.747 230.1 280.111C231.353 280.435 232.525 282.66 232.08 283.874C231.838 284.521 231.878 284.521 232.525 284.035C236.202 281.001 234.02 274.69 229.251 274.69C225.655 274.69 222.462 276.996 220.563 281.042C218.745 284.804 218.421 284.845 218.421 281.365C218.421 278.898 218.26 278.169 217.492 277.158L216.562 275.904H217.573C219.027 275.904 220.563 275.257 222.301 273.841C223.513 272.87 223.877 272.303 223.877 271.373V270.159L222.705 271.413C221.371 272.829 219.876 273.032 218.906 271.939C217.573 270.483 218.381 268.137 220.563 267.004C222.058 266.235 225.655 266.882 229.696 268.582L233.252 270.119L234.464 272.951C235.111 274.528 236.242 276.511 237.01 277.401C238.223 278.817 239.273 279.504 243.557 281.487C244.244 281.81 245.699 282.903 246.749 283.955L248.608 285.815L248.447 282.539C248.123 276.632 246.507 274.731 241.334 274.286C238.061 274.003 236.768 273.436 235.03 271.494C234.101 270.483 234.343 270.443 236.323 271.292C238.223 272.101 243.234 273.072 245.497 273.072C247.8 273.072 249.093 273.598 251.558 275.499C259.479 281.608 265.742 280.718 270.188 272.748C270.956 271.373 271.764 270.24 271.966 270.24C272.168 270.24 273.542 269.31 274.997 268.217C276.451 267.085 277.906 266.195 278.229 266.195C279.199 266.195 280.169 268.096 279.886 269.431C279.684 270.564 279.725 270.645 280.452 270.24C281.866 269.472 283.079 267.327 283.079 265.467C283.079 264.01 282.877 263.525 281.826 262.554C280.493 261.381 277.017 260.369 275.724 260.774C273.138 261.623 272.693 261.947 271.764 263.767C270.551 266.195 269.016 267.408 267.278 267.408H265.904L267.561 265.912C268.45 265.102 270.026 263.282 270.996 261.906L272.774 259.439L275.522 259.236C279.321 258.953 282.069 257.456 284.412 254.341C285.382 253.087 286.877 251.631 287.766 251.105C288.615 250.619 289.262 250.053 289.221 249.81C288.979 249.082 284.776 247.909 283.321 248.192C281.624 248.516 279.886 250.296 279.199 252.359C278.027 256 276.451 257.942 274.108 258.67C273.259 258.953 273.299 258.751 274.754 256C276.411 252.925 277.381 250.619 277.785 248.678C277.947 247.99 278.31 247.585 278.795 247.585C279.199 247.585 280.452 246.614 281.584 245.401C283.685 243.176 284.453 241.315 285.14 237.067C285.503 234.437 286.797 231.97 288.494 230.554L289.949 229.3L288.534 229.542C286.958 229.826 283.321 232.496 281.584 234.68C280.937 235.489 280.008 237.148 279.482 238.402L278.593 240.668L277.906 237.107C277.017 232.415 277.017 232.374 278.634 230.918C280.412 229.381 281.907 226.872 282.271 224.85C282.877 221.613 280.614 218.255 276.29 215.949C273.825 214.614 272.612 213.279 272.127 211.418C271.723 209.76 271.158 210.933 271.158 213.522C271.158 216.354 271.925 218.053 274.431 220.804C277.825 224.526 278.714 227.277 277.34 229.906L276.694 231.201L276.29 229.987C276.047 229.3 275.36 227.965 274.754 226.953C272.208 222.827 268.733 212.915 268.733 209.8C268.733 208.87 269.097 207.98 269.784 207.171C271.481 205.107 273.542 205.674 274.795 208.465L275.562 210.164L276.209 208.587C277.381 205.795 275.926 201.75 273.421 200.86C271.925 200.334 269.662 201.588 268.652 203.489C267.803 205.107 267.803 205.107 267.884 201.062C268.006 195.601 269.905 191.272 273.38 188.521C275.401 186.903 278.027 186.822 280.008 188.278C282.109 189.856 282.594 190.827 282.594 193.375C282.594 197.259 279.725 201.022 277.3 200.374C276.815 200.253 276.088 199.403 275.643 198.473C274.714 196.612 274.471 197.502 275.36 199.565C276.169 201.467 277.219 202.235 279.765 202.721C281.745 203.085 282.311 203.004 283.847 202.316C285.867 201.467 287.686 199.241 288.777 196.369C289.343 194.832 289.383 194.185 289.019 191.879C288.453 188.44 286.635 186.377 283.281 185.406C280.735 184.637 281.22 184.152 283.887 184.839C287.928 185.851 291.04 184.759 293.222 181.522C295.121 178.771 295.445 175.818 294.151 173.027C293.02 170.64 291.403 169.507 289.14 169.547C287.726 169.547 287.645 169.628 288.413 169.992C289.545 170.559 290.312 172.42 289.949 173.836C289.787 174.483 288.171 176.425 286.11 178.448C284.17 180.389 282.271 182.412 281.907 182.938C281.543 183.545 280.533 184.152 279.523 184.435C278.593 184.718 277.421 185.204 276.936 185.527C275.684 186.296 275.764 185.649 277.017 184.475C278.391 183.181 280.371 180.025 280.897 178.326C281.139 177.598 281.382 175.09 281.462 172.743C281.543 170.235 281.866 167.686 282.271 166.513C282.634 165.461 282.836 164.491 282.715 164.329C282.271 163.924 277.098 166.837 276.29 167.929C275.158 169.507 274.916 173.755 275.805 176.587C277.098 180.753 276.492 184.394 274.027 186.781C273.219 187.55 272.047 188.642 271.44 189.249C268.935 191.636 267.116 197.057 267.116 202.033C267.116 205.876 267.925 211.135 269.097 214.817C269.541 216.233 269.864 217.487 269.784 217.568C269.703 217.649 269.016 217.325 268.288 216.88C267.521 216.394 266.551 216.03 266.106 216.03C264.247 216.03 263.762 214.412 265.136 212.956L266.025 212.025L264.975 211.783C262.712 211.216 260.651 212.632 260.651 214.736C260.651 216.516 262.065 219.55 263.197 220.157C263.964 220.561 263.803 220.683 261.58 221.492C253.902 224.283 249.457 231.686 252.164 237.269C253.902 240.829 257.458 243.135 261.257 243.135C265.258 243.135 267.521 245.158 266.874 248.152L266.632 249.406L267.48 248.637C269.177 247.1 268.248 243.985 265.783 242.933L264.53 242.407L266.106 241.76C268.369 240.789 269.42 239.697 270.349 237.188C272.734 230.756 269.137 226.023 263.116 227.762C261.661 228.167 259.842 229.623 259.842 230.351C259.842 230.635 260.529 230.756 261.58 230.675C263.641 230.513 265.298 231.606 265.702 233.426C266.066 235.044 264.247 238.402 262.388 239.494C260.853 240.384 258.145 240.546 255.68 239.858C254.468 239.535 253.983 239.09 253.215 237.552C251.841 234.842 251.639 233.507 252.326 231.282C253.862 226.185 259.236 222.139 264.894 221.815C267.521 221.654 267.884 221.735 269.905 222.989C272.37 224.485 275.32 228.329 275.966 230.918C276.977 235.085 277.017 235.004 275.684 233.224C274.431 231.444 271.764 228.976 271.158 228.976C270.511 228.976 270.713 229.623 271.562 230.392C272.572 231.322 273.138 233.062 273.542 236.784C273.825 239.171 274.148 240.182 275.158 241.679C275.886 242.69 276.734 243.54 277.098 243.54C277.623 243.54 277.664 243.904 277.421 245.846C277.138 248.475 276.249 251.793 275.482 253.128C275.077 253.856 274.997 253.492 275.158 250.781C275.36 246.291 273.703 240.263 271.966 239.171C271.198 238.685 271.158 238.726 271.481 239.373C272.491 241.355 272.37 242.973 270.794 248.233C269.945 251.105 269.137 253.856 269.016 254.26C268.935 254.705 268.814 254.382 268.773 253.532C268.733 251.429 266.591 249.204 264.732 249.204C262.954 249.204 261.176 250.215 260.247 251.752C259.075 253.613 259.236 253.775 261.055 252.764L262.712 251.833L263.762 253.006C264.732 254.139 264.773 254.422 264.611 257.659C264.328 263.161 262.146 267.044 257.458 270.2C255.438 271.575 254.791 271.818 251.962 272.061L248.729 272.344L250.75 271.252C253.417 269.836 254.751 268.541 256.488 265.669C257.782 263.565 261.378 260.126 262.308 260.126C262.995 260.126 262.671 259.439 261.742 259.034C261.257 258.791 259.802 258.387 258.549 258.104C256.529 257.659 256.003 257.659 254.387 258.266C252.892 258.872 252.326 259.398 251.356 261.057C250.669 262.23 250.144 263.525 250.144 263.97C250.103 266.64 246.264 271.494 243.759 272.061C240.607 272.748 234.505 270.523 232.444 267.934C229.494 264.212 228.766 260.491 230.1 255.96C230.827 253.411 233.656 250.458 236.162 249.608C239.718 248.435 244.769 250.296 245.982 253.168C248.002 257.982 245.416 262.432 240.93 262.068C239.758 261.987 239.314 261.664 238.708 260.612C237.697 258.872 238.061 257.416 239.677 256.728C240.728 256.283 240.809 256.162 240.243 255.919C239.152 255.515 236.687 256.971 235.919 258.549C234.464 261.34 235.313 265.143 237.697 266.599C239.314 267.57 243.516 267.732 245.254 266.842C248.81 264.981 250.103 260.936 248.608 256.364C248.164 254.989 247.84 253.815 247.881 253.775C247.921 253.735 248.77 254.058 249.74 254.503C251.114 255.15 252.164 255.312 253.902 255.191C255.882 255.029 256.448 254.827 257.539 253.735C258.751 252.521 258.832 252.238 258.832 249.608C258.832 247.1 258.711 246.695 257.741 245.724L256.65 244.632L256.892 246.21C257.054 247.545 256.933 247.949 256.003 248.92C254.427 250.458 252.609 250.862 249.174 250.417C245.133 249.851 240.324 248.678 240.284 248.192C240.243 247.949 241.011 247.504 241.981 247.181C243.678 246.614 243.759 246.614 245.86 247.747C248.245 249.042 249.255 249.001 251.114 247.545C251.679 247.1 252.528 246.008 252.973 245.118C254.751 241.679 253.336 238.483 249.942 238.2C248.932 238.119 248.123 238.119 248.123 238.159C248.123 238.24 248.487 238.645 248.932 239.09C249.821 239.98 250.023 241.719 249.255 242.205C248.972 242.367 247.315 242.528 245.618 242.528C242.627 242.528 242.466 242.569 241.051 243.944C240.284 244.713 239.395 246.008 239.152 246.857C238.869 247.788 238.465 248.394 238.061 248.394C236.889 248.435 234.101 249.891 232.444 251.388C230.302 253.33 228.726 257.214 228.726 260.45C228.766 263.161 229.453 265.264 230.908 267.206C232.161 268.824 232.08 268.905 230.019 267.853C225.332 265.467 216.562 265.102 211.349 267.125C204.399 269.755 201.61 271.737 198.984 275.783C197.003 278.817 194.134 280.111 193.205 278.372C192.882 277.805 192.962 277.36 193.609 276.551C194.053 275.985 194.7 275.499 195.023 275.499C195.347 275.499 195.508 275.297 195.387 275.095C195.023 274.488 193.043 274.609 192.114 275.257C191.629 275.58 190.942 276.713 190.578 277.724C189.932 279.424 189.77 279.545 189.164 279.019C188.315 278.25 185.769 276.956 185.971 277.401C186.052 277.563 186.375 278.21 186.658 278.817C186.982 279.424 187.103 280.354 186.941 280.92C186.537 282.539 185.203 282.619 182.496 281.204C178.778 279.221 175.828 279.747 173.363 282.7C172.232 284.076 172.191 284.116 170.373 283.631C169.362 283.388 166.655 283.186 164.311 283.186C159.058 283.186 156.31 284.076 153.521 286.705C151.582 288.526 150.733 290.346 150.086 293.785C149.763 295.606 149.44 295.484 148.712 293.34C148.147 291.641 147.5 291.115 147.5 292.369C147.5 292.774 147.177 293.623 146.732 294.23L146.005 295.363L145.722 293.421C145.197 289.295 141.196 284.764 137.195 283.671C134.973 283.065 127.779 283.065 125.314 283.631C123.577 283.995 123.496 283.995 122.243 282.579C120.788 281.001 118.647 279.949 116.869 279.949C116.222 279.949 114.565 280.516 113.191 281.244C111.09 282.336 110.605 282.458 109.716 282.053C108.908 281.689 108.705 281.284 108.705 280.192C108.705 279.464 108.988 278.614 109.312 278.331C109.635 278.048 109.918 277.684 109.918 277.482C109.918 277.077 107.978 277.846 107.049 278.614C106.119 279.383 105.958 279.302 105.311 277.765C104.503 275.783 103.25 274.69 101.876 274.69C100.462 274.69 99.8959 275.297 100.987 275.621C101.391 275.702 102.078 276.268 102.442 276.875C103.008 277.724 103.048 278.048 102.644 278.534C101.351 280.071 98.9664 278.817 96.2589 275.135C93.511 271.454 92.0158 270.362 86.6815 268.056C82.4384 266.235 82.0342 266.114 77.589 265.912C72.6185 265.669 69.1432 266.235 65.587 267.813L63.8493 268.582L64.9 267.206C67.2438 264.132 67.6884 260.046 66.1932 255.717C65.1021 252.642 62.5158 250.094 59.3637 248.88C57.626 248.233 57.1411 247.828 56.2521 246.169C55.6459 245.077 54.5144 243.742 53.7466 243.216C52.4534 242.367 52.0493 242.286 49.4226 242.528C46.9575 242.771 46.513 242.69 46.1493 242.083C45.6644 241.193 45.9877 239.939 46.9575 238.807L47.7658 237.957L45.9877 238.119C41.8253 238.483 40.6938 243.499 44.0075 246.817C46.1493 249.001 47.3212 249.163 49.9479 247.747C52.0493 246.614 52.1301 246.614 53.8274 247.181C54.7973 247.504 55.5247 247.949 55.4842 248.192C55.2822 249.244 44.5733 251.024 42.2295 250.377C40.0473 249.77 38.6733 248.152 38.9158 246.493C39.1986 244.915 38.6733 244.754 37.7842 246.129C36.1274 248.678 36.3295 251.469 38.35 253.735C39.8856 255.434 42.9973 255.757 45.8664 254.503C46.9171 254.018 47.8466 253.694 47.9274 253.775C48.0082 253.815 47.6849 255.029 47.2808 256.445C45.9068 260.814 46.311 263.161 48.776 265.426C50.5137 267.085 51.4432 267.408 54.1911 267.408C57.0603 267.408 59.0404 266.437 60.0103 264.577C61.4651 261.785 60.1315 257.335 57.5856 256.243C55.6459 255.434 54.5144 255.96 56.2521 256.85C58.0301 257.74 58.313 259.641 56.8178 261.138C54.9185 263.039 51.2007 261.987 49.7055 259.196C48.8164 257.537 48.8164 257.456 49.463 254.867C50.3925 251.105 52.8979 249.204 56.8582 249.204C64.213 249.244 68.5774 257.78 65.0616 265.183C64.3747 266.599 63.2432 268.258 62.4753 268.946C60.7781 270.402 57.5452 271.697 54.5144 272.061C51.8069 272.384 50.5541 271.858 48.4123 269.512C47.0788 268.056 46.6342 267.044 45.2603 262.756C43.7651 258.063 40.1281 256.728 34.8747 258.832C32.8945 259.641 32.7733 259.843 34.1068 260.45C35.8041 261.219 37.9863 263.403 39.8048 266.195C41.4212 268.743 43.7651 270.807 46.1493 271.858C46.8363 272.182 46.2705 272.223 44.0479 272.02C41.4212 271.818 40.6938 271.575 38.5925 270.24C37.2589 269.35 35.5616 268.056 34.8747 267.327C32.8541 265.183 31.2377 261.542 30.9144 258.306C30.6315 255.07 31.0356 253.613 32.4904 252.602C33.4603 251.995 33.6219 251.995 34.9555 252.804C36.1678 253.492 36.3699 253.532 36.3699 253.006C36.3699 251.914 33.7836 249.689 32.2075 249.406C29.0555 248.799 27.6411 250.013 27.0753 253.735C26.8329 255.353 26.7521 255.555 26.7116 254.544C26.7116 253.775 25.9438 250.984 25.0548 248.273C23.3575 243.297 23.2767 242.164 24.4486 239.373C25.0144 237.997 23.4384 239.13 22.6301 240.668C21.1349 243.621 20.5288 246.655 20.6904 250.417C20.7712 253.33 20.7308 253.856 20.3267 253.128C19.5185 251.55 18.3062 247.464 18.0233 245.441C17.8212 243.783 17.9021 243.54 18.5486 243.54C20.0842 243.54 21.6199 240.748 22.226 236.824C22.8726 232.577 23.4788 230.635 24.3678 229.987C24.8527 229.664 25.0952 229.259 24.9336 229.138C24.5294 228.733 22.6301 230.068 20.8925 231.929L19.3568 233.628L19.5993 232.051C20.2055 228.288 23.2767 224.04 26.5096 222.503C29.2979 221.128 32.8945 221.492 36.7336 223.515C40.0877 225.295 41.3 226.549 42.9568 230.109C44.3308 233.102 44.25 234.923 42.5932 237.755C41.4616 239.697 40.0069 240.303 36.5719 240.303C33.9452 240.303 31.9247 238.968 30.7123 236.42C29.9041 234.802 29.8637 234.357 30.2678 233.022C30.7931 231.201 32.3692 230.392 34.7534 230.716C36.2082 230.918 36.3294 230.837 35.9658 230.19C35.2384 228.855 33.2986 227.803 30.9952 227.52C29.0959 227.277 28.5301 227.398 27.3178 228.126C23.0342 230.796 24.287 239.09 29.3384 241.558C30.9548 242.326 31.1568 242.528 30.5103 242.731C28.4897 243.257 27.4795 244.632 27.4795 246.857C27.4795 248.111 28.0452 249.204 28.7322 249.204C28.8938 249.204 28.9342 248.475 28.813 247.585C28.6514 246.331 28.7726 245.765 29.3384 245.077C30.4699 243.863 32.4096 243.135 34.7534 243.135C38.1884 243.135 41.987 240.668 43.6842 237.391C45.1795 234.478 44.4521 230.028 41.987 226.913C40.3705 224.89 36.5315 222.26 33.824 221.33C31.8034 220.642 31.763 220.602 32.6925 220.116C34.713 219.024 35.9253 214.008 34.4705 212.673C33.4603 211.783 31.8842 211.459 30.7123 211.904L29.7425 212.268L30.6315 212.753C31.6014 213.279 31.8438 214.857 31.0356 215.545C30.7527 215.788 29.8233 216.071 29.0151 216.233C28.1664 216.394 27.3178 216.759 27.0349 217.082C26.0651 218.255 25.9438 217.568 26.7116 215.1C30.187 203.772 29.0959 193.699 23.9233 188.804C23.1959 188.076 22.0644 187.024 21.4582 186.417C20.8521 185.81 20.0034 184.273 19.5993 182.979L18.8719 180.632L19.9226 176.506C20.5288 174.281 20.9329 172.177 20.8521 171.853C20.7712 171.57 20.5692 170.842 20.4479 170.235C20.0842 168.576 17.8212 166.271 15.5582 165.219C12.5678 163.803 12.4062 163.924 13.376 166.351ZM30.0658 220.44C30.187 220.642 29.7021 220.885 28.9747 221.006C28.2877 221.128 27.3178 221.33 26.8733 221.492C26.1459 221.735 26.1863 221.654 27.0349 220.925C28.0048 220.076 29.6616 219.793 30.0658 220.44ZM269.016 221.087L270.147 222.099L268.652 221.492C267.803 221.168 266.753 220.885 266.308 220.885C265.823 220.885 265.581 220.683 265.702 220.48C266.147 219.752 267.844 220.076 269.016 221.087ZM27.4795 258.994C27.7623 260.167 28.7322 262.473 29.5808 264.091L31.1164 267.085L29.9445 266.235C29.2979 265.79 27.8432 264.374 26.7116 263.161C24.6911 260.936 24.6911 260.895 25.4589 260.126C25.9034 259.681 26.2671 258.751 26.2671 258.104C26.2671 256.202 26.8733 256.688 27.4795 258.994ZM269.541 257.78C269.541 258.306 269.824 259.236 270.147 259.884C270.753 261.016 270.713 261.097 269.339 262.756C268.046 264.374 264.692 267.327 264.692 266.882C264.692 266.802 265.338 265.628 266.106 264.334C267.44 262.149 268.733 258.711 268.733 257.416C268.733 257.133 268.935 256.89 269.137 256.89C269.379 256.89 269.541 257.295 269.541 257.78ZM185.89 290.508C187.547 291.236 190.214 292.126 191.75 292.491L194.579 293.138L191.75 293.866C189.002 294.513 188.8 294.513 186.699 293.826C185.001 293.259 184.193 292.693 183.183 291.358C181.809 289.537 181.486 288.607 182.375 288.971C182.617 289.092 184.234 289.78 185.89 290.508Z" fill="#383838"/>
<ellipse cx="148.597" cy="141.5" rx="115.773" ry="139.5" stroke="#383838" stroke-width="3"/>
<ellipse cx="148.564" cy="141.5" rx="126.018" ry="139.5" stroke="#383838" stroke-width="3"/>
<path d="M56.618 226.967C56.618 228.913 55.0449 230.487 53.11 230.487C51.1751 230.487 49.6021 228.913 49.6021 226.967C49.6021 225.02 51.1751 223.447 53.11 223.447C55.0449 223.447 56.618 225.02 56.618 226.967Z" stroke="#383838" stroke-width="2"/>
<path d="M45.348 207.655C45.348 209.601 43.7749 211.175 41.84 211.175C39.9051 211.175 38.332 209.601 38.332 207.655C38.332 205.708 39.9051 204.135 41.84 204.135C43.7749 204.135 45.348 205.708 45.348 207.655Z" stroke="#383838" stroke-width="2"/>
<path d="M40.8401 196.56C40.8401 198.507 39.2671 200.08 37.3322 200.08C35.3973 200.08 33.8242 198.507 33.8242 196.56C33.8242 194.614 35.3973 193.041 37.3322 193.041C39.2671 193.041 40.8401 194.614 40.8401 196.56Z" stroke="#383838" stroke-width="2"/>
<path d="M37.3566 185.466C37.3566 187.413 35.7836 188.986 33.8487 188.986C31.9138 188.986 30.3407 187.413 30.3407 185.466C30.3407 183.52 31.9138 181.946 33.8487 181.946C35.7836 181.946 37.3566 183.52 37.3566 185.466Z" stroke="#383838" stroke-width="2"/>
<path d="M34.4878 174.372C34.4878 176.318 32.9148 177.892 30.9799 177.892C29.045 177.892 27.4719 176.318 27.4719 174.372C27.4719 172.425 29.045 170.852 30.9799 170.852C32.9148 170.852 34.4878 172.425 34.4878 174.372Z" stroke="#383838" stroke-width="2"/>
<path d="M32.8487 163.278C32.8487 165.224 31.2756 166.797 29.3407 166.797C27.4058 166.797 25.8328 165.224 25.8328 163.278C25.8328 161.331 27.4058 159.758 29.3407 159.758C31.2756 159.758 32.8487 161.331 32.8487 163.278Z" stroke="#383838" stroke-width="2"/>
<path d="M31.2093 152.183C31.2093 154.13 29.6362 155.703 27.7013 155.703C25.7664 155.703 24.1934 154.13 24.1934 152.183C24.1934 150.237 25.7664 148.663 27.7013 148.663C29.6362 148.663 31.2093 150.237 31.2093 152.183Z" stroke="#383838" stroke-width="2"/>
<path d="M31.0044 141.089C31.0044 143.036 29.4314 144.609 27.4965 144.609C25.5616 144.609 23.9885 143.036 23.9885 141.089C23.9885 139.143 25.5616 137.569 27.4965 137.569C29.4314 137.569 31.0044 139.143 31.0044 141.089Z" stroke="#383838" stroke-width="2"/>
<path d="M31.4144 129.995C31.4144 131.941 29.8413 133.515 27.9064 133.515C25.9715 133.515 24.3984 131.941 24.3984 129.995C24.3984 128.048 25.9715 126.475 27.9064 126.475C29.8413 126.475 31.4144 128.048 31.4144 129.995Z" stroke="#383838" stroke-width="2"/>
<path d="M32.8487 118.695C32.8487 120.642 31.2756 122.215 29.3407 122.215C27.4058 122.215 25.8328 120.642 25.8328 118.695C25.8328 116.749 27.4058 115.175 29.3407 115.175C31.2756 115.175 32.8487 116.749 32.8487 118.695Z" stroke="#383838" stroke-width="2"/>
<path d="M34.6928 107.395C34.6928 109.342 33.1197 110.915 31.1848 110.915C29.2499 110.915 27.6769 109.342 27.6769 107.395C27.6769 105.449 29.2499 103.876 31.1848 103.876C33.1197 103.876 34.6928 105.449 34.6928 107.395Z" stroke="#383838" stroke-width="2"/>
<path d="M37.3566 96.7121C37.3566 98.6585 35.7836 100.232 33.8487 100.232C31.9138 100.232 30.3407 98.6585 30.3407 96.7121C30.3407 94.7656 31.9138 93.1922 33.8487 93.1922C35.7836 93.1922 37.3566 94.7656 37.3566 96.7121Z" stroke="#383838" stroke-width="2"/>
<path d="M41.045 85.4124C41.045 87.3589 39.4719 88.9323 37.537 88.9323C35.6021 88.9323 34.0291 87.3589 34.0291 85.4124C34.0291 83.4659 35.6021 81.8925 37.537 81.8925C39.4719 81.8925 41.045 83.4659 41.045 85.4124Z" stroke="#383838" stroke-width="2"/>
<path d="M45.5528 74.9345C45.5528 76.8809 43.9797 78.4544 42.0448 78.4544C40.1099 78.4544 38.5369 76.8809 38.5369 74.9345C38.5369 72.988 40.1099 71.4146 42.0448 71.4146C43.9797 71.4146 45.5528 72.988 45.5528 74.9345Z" stroke="#383838" stroke-width="2"/>
<path d="M51.0854 64.4566C51.0854 66.403 49.5123 67.9764 47.5774 67.9764C45.6425 67.9764 44.0695 66.403 44.0695 64.4566C44.0695 62.5101 45.6425 60.9367 47.5774 60.9367C49.5123 60.9367 51.0854 62.5101 51.0854 64.4566Z" stroke="#383838" stroke-width="2"/>
<path d="M57.2326 55.0059C57.2326 56.9524 55.6595 58.5258 53.7246 58.5258C51.7897 58.5258 50.2167 56.9524 50.2167 55.0059C50.2167 53.0594 51.7897 51.486 53.7246 51.486C55.6595 51.486 57.2326 53.0594 57.2326 55.0059Z" stroke="#383838" stroke-width="2"/>
<path d="M50.6756 217.516C50.6756 219.463 49.1025 221.036 47.1676 221.036C45.2327 221.036 43.6597 219.463 43.6597 217.516C43.6597 215.57 45.2327 213.996 47.1676 213.996C49.1025 213.996 50.6756 215.57 50.6756 217.516Z" stroke="#383838" stroke-width="2"/>
<path d="M240.371 226.967C240.371 228.913 241.944 230.487 243.879 230.487C245.813 230.487 247.386 228.913 247.386 226.967C247.386 225.02 245.813 223.447 243.879 223.447C241.944 223.447 240.371 225.02 240.371 226.967Z" stroke="#383838" stroke-width="2"/>
<path d="M251.641 207.655C251.641 209.601 253.214 211.175 255.149 211.175C257.083 211.175 258.656 209.601 258.656 207.655C258.656 205.708 257.083 204.135 255.149 204.135C253.214 204.135 251.641 205.708 251.641 207.655Z" stroke="#383838" stroke-width="2"/>
<path d="M256.148 196.56C256.148 198.507 257.721 200.08 259.656 200.08C261.591 200.08 263.164 198.507 263.164 196.56C263.164 194.614 261.591 193.041 259.656 193.041C257.721 193.041 256.148 194.614 256.148 196.56Z" stroke="#383838" stroke-width="2"/>
<path d="M259.632 185.466C259.632 187.413 261.205 188.986 263.14 188.986C265.075 188.986 266.648 187.413 266.648 185.466C266.648 183.52 265.075 181.946 263.14 181.946C261.205 181.946 259.632 183.52 259.632 185.466Z" stroke="#383838" stroke-width="2"/>
<path d="M262.501 174.372C262.501 176.318 264.074 177.892 266.009 177.892C267.944 177.892 269.517 176.318 269.517 174.372C269.517 172.425 267.944 170.852 266.009 170.852C264.074 170.852 262.501 172.425 262.501 174.372Z" stroke="#383838" stroke-width="2"/>
<path d="M264.14 163.278C264.14 165.224 265.713 166.797 267.648 166.797C269.583 166.797 271.156 165.224 271.156 163.278C271.156 161.331 269.583 159.758 267.648 159.758C265.713 159.758 264.14 161.331 264.14 163.278Z" stroke="#383838" stroke-width="2"/>
<path d="M265.779 152.183C265.779 154.13 267.352 155.703 269.287 155.703C271.222 155.703 272.795 154.13 272.795 152.183C272.795 150.237 271.222 148.663 269.287 148.663C267.352 148.663 265.779 150.237 265.779 152.183Z" stroke="#383838" stroke-width="2"/>
<path d="M265.984 141.089C265.984 143.036 267.557 144.609 269.492 144.609C271.427 144.609 273 143.036 273 141.089C273 139.143 271.427 137.569 269.492 137.569C267.557 137.569 265.984 139.143 265.984 141.089Z" stroke="#383838" stroke-width="2"/>
<path d="M265.574 129.995C265.574 131.941 267.147 133.515 269.082 133.515C271.017 133.515 272.59 131.941 272.59 129.995C272.59 128.048 271.017 126.475 269.082 126.475C267.147 126.475 265.574 128.048 265.574 129.995Z" stroke="#383838" stroke-width="2"/>
<path d="M264.14 118.695C264.14 120.642 265.713 122.215 267.648 122.215C269.583 122.215 271.156 120.642 271.156 118.695C271.156 116.749 269.583 115.175 267.648 115.175C265.713 115.175 264.14 116.749 264.14 118.695Z" stroke="#383838" stroke-width="2"/>
<path d="M262.296 107.395C262.296 109.342 263.869 110.915 265.804 110.915C267.739 110.915 269.312 109.342 269.312 107.395C269.312 105.449 267.739 103.876 265.804 103.876C263.869 103.876 262.296 105.449 262.296 107.395Z" stroke="#383838" stroke-width="2"/>
<path d="M259.632 96.7121C259.632 98.6585 261.205 100.232 263.14 100.232C265.075 100.232 266.648 98.6585 266.648 96.7121C266.648 94.7656 265.075 93.1922 263.14 93.1922C261.205 93.1922 259.632 94.7656 259.632 96.7121Z" stroke="#383838" stroke-width="2"/>
<path d="M255.944 85.4124C255.944 87.3589 257.517 88.9323 259.452 88.9323C261.386 88.9323 262.959 87.3589 262.959 85.4124C262.959 83.4659 261.386 81.8925 259.452 81.8925C257.517 81.8925 255.944 83.4659 255.944 85.4124Z" stroke="#383838" stroke-width="2"/>
<path d="M251.436 74.9345C251.436 76.8809 253.009 78.4544 254.944 78.4544C256.878 78.4544 258.452 76.8809 258.452 74.9345C258.452 72.988 256.878 71.4146 254.944 71.4146C253.009 71.4146 251.436 72.988 251.436 74.9345Z" stroke="#383838" stroke-width="2"/>
<path d="M245.903 64.4566C245.903 66.403 247.476 67.9764 249.411 67.9764C251.346 67.9764 252.919 66.403 252.919 64.4566C252.919 62.5101 251.346 60.9367 249.411 60.9367C247.476 60.9367 245.903 62.5101 245.903 64.4566Z" stroke="#383838" stroke-width="2"/>
<path d="M239.756 55.0059C239.756 56.9524 241.329 58.5258 243.264 58.5258C245.199 58.5258 246.772 56.9524 246.772 55.0059C246.772 53.0594 245.199 51.486 243.264 51.486C241.329 51.486 239.756 53.0594 239.756 55.0059Z" stroke="#383838" stroke-width="2"/>
<path d="M246.313 217.516C246.313 219.463 247.886 221.036 249.821 221.036C251.756 221.036 253.329 219.463 253.329 217.516C253.329 215.57 251.756 213.996 249.821 213.996C247.886 213.996 246.313 215.57 246.313 217.516Z" stroke="#383838" stroke-width="2"/>
</svg>
