<svg width="328" height="33" viewBox="0 0 328 33" fill="none" xmlns="http://www.w3.org/2000/svg">
<path d="M198.568 11.953C198.568 11.1506 198.392 10.2254 198.035 9.17741C197.019 6.66054 195.036 5.40208 192.087 5.40208H191.761C190.492 5.40208 189.155 5.59065 187.759 5.97651C189.652 7.51557 190.596 9.21247 190.596 11.0672C190.596 11.2382 190.555 11.6592 190.465 12.3257C189.589 15.2986 187.606 16.785 184.516 16.785H184.44C181.463 16.4913 179.787 16.3421 179.408 16.3421H179.083C178.622 16.3421 178.166 16.4035 177.71 16.5263C176.499 16.9823 175.898 17.7584 175.898 18.859C175.898 20.0912 176.671 21.2049 178.225 22.1915C180.04 23.0684 181.581 23.5025 182.836 23.5025C182.913 23.2833 182.976 22.9676 183.03 22.5598C182.976 22.5335 182.954 22.3493 182.954 22.0073C182.394 20.0298 181.011 19.0432 178.816 19.0432C178.776 19.0432 178.73 18.9818 178.681 18.859L178.816 18.802H179.196C179.553 18.802 179.945 18.8415 180.379 18.916C182.525 19.6658 183.6 20.9242 183.6 22.6913C183.563 22.9851 183.545 23.2395 183.545 23.4499V23.5025H184.25C184.873 23.5025 185.718 23.4412 186.784 23.3184C190.37 22.6168 193.089 21.4636 194.946 19.8588C197.358 17.7716 198.568 15.3643 198.568 12.637V11.953ZM182.705 23.8928C181.892 23.8928 180.506 23.599 178.545 23.0027C175.013 21.6478 173.247 19.8895 173.247 17.7278C173.247 17.4954 173.292 17.1797 173.383 16.785C174.056 15.4652 175.542 14.7549 177.841 14.6584C180.664 14.904 182.15 15.0267 182.303 15.0267C183.74 15.0267 184.927 14.6496 185.871 13.8998C186.77 13.0579 187.222 12.01 187.222 10.7515C187.222 9.3177 186.558 8.01543 185.221 6.84469C182.836 7.67342 180.207 8.62053 177.348 9.67289C176.621 10.7209 175.23 11.6066 173.17 12.3257C171.725 12.7422 170.23 12.9527 168.69 12.9527H167.335C167.262 12.9527 167.195 12.9527 167.127 12.9527C166.811 14.0708 166.648 15.1582 166.648 16.2106C166.648 18.5082 167.299 20.6042 168.595 22.5028C170.831 25.3924 173.572 26.835 176.811 26.835H177.461C178.59 26.835 179.711 26.5456 180.817 25.9668C181.924 25.1512 182.552 24.4628 182.705 23.8928ZM165.487 10.0675C166.025 9.28702 166.838 8.46268 167.926 7.59011C166.612 7.37525 165.487 6.92801 164.561 6.2396C163.636 6.92801 162.515 7.37525 161.196 7.59011C162.285 8.46268 163.103 9.28702 163.64 10.0675C163.97 10.5191 164.277 11.0541 164.561 11.6723C164.851 11.0541 165.158 10.5191 165.487 10.0675ZM162.475 16.2106C162.475 15.1582 162.317 14.0708 162 12.9527C161.928 12.9527 161.86 12.9527 161.788 12.9527H160.433C158.897 12.9527 157.402 12.7422 155.953 12.3257C153.893 11.6066 152.502 10.7209 151.775 9.67289C148.915 8.62053 146.291 7.67342 143.902 6.84469C142.569 8.01543 141.901 9.3177 141.901 10.7515C141.901 12.01 142.353 13.0579 143.256 13.8998C144.195 14.6496 145.383 15.0267 146.82 15.0267C146.973 15.0267 148.459 14.904 151.282 14.6584C153.581 14.7549 155.072 15.4652 155.745 16.785C155.831 17.1797 155.876 17.4954 155.876 17.7278C155.876 19.8895 154.11 21.6478 150.578 23.0027C148.617 23.599 147.235 23.8928 146.422 23.8928C146.571 24.4628 147.204 25.1512 148.306 25.9668C149.412 26.5456 150.532 26.835 151.662 26.835H152.312C155.551 26.835 158.292 25.3924 160.528 22.5028C161.824 20.6042 162.475 18.5082 162.475 16.2106ZM146.287 23.5025C147.547 23.5025 149.083 23.0684 150.903 22.1915C152.452 21.2049 153.229 20.0912 153.229 18.859C153.229 17.7584 152.624 16.9823 151.413 16.5263C150.957 16.4035 150.501 16.3421 150.045 16.3421H149.719C149.34 16.3421 147.66 16.4913 144.683 16.785H144.611C141.521 16.785 139.534 15.2986 138.658 12.3257C138.568 11.6592 138.527 11.2382 138.527 11.0672C138.527 9.21247 139.471 7.51557 141.368 5.97651C139.968 5.59065 138.635 5.40208 137.362 5.40208H137.041C134.087 5.40208 132.109 6.66054 131.088 9.17741C130.736 10.2254 130.555 11.1506 130.555 11.953V12.637C130.555 15.3643 131.765 17.7716 134.177 19.8588C136.034 21.4636 138.757 22.6168 142.339 23.3184C143.41 23.4412 144.25 23.5025 144.877 23.5025H145.582V23.4499C145.582 23.2395 145.559 22.9851 145.523 22.6913C145.523 20.9242 146.598 19.6658 148.748 18.916C149.177 18.8415 149.57 18.802 149.927 18.802H150.311L150.442 18.859C150.392 18.9818 150.347 19.0432 150.311 19.0432C148.111 19.0432 146.729 20.0298 146.174 22.0073C146.174 22.3493 146.147 22.5335 146.097 22.5598C146.147 22.9676 146.21 23.2833 146.287 23.5025ZM144.611 6.41936C147.127 7.38401 149.381 8.21273 151.373 8.90991C151.237 8.55474 151.169 8.18206 151.169 7.78742V7.41908C151.169 7.18669 151.214 6.87099 151.3 6.47635C151.549 5.87564 151.919 5.36699 152.402 4.95482C151.707 4.83204 151.029 4.77069 150.365 4.77069H150.311C147.944 4.77069 146.043 5.29684 144.611 6.34481V6.41936ZM153.685 10.3788C153.663 10.3744 153.644 10.3657 153.622 10.3569C153.78 10.5805 153.997 10.7998 154.272 11.0102C156.323 11.9705 158.654 12.4528 161.273 12.4528C161.463 12.4528 161.653 12.4485 161.847 12.4441C161.838 12.4222 161.833 12.4002 161.824 12.3783C158.419 11.7513 155.704 11.0848 153.685 10.3788ZM153.301 9.43609C153.301 9.48432 153.306 9.53255 153.315 9.58078C157.497 10.9883 160.275 11.6943 161.635 11.6943C161.011 10.1684 159.986 8.83536 158.568 7.69532C157.353 7.63393 156.657 7.60325 156.486 7.60325C156.205 7.60325 155.989 7.62957 155.84 7.6778C154.146 7.86197 153.301 8.44951 153.301 9.43609ZM175.438 10.3788C173.419 11.0848 170.704 11.7513 167.299 12.3783C167.29 12.4002 167.285 12.4222 167.276 12.4441C167.47 12.4485 167.66 12.4528 167.85 12.4528C170.469 12.4528 172.805 11.9705 174.851 11.0102C175.126 10.7998 175.343 10.5805 175.501 10.3569C175.478 10.3657 175.46 10.3744 175.438 10.3788ZM167.488 11.6943C168.848 11.6943 171.626 10.9883 175.813 9.58078C175.817 9.53255 175.822 9.48432 175.822 9.43609C175.822 8.44951 174.977 7.86197 173.283 7.6778C173.134 7.62957 172.917 7.60325 172.637 7.60325C172.466 7.60325 171.77 7.63393 170.56 7.69532C169.137 8.83536 168.112 10.1684 167.488 11.6943ZM176.721 4.95482C177.208 5.36699 177.574 5.87564 177.827 6.47635C177.913 6.87099 177.958 7.18669 177.958 7.41908V7.78742C177.958 8.18206 177.886 8.55474 177.755 8.90991C179.742 8.21273 181.996 7.38401 184.516 6.41936V6.34481C183.08 5.29684 181.179 4.77069 178.816 4.77069H178.758C178.094 4.77069 177.416 4.83204 176.721 4.95482ZM328 4.70051C328 5.04691 327.634 5.32753 327.187 5.32753H198.545C201.066 6.81836 202.326 9.12918 202.326 12.2687C202.326 16.8113 199.146 20.3455 192.791 22.8755C189.955 23.6779 187.348 24.0769 184.973 24.0769C184.797 24.0287 184.616 24.0024 184.44 24.0024H183.351V24.1339C182.425 26.5894 179.747 27.8654 175.325 27.9663C174.462 27.9268 173.618 27.8654 172.791 27.7821H172.655V27.8522H172.732C175.045 28.7687 177.245 29.2247 179.327 29.2247C182.674 29.2247 187.312 28.282 193.247 26.3921C197.037 24.8487 199.819 24.0769 201.599 24.0769C201.703 24.0769 202.24 24.1383 203.22 24.2655C205.294 24.9539 206.328 26.1509 206.328 27.8522V28.2249C206.328 28.4354 206.31 28.7511 206.269 29.1677C205.533 31.0575 203.975 32.0003 201.599 32.0003H201.219C200.695 32.0003 198.902 31.8731 195.844 31.61C194.34 31.61 192.683 32.0748 190.867 33V32.943C192.416 30.7243 194.833 29.6149 198.112 29.6149L202.249 29.8517H202.972C204.779 29.8517 205.682 29.1633 205.682 27.7821C205.682 27.3875 205.596 27.0104 205.434 26.6508C204.63 25.2696 203.356 24.5768 201.599 24.5768H201.35C200.208 24.5768 198.957 24.8311 197.597 25.3354C190.122 28.26 184.056 29.7245 179.408 29.7245C175.605 29.7245 172.299 28.8476 169.489 27.0937C167.15 25.4143 165.51 23.5551 164.561 21.525C163.617 23.5551 161.973 25.4143 159.634 27.0937C156.824 28.8476 153.518 29.7245 149.719 29.7245C145.067 29.7245 139.001 28.26 131.53 25.3354C130.166 24.8311 128.915 24.5768 127.773 24.5768H127.524C125.767 24.5768 124.493 25.2696 123.689 26.6508C123.527 27.0104 123.445 27.3875 123.445 27.7821C123.445 29.1633 124.344 29.8517 126.151 29.8517H126.878L131.016 29.6149C134.295 29.6149 136.707 30.7243 138.26 32.943V33C136.44 32.0748 134.783 31.61 133.283 31.61C130.221 31.8731 128.427 32.0003 127.904 32.0003H127.524C125.148 32.0003 123.59 31.0575 122.854 29.1677C122.813 28.7511 122.795 28.4354 122.795 28.2249V27.8522C122.795 26.1509 123.829 24.9539 125.903 24.2655C126.883 24.1383 127.425 24.0769 127.524 24.0769C129.304 24.0769 132.086 24.8487 135.876 26.3921C141.811 28.282 146.454 29.2247 149.796 29.2247C151.878 29.2247 154.078 28.7687 156.391 27.8522H156.467V27.7821H156.336C155.51 27.8654 154.661 27.9268 153.798 27.9663C149.376 27.8654 146.698 26.5894 145.772 24.1339V24.0024H144.683C144.507 24.0024 144.331 24.0287 144.15 24.0769C141.774 24.0769 139.168 23.6779 136.336 22.8755C129.977 20.3455 126.801 16.8113 126.801 12.2687C126.801 9.12918 128.062 6.81836 130.577 5.32753H0.816191C0.365419 5.32753 0 5.04691 0 4.70051C0 4.35411 0.365419 4.07349 0.816191 4.07349H134.588C134.909 4.04718 135.23 4.02964 135.55 4.02964C137.204 4.02964 139.448 4.51197 142.28 5.47663C144.29 4.42866 146.58 3.90247 149.146 3.90247C150.546 3.90247 151.942 4.05158 153.337 4.34536C154.354 3.84111 155.682 3.5868 157.326 3.5868C159.774 3.72273 160.731 3.806 161.766 3.8367C161.598 3.51661 160.433 0.122776 160.383 0C160.383 0 163.726 3.5517 164.561 3.72271C165.402 3.5517 168.676 0 168.676 0C168.627 0.122776 167.524 3.51661 167.357 3.8367C168.396 3.806 169.349 3.72273 171.797 3.5868C173.441 3.5868 174.769 3.84111 175.786 4.34536C177.181 4.05158 178.577 3.90247 179.977 3.90247C182.547 3.90247 184.833 4.42866 186.843 5.47663C189.675 4.51197 191.919 4.02964 193.573 4.02964C193.893 4.02964 194.214 4.04718 194.535 4.07349H327.187C327.634 4.07349 328 4.35411 328 4.70051ZM120.708 9.03709C120.708 8.69069 120.342 8.41007 119.891 8.41007H0.816191C0.365419 8.41007 0 8.69069 0 9.03709C0 9.38349 0.365419 9.66411 0.816191 9.66411H119.891C120.342 9.66411 120.708 9.38349 120.708 9.03709ZM328 9.03709C328 9.38349 327.634 9.66411 327.187 9.66411H208.112C207.66 9.66411 207.294 9.38349 207.294 9.03709C207.294 8.69069 207.66 8.41007 208.112 8.41007H327.187C327.634 8.41007 328 8.69069 328 9.03709Z" fill="#383838"/>
</svg>
